<svg xmlns="http://www.w3.org/2000/svg" xmlns:xlink="http://www.w3.org/1999/xlink" width="600" zoomAndPan="magnify" viewBox="0 0 450 449.999984" height="600" preserveAspectRatio="xMidYMid meet" version="1.0"><defs><clipPath id="555c6c8881"><path d="M 9 9 L 442.292969 9 L 442.292969 442.292969 L 9 442.292969 Z M 9 9 " clip-rule="nonzero"/></clipPath></defs><g clip-path="url(#555c6c8881)"><path fill="#ffffff" d="M 438.367188 269.453125 L 241.21875 107.058594 C 254.5625 95.304688 267.207031 82.839844 279.15625 69.671875 C 280.789062 67.523438 282.164062 65.222656 283.277344 62.761719 C 284.390625 60.304688 285.214844 57.753906 285.75 55.109375 C 286.285156 52.464844 286.519531 49.792969 286.449219 47.097656 C 286.378906 44.398438 286.007812 41.742188 285.335938 39.128906 C 284.589844 36.191406 283.523438 33.371094 282.136719 30.667969 C 280.75 27.96875 279.082031 25.460938 277.125 23.140625 C 275.171875 20.816406 272.980469 18.746094 270.558594 16.921875 C 268.132812 15.097656 265.535156 13.566406 262.765625 12.328125 C 261.246094 11.6875 259.6875 11.152344 258.09375 10.726562 C 256.5 10.300781 254.882812 9.988281 253.242188 9.789062 C 251.605469 9.589844 249.960938 9.507812 248.3125 9.539062 C 246.660156 9.566406 245.023438 9.710938 243.390625 9.972656 C 241.761719 10.230469 240.160156 10.605469 238.582031 11.085938 C 237.003906 11.570312 235.46875 12.164062 233.972656 12.859375 C 232.476562 13.558594 231.039062 14.359375 229.652344 15.257812 C 228.269531 16.15625 226.957031 17.148438 225.710938 18.234375 C 224.464844 17.152344 223.152344 16.164062 221.765625 15.265625 C 220.382812 14.367188 218.941406 13.570312 217.449219 12.875 C 215.953125 12.175781 214.414062 11.585938 212.839844 11.101562 C 211.261719 10.621094 209.65625 10.25 208.027344 9.988281 C 206.398438 9.730469 204.761719 9.585938 203.109375 9.554688 C 201.460938 9.523438 199.816406 9.605469 198.179688 9.804688 C 196.542969 10 194.925781 10.3125 193.332031 10.734375 C 191.738281 11.160156 190.179688 11.691406 188.660156 12.328125 C 185.886719 13.566406 183.289062 15.097656 180.867188 16.921875 C 178.441406 18.746094 176.253906 20.816406 174.296875 23.140625 C 172.34375 25.460938 170.671875 27.96875 169.289062 30.667969 C 167.902344 33.371094 166.835938 36.191406 166.089844 39.128906 C 165.417969 41.742188 165.046875 44.398438 164.976562 47.097656 C 164.90625 49.792969 165.136719 52.464844 165.671875 55.109375 C 166.207031 57.753906 167.03125 60.304688 168.144531 62.761719 C 169.257812 65.222656 170.632812 67.523438 172.269531 69.671875 C 184.214844 82.839844 196.863281 95.304688 210.207031 107.058594 L 13.058594 269.453125 C 12.542969 269.878906 12.070312 270.347656 11.648438 270.867188 C 11.222656 271.382812 10.855469 271.933594 10.539062 272.523438 C 10.222656 273.113281 9.96875 273.726562 9.773438 274.367188 C 9.582031 275.007812 9.449219 275.660156 9.386719 276.324219 C 9.320312 276.988281 9.320312 277.652344 9.386719 278.320312 C 9.449219 278.984375 9.578125 279.636719 9.773438 280.273438 C 9.96875 280.914062 10.222656 281.527344 10.535156 282.117188 C 10.851562 282.707031 11.21875 283.261719 11.644531 283.777344 C 12.066406 284.292969 12.539062 284.765625 13.054688 285.1875 C 13.570312 285.613281 14.125 285.984375 14.710938 286.296875 C 15.300781 286.613281 15.914062 286.867188 16.554688 287.0625 C 17.195312 287.257812 17.847656 287.386719 18.511719 287.453125 C 19.175781 287.519531 19.839844 287.519531 20.507812 287.453125 C 21.171875 287.390625 21.824219 287.257812 22.464844 287.066406 C 23.101562 286.871094 23.71875 286.617188 24.308594 286.304688 C 24.894531 285.988281 25.449219 285.621094 25.964844 285.195312 L 63.453125 254.304688 L 63.453125 431.929688 C 63.445312 432.601562 63.507812 433.265625 63.632812 433.921875 C 63.757812 434.582031 63.949219 435.21875 64.203125 435.839844 C 64.453125 436.460938 64.765625 437.050781 65.136719 437.609375 C 65.503906 438.167969 65.925781 438.6875 66.398438 439.160156 C 66.871094 439.636719 67.382812 440.0625 67.941406 440.4375 C 68.496094 440.808594 69.082031 441.125 69.703125 441.382812 C 70.320312 441.640625 70.957031 441.835938 71.613281 441.964844 C 72.273438 442.097656 72.933594 442.164062 73.605469 442.164062 L 172.167969 442.164062 C 172.835938 442.164062 173.492188 442.097656 174.144531 441.964844 C 174.796875 441.835938 175.429688 441.640625 176.042969 441.386719 C 176.660156 441.132812 177.242188 440.820312 177.796875 440.449219 C 178.347656 440.078125 178.859375 439.660156 179.328125 439.191406 C 179.800781 438.71875 180.21875 438.207031 180.589844 437.65625 C 180.960938 437.101562 181.273438 436.519531 181.527344 435.90625 C 181.78125 435.289062 181.976562 434.65625 182.105469 434.003906 C 182.234375 433.351562 182.300781 432.695312 182.304688 432.03125 L 182.304688 346.039062 C 182.304688 344.617188 182.375 343.199219 182.511719 341.785156 C 182.652344 340.371094 182.859375 338.964844 183.136719 337.570312 C 183.414062 336.175781 183.761719 334.800781 184.171875 333.4375 C 184.585938 332.078125 185.0625 330.742188 185.609375 329.425781 C 186.152344 328.113281 186.757812 326.832031 187.429688 325.578125 C 188.097656 324.324219 188.828125 323.105469 189.617188 321.921875 C 190.410156 320.742188 191.253906 319.601562 192.15625 318.5 C 193.058594 317.402344 194.011719 316.351562 195.015625 315.34375 C 196.023438 314.339844 197.074219 313.386719 198.175781 312.484375 C 199.273438 311.582031 200.414062 310.738281 201.59375 309.945312 C 202.777344 309.15625 203.996094 308.425781 205.25 307.757812 C 206.503906 307.085938 207.785156 306.480469 209.101562 305.933594 C 210.414062 305.390625 211.75 304.914062 213.109375 304.5 C 214.472656 304.085938 215.847656 303.742188 217.242188 303.464844 C 218.636719 303.1875 220.042969 302.980469 221.457031 302.839844 C 222.871094 302.699219 224.289062 302.632812 225.710938 302.632812 C 227.132812 302.632812 228.550781 302.699219 229.964844 302.839844 C 231.382812 302.980469 232.785156 303.1875 234.179688 303.464844 C 235.574219 303.742188 236.953125 304.085938 238.3125 304.5 C 239.671875 304.914062 241.011719 305.390625 242.324219 305.933594 C 243.636719 306.480469 244.921875 307.085938 246.175781 307.757812 C 247.429688 308.425781 248.644531 309.15625 249.828125 309.945312 C 251.011719 310.738281 252.152344 311.582031 253.25 312.484375 C 254.347656 313.386719 255.402344 314.339844 256.40625 315.34375 C 257.410156 316.351562 258.363281 317.402344 259.265625 318.5 C 260.167969 319.601562 261.015625 320.742188 261.804688 321.921875 C 262.59375 323.105469 263.324219 324.324219 263.996094 325.578125 C 264.664062 326.832031 265.273438 328.113281 265.816406 329.425781 C 266.359375 330.742188 266.839844 332.078125 267.25 333.4375 C 267.664062 334.800781 268.007812 336.175781 268.285156 337.570312 C 268.5625 338.964844 268.773438 340.371094 268.910156 341.785156 C 269.050781 343.199219 269.121094 344.617188 269.121094 346.039062 L 269.121094 431.929688 C 269.121094 432.597656 269.1875 433.253906 269.316406 433.90625 C 269.449219 434.558594 269.640625 435.191406 269.898438 435.804688 C 270.152344 436.421875 270.464844 437.003906 270.835938 437.558594 C 271.203125 438.109375 271.625 438.621094 272.09375 439.089844 C 272.566406 439.5625 273.074219 439.980469 273.628906 440.351562 C 274.179688 440.722656 274.765625 441.035156 275.378906 441.289062 C 275.992188 441.542969 276.625 441.738281 277.277344 441.867188 C 277.929688 441.996094 278.589844 442.0625 279.253906 442.066406 L 377.820312 442.066406 C 378.484375 442.066406 379.144531 442 379.796875 441.871094 C 380.449219 441.742188 381.085938 441.546875 381.699219 441.292969 C 382.316406 441.039062 382.898438 440.726562 383.453125 440.359375 C 384.007812 439.988281 384.519531 439.570312 384.992188 439.097656 C 385.460938 438.628906 385.882812 438.117188 386.253906 437.5625 C 386.625 437.007812 386.9375 436.425781 387.195312 435.8125 C 387.449219 435.195312 387.640625 434.5625 387.773438 433.910156 C 387.90625 433.257812 387.96875 432.597656 387.972656 431.929688 L 387.972656 254.222656 L 425.457031 285.117188 C 425.972656 285.542969 426.527344 285.910156 427.117188 286.222656 C 427.707031 286.539062 428.320312 286.792969 428.960938 286.984375 C 429.601562 287.179688 430.25 287.308594 430.917969 287.371094 C 431.582031 287.4375 432.246094 287.4375 432.910156 287.371094 C 433.574219 287.304688 434.226562 287.175781 434.867188 286.980469 C 435.503906 286.785156 436.121094 286.53125 436.707031 286.214844 C 437.296875 285.898438 437.851562 285.53125 438.367188 285.105469 C 438.882812 284.683594 439.351562 284.210938 439.777344 283.695312 C 440.199219 283.179688 440.566406 282.625 440.882812 282.035156 C 441.199219 281.449219 441.453125 280.832031 441.644531 280.195312 C 441.839844 279.554688 441.96875 278.902344 442.035156 278.238281 C 442.101562 277.574219 442.101562 276.910156 442.035156 276.242188 C 441.96875 275.578125 441.839844 274.925781 441.644531 274.289062 C 441.453125 273.648438 441.199219 273.035156 440.882812 272.445312 C 440.566406 271.855469 440.199219 271.304688 439.773438 270.785156 C 439.351562 270.269531 438.882812 269.800781 438.367188 269.375 Z M 188.324219 57.273438 C 187.621094 56.332031 187.035156 55.328125 186.558594 54.253906 C 186.085938 53.179688 185.738281 52.066406 185.515625 50.917969 C 185.292969 49.765625 185.207031 48.601562 185.246094 47.429688 C 185.289062 46.257812 185.460938 45.105469 185.765625 43.972656 C 186.152344 42.515625 186.691406 41.117188 187.394531 39.785156 C 188.09375 38.449219 188.933594 37.210938 189.917969 36.066406 C 190.898438 34.925781 191.996094 33.90625 193.207031 33.011719 C 194.421875 32.117188 195.71875 31.367188 197.101562 30.769531 C 207.390625 26.046875 215.894531 37.695312 217.859375 38.636719 C 218.097656 38.925781 218.351562 39.195312 218.621094 39.453125 C 218.886719 39.710938 219.167969 39.953125 219.460938 40.179688 C 219.757812 40.40625 220.0625 40.617188 220.378906 40.808594 C 220.695312 41.003906 221.023438 41.179688 221.359375 41.335938 C 221.695312 41.492188 222.039062 41.632812 222.390625 41.75 C 222.742188 41.871094 223.101562 41.972656 223.464844 42.050781 C 223.824219 42.132812 224.191406 42.195312 224.5625 42.234375 C 224.929688 42.273438 225.300781 42.296875 225.671875 42.296875 C 226.042969 42.296875 226.414062 42.273438 226.785156 42.234375 C 227.152344 42.195312 227.519531 42.132812 227.882812 42.050781 C 228.246094 41.972656 228.601562 41.871094 228.953125 41.75 C 229.304688 41.632812 229.648438 41.492188 229.984375 41.335938 C 230.320312 41.179688 230.648438 41.003906 230.964844 40.808594 C 231.28125 40.617188 231.589844 40.40625 231.882812 40.179688 C 232.175781 39.953125 232.457031 39.710938 232.726562 39.453125 C 232.992188 39.195312 233.246094 38.925781 233.484375 38.636719 C 233.601562 38.519531 244.167969 26.144531 254.285156 30.769531 C 255.664062 31.367188 256.964844 32.117188 258.175781 33.011719 C 259.390625 33.90625 260.484375 34.925781 261.46875 36.066406 C 262.449219 37.210938 263.289062 38.449219 263.992188 39.785156 C 264.691406 41.117188 265.234375 42.515625 265.617188 43.972656 C 265.921875 45.105469 266.09375 46.257812 266.136719 47.425781 C 266.179688 48.597656 266.089844 49.761719 265.871094 50.914062 C 265.652344 52.0625 265.304688 53.175781 264.835938 54.25 C 264.363281 55.324219 263.777344 56.332031 263.078125 57.273438 C 251.242188 70.066406 238.785156 82.230469 225.710938 93.753906 C 212.625 82.234375 200.160156 70.074219 188.324219 57.273438 Z M 367.664062 421.777344 L 289.40625 421.777344 L 289.40625 346.039062 C 289.40625 344.996094 289.382812 343.957031 289.328125 342.914062 C 289.277344 341.875 289.199219 340.835938 289.097656 339.796875 C 288.996094 338.761719 288.867188 337.726562 288.714844 336.695312 C 288.5625 335.664062 288.382812 334.640625 288.179688 333.617188 C 287.976562 332.59375 287.746094 331.578125 287.492188 330.566406 C 287.238281 329.558594 286.960938 328.554688 286.65625 327.554688 C 286.355469 326.558594 286.027344 325.570312 285.675781 324.589844 C 285.324219 323.609375 284.949219 322.636719 284.550781 321.671875 C 284.152344 320.710938 283.730469 319.757812 283.28125 318.816406 C 282.835938 317.875 282.367188 316.945312 281.875 316.027344 C 281.386719 315.105469 280.871094 314.199219 280.335938 313.308594 C 279.800781 312.414062 279.242188 311.53125 278.664062 310.667969 C 278.082031 309.800781 277.484375 308.949219 276.863281 308.113281 C 276.242188 307.273438 275.601562 306.453125 274.9375 305.648438 C 274.277344 304.84375 273.597656 304.054688 272.894531 303.28125 C 272.195312 302.511719 271.476562 301.757812 270.742188 301.019531 C 270.003906 300.28125 269.25 299.566406 268.476562 298.863281 C 267.703125 298.164062 266.914062 297.484375 266.109375 296.824219 C 265.304688 296.164062 264.484375 295.523438 263.644531 294.902344 C 262.808594 294.28125 261.957031 293.679688 261.089844 293.101562 C 260.222656 292.523438 259.34375 291.96875 258.449219 291.429688 C 257.554688 290.894531 256.648438 290.382812 255.730469 289.890625 C 254.808594 289.398438 253.878906 288.933594 252.9375 288.488281 C 251.996094 288.039062 251.042969 287.617188 250.078125 287.21875 C 249.117188 286.820312 248.144531 286.445312 247.164062 286.097656 C 246.183594 285.746094 245.195312 285.417969 244.195312 285.117188 C 243.199219 284.8125 242.195312 284.535156 241.183594 284.28125 C 240.171875 284.027344 239.15625 283.800781 238.132812 283.597656 C 237.113281 283.394531 236.085938 283.214844 235.054688 283.0625 C 234.023438 282.910156 232.992188 282.785156 231.953125 282.679688 C 230.917969 282.578125 229.878906 282.503906 228.835938 282.453125 C 227.796875 282.398438 226.753906 282.375 225.710938 282.375 C 224.667969 282.375 223.628906 282.398438 222.585938 282.453125 C 221.546875 282.503906 220.507812 282.578125 219.46875 282.679688 C 218.433594 282.785156 217.398438 282.910156 216.367188 283.0625 C 215.335938 283.214844 214.3125 283.394531 213.289062 283.597656 C 212.265625 283.800781 211.25 284.027344 210.238281 284.28125 C 209.230469 284.535156 208.226562 284.8125 207.226562 285.117188 C 206.230469 285.417969 205.242188 285.746094 204.261719 286.097656 C 203.277344 286.445312 202.304688 286.820312 201.34375 287.21875 C 200.382812 287.617188 199.429688 288.039062 198.488281 288.488281 C 197.542969 288.933594 196.613281 289.398438 195.695312 289.890625 C 194.773438 290.382812 193.867188 290.894531 192.976562 291.429688 C 192.082031 291.964844 191.199219 292.523438 190.335938 293.101562 C 189.46875 293.679688 188.617188 294.28125 187.777344 294.902344 C 186.941406 295.523438 186.121094 296.164062 185.3125 296.824219 C 184.507812 297.484375 183.71875 298.164062 182.945312 298.863281 C 182.175781 299.566406 181.421875 300.28125 180.683594 301.019531 C 179.945312 301.757812 179.226562 302.511719 178.527344 303.28125 C 177.828125 304.054688 177.148438 304.84375 176.484375 305.648438 C 175.824219 306.453125 175.183594 307.273438 174.5625 308.113281 C 173.941406 308.949219 173.339844 309.800781 172.761719 310.667969 C 172.183594 311.53125 171.625 312.414062 171.089844 313.308594 C 170.550781 314.199219 170.039062 315.105469 169.546875 316.027344 C 169.054688 316.945312 168.585938 317.875 168.140625 318.816406 C 167.695312 319.757812 167.273438 320.710938 166.875 321.671875 C 166.472656 322.636719 166.097656 323.609375 165.746094 324.589844 C 165.394531 325.570312 165.070312 326.558594 164.765625 327.554688 C 164.464844 328.554688 164.183594 329.558594 163.929688 330.566406 C 163.675781 331.578125 163.449219 332.59375 163.246094 333.617188 C 163.042969 334.640625 162.863281 335.664062 162.710938 336.695312 C 162.554688 337.726562 162.429688 338.761719 162.324219 339.796875 C 162.222656 340.835938 162.144531 341.875 162.09375 342.914062 C 162.042969 343.957031 162.015625 344.996094 162.015625 346.039062 L 162.015625 421.777344 L 83.738281 421.777344 L 83.738281 237.519531 L 225.710938 120.554688 L 367.683594 237.519531 Z M 367.664062 421.777344 " fill-opacity="1" fill-rule="nonzero"/></g></svg>