<svg xmlns="http://www.w3.org/2000/svg" xmlns:xlink="http://www.w3.org/1999/xlink" width="600" zoomAndPan="magnify" viewBox="0 0 450 449.999984" height="600" preserveAspectRatio="xMidYMid meet" version="1.0"><defs><clipPath id="d3663b1c42"><path d="M 0 148 L 450 148 L 450 405.1875 L 0 405.1875 Z M 0 148 " clip-rule="nonzero"/></clipPath></defs><path fill="#ffffff" d="M 300.984375 101.957031 C 275.460938 78.664062 250.460938 54.78125 225.0625 31.367188 C 199.679688 55.21875 173.835938 78.582031 148.210938 102.179688 C 199.136719 101.867188 250.058594 102.082031 300.984375 101.957031 Z M 300.984375 101.957031 " fill-opacity="1" fill-rule="nonzero"/><path fill="#ffffff" d="M 334.375 135.917969 C 327.847656 130.257812 321.597656 124.300781 315.238281 118.460938 C 313.15625 116.773438 311.585938 113.554688 308.496094 114.003906 C 252.230469 114.058594 195.976562 113.878906 139.71875 114.101562 C 131.457031 121.21875 123.410156 128.871094 115.148438 136.105469 C 188.222656 135.882812 261.304688 136.277344 334.375 135.917969 Z M 334.375 135.917969 " fill-opacity="1" fill-rule="nonzero"/><g clip-path="url(#d3663b1c42)"><path fill="#ffffff" d="M 436.859375 278.109375 C 441.253906 278.054688 445.644531 278.109375 450.050781 278.0625 C 449.996094 273.105469 450.023438 268.140625 450.003906 263.183594 C 411.636719 263.148438 373.269531 263.167969 334.894531 263.238281 C 334.851562 232.835938 335.054688 202.445312 334.832031 172.046875 C 340.144531 171.910156 345.460938 172.007812 350.773438 171.839844 C 350.613281 163.980469 350.703125 156.121094 350.59375 148.261719 C 266.589844 148.421875 182.589844 148.445312 98.59375 148.324219 C 98.414062 156.21875 98.59375 164.125 98.644531 172.019531 C 103.886719 172.035156 109.128906 171.921875 114.375 171.902344 C 114.453125 202.347656 114.476562 232.785156 114.445312 263.21875 C 76.28125 263.070312 38.113281 263.265625 -0.0507812 263.078125 C 0.0859375 268.097656 0.0117188 273.105469 0.03125 278.125 C 4.441406 278.035156 8.859375 278.003906 13.277344 278.027344 C 13.292969 320.414062 13.304688 362.792969 13.3125 405.167969 C 69.046875 405.148438 124.789062 405.140625 180.53125 405.140625 C 180.433594 387.117188 180.460938 369.085938 180.480469 351.054688 C 180.128906 345.042969 180.535156 339.082031 181.703125 333.175781 C 182.222656 331.039062 182.898438 328.957031 183.722656 326.917969 C 184.550781 324.882812 185.523438 322.917969 186.640625 321.027344 C 187.757812 319.132812 189.003906 317.332031 190.386719 315.625 C 191.769531 313.914062 193.269531 312.316406 194.886719 310.828125 C 196.5 309.339844 198.21875 307.976562 200.035156 306.742188 C 201.855469 305.507812 203.753906 304.410156 205.730469 303.457031 C 207.710938 302.5 209.75 301.695312 211.84375 301.039062 C 213.941406 300.382812 216.078125 299.882812 218.25 299.542969 C 221.046875 299.109375 223.859375 298.957031 226.6875 299.089844 C 229.515625 299.222656 232.304688 299.636719 235.050781 300.332031 C 237.792969 301.027344 240.441406 301.992188 242.992188 303.21875 C 245.546875 304.449219 247.949219 305.921875 250.203125 307.632812 C 251.601562 308.6875 252.933594 309.816406 254.199219 311.027344 C 255.464844 312.238281 256.65625 313.515625 257.773438 314.863281 C 258.890625 316.210938 259.925781 317.621094 260.878906 319.089844 C 261.832031 320.558594 262.695312 322.078125 263.472656 323.648438 C 264.246094 325.21875 264.925781 326.828125 265.515625 328.476562 C 266.101562 330.125 266.589844 331.804688 266.980469 333.511719 C 267.375 335.21875 267.664062 336.941406 267.855469 338.683594 C 268.042969 340.421875 268.132812 342.167969 268.117188 343.917969 C 268.171875 364.371094 268.027344 384.832031 268.082031 405.285156 C 324.355469 405.050781 380.648438 405.195312 436.921875 405.1875 C 436.804688 362.828125 436.785156 320.46875 436.859375 278.109375 Z M 75.121094 328.816406 C 75.085938 347.769531 75.082031 366.722656 75.105469 385.679688 C 66.421875 385.628906 57.75 385.613281 49.078125 385.644531 C 48.972656 364.898438 49.0625 344.152344 49.027344 323.40625 C 48.988281 322.585938 49.023438 321.765625 49.125 320.949219 C 49.230469 320.136719 49.398438 319.335938 49.640625 318.546875 C 49.878906 317.761719 50.183594 317 50.550781 316.265625 C 50.921875 315.53125 51.351562 314.835938 51.839844 314.171875 C 52.328125 313.511719 52.867188 312.898438 53.460938 312.328125 C 54.054688 311.757812 54.691406 311.246094 55.371094 310.785156 C 56.050781 310.324219 56.765625 309.925781 57.515625 309.585938 C 58.265625 309.246094 59.039062 308.976562 59.832031 308.769531 C 60.507812 308.636719 61.1875 308.5625 61.875 308.542969 C 62.5625 308.523438 63.25 308.5625 63.929688 308.660156 C 64.609375 308.753906 65.277344 308.90625 65.933594 309.113281 C 66.589844 309.320312 67.222656 309.582031 67.835938 309.894531 C 68.449219 310.207031 69.03125 310.570312 69.582031 310.980469 C 70.136719 311.390625 70.648438 311.84375 71.125 312.339844 C 71.601562 312.835938 72.035156 313.367188 72.421875 313.9375 C 72.808594 314.503906 73.144531 315.101562 73.433594 315.726562 C 75.140625 319.941406 75.703125 324.304688 75.121094 328.816406 Z M 375.609375 385.707031 C 375.261719 364.34375 375.621094 342.980469 375.574219 321.628906 C 375.582031 321.140625 375.613281 320.65625 375.671875 320.175781 C 375.730469 319.691406 375.816406 319.214844 375.929688 318.742188 C 376.042969 318.269531 376.183594 317.804688 376.347656 317.347656 C 376.511719 316.886719 376.699219 316.441406 376.914062 316.003906 C 377.128906 315.566406 377.363281 315.144531 377.625 314.734375 C 377.886719 314.324219 378.167969 313.929688 378.472656 313.550781 C 378.777344 313.171875 379.105469 312.808594 379.449219 312.46875 C 379.792969 312.125 380.15625 311.800781 380.539062 311.5 C 380.917969 311.199219 381.3125 310.917969 381.726562 310.660156 C 382.136719 310.398438 382.5625 310.164062 383 309.953125 C 383.4375 309.742188 383.886719 309.554688 384.347656 309.394531 C 384.804688 309.234375 385.269531 309.097656 385.746094 308.988281 C 386.21875 308.878906 386.695312 308.796875 387.179688 308.738281 C 387.664062 308.683594 388.148438 308.652344 388.632812 308.648438 C 389.121094 308.648438 389.605469 308.671875 390.085938 308.722656 C 390.570312 308.773438 391.050781 308.851562 391.527344 308.957031 C 392.230469 309.1875 392.914062 309.472656 393.570312 309.8125 C 394.230469 310.152344 394.859375 310.539062 395.460938 310.976562 C 396.058594 311.414062 396.617188 311.898438 397.140625 312.421875 C 397.664062 312.949219 398.144531 313.511719 398.578125 314.113281 C 399.011719 314.714844 399.394531 315.347656 399.730469 316.007812 C 400.066406 316.671875 400.34375 317.355469 400.574219 318.0625 C 400.800781 318.769531 400.96875 319.488281 401.082031 320.21875 C 401.199219 320.953125 401.253906 321.691406 401.25 322.433594 C 401.625 343.492188 401.046875 364.566406 401.546875 385.628906 C 392.902344 385.628906 384.246094 385.457031 375.609375 385.707031 Z M 375.609375 385.707031 " fill-opacity="1" fill-rule="nonzero"/></g></svg>