<svg xmlns="http://www.w3.org/2000/svg" xmlns:xlink="http://www.w3.org/1999/xlink" width="600" zoomAndPan="magnify" viewBox="0 0 450 449.999984" height="600" preserveAspectRatio="xMidYMid meet" version="1.0"><defs><clipPath id="69698ad6b1"><path d="M 76.40625 18.269531 L 153.65625 18.269531 L 153.65625 431.519531 L 76.40625 431.519531 Z M 76.40625 18.269531 " clip-rule="nonzero"/></clipPath><clipPath id="7fb1c1fea4"><path d="M 4.210938 26.609375 L 229.960938 26.609375 L 229.960938 360.359375 L 4.210938 360.359375 Z M 4.210938 26.609375 " clip-rule="nonzero"/></clipPath><clipPath id="f243376e13"><path d="M 222.117188 158.925781 L 445.617188 158.925781 L 445.617188 359.925781 L 222.117188 359.925781 Z M 222.117188 158.925781 " clip-rule="nonzero"/></clipPath></defs><g clip-path="url(#69698ad6b1)"><path fill="#ffffff" d="M 144.40625 348.054688 L 141.667969 348.054688 L 141.667969 345.125 L 140.007812 345.125 L 143.914062 315.851562 L 140.46875 315.851562 L 143.914062 287.070312 L 139.96875 287.070312 L 143.914062 257.316406 L 139.96875 257.316406 L 143.421875 228.535156 L 139.636719 228.535156 L 143.914062 201.207031 L 139.035156 200.234375 L 143.421875 171.945312 L 139.636719 171.945312 L 143.421875 144.621094 L 139.527344 143.15625 L 143.914062 115.839844 L 136.597656 114.371094 L 136.597656 112.425781 L 131.234375 110.476562 L 131.234375 105.597656 L 123.425781 101.691406 L 127.328125 69.488281 L 120.984375 67.058594 L 120.984375 60.222656 L 119.519531 59.25 L 119.519531 57.300781 L 120.984375 55.835938 L 119.277344 54.128906 L 117.40625 54.128906 L 117.40625 21.683594 L 115.199219 18.371094 L 115.199219 18.269531 L 115.164062 18.320312 L 115.132812 18.269531 L 115.132812 18.371094 L 112.925781 21.683594 L 112.925781 54.128906 L 111.054688 54.128906 L 109.347656 55.835938 L 110.8125 57.300781 L 110.8125 59.25 L 109.347656 60.222656 L 109.347656 67.058594 L 103.003906 69.488281 L 106.90625 101.691406 L 99.097656 105.597656 L 99.097656 110.476562 L 93.734375 112.425781 L 93.734375 114.371094 L 86.417969 115.839844 L 90.804688 143.15625 L 86.902344 144.621094 L 90.695312 171.945312 L 86.902344 171.945312 L 91.296875 200.234375 L 86.417969 201.207031 L 90.695312 228.535156 L 86.902344 228.535156 L 90.363281 257.316406 L 86.417969 257.316406 L 90.363281 287.070312 L 86.417969 287.070312 L 89.863281 315.851562 L 86.417969 315.851562 L 90.324219 345.125 L 88.664062 345.125 L 88.664062 348.054688 L 85.925781 348.054688 L 76.660156 431.695312 L 153.671875 431.695312 Z M 144.40625 348.054688 " fill-opacity="1" fill-rule="nonzero"/></g><g clip-path="url(#7fb1c1fea4)"><path fill="#ffffff" d="M -103.449219 360.183594 L -103.449219 109.976562 L 0.804688 109.976562 L 0.804688 360.183594 Z M -82.597656 130.828125 L -82.597656 151.675781 L -61.746094 151.675781 L -61.746094 130.828125 Z M -40.894531 130.828125 L -40.894531 151.675781 L -20.046875 151.675781 L -20.046875 130.828125 Z M -40.894531 172.527344 L -40.894531 193.378906 L -20.046875 193.378906 L -20.046875 172.527344 Z M -82.597656 172.527344 L -82.597656 193.378906 L -61.746094 193.378906 L -61.746094 172.527344 Z M -40.894531 235.078125 L -20.046875 235.078125 L -20.046875 214.230469 L -40.894531 214.230469 Z M -82.597656 214.230469 L -82.597656 235.078125 L -61.746094 235.078125 L -61.746094 214.230469 Z M -82.597656 255.929688 L -82.597656 276.78125 L -61.746094 276.78125 L -61.746094 255.929688 Z M -40.894531 276.78125 L -20.046875 276.78125 L -20.046875 255.929688 L -40.894531 255.929688 Z M -40.894531 297.632812 L -40.894531 318.480469 L -20.046875 318.480469 L -20.046875 297.632812 Z M -82.597656 297.632812 L -82.597656 318.480469 L -61.746094 318.480469 L -61.746094 297.632812 Z M 175.949219 26.574219 L 180.121094 26.574219 L 180.121094 55.765625 L 184.289062 59.933594 L 209.3125 76.617188 L 230.160156 105.804688 L 230.160156 360.183594 L 125.910156 360.183594 L 125.910156 105.804688 L 146.757812 76.617188 L 171.78125 59.933594 L 175.949219 55.765625 Z M 146.757812 109.976562 L 167.609375 109.976562 L 167.609375 89.125 Z M 188.460938 89.125 L 188.460938 109.976562 L 209.3125 109.976562 Z M 146.757812 130.828125 L 146.757812 151.675781 L 167.609375 151.675781 L 167.609375 130.828125 Z M 188.460938 130.828125 L 188.460938 151.675781 L 209.3125 151.675781 L 209.3125 130.828125 Z M 188.460938 172.527344 L 188.460938 193.378906 L 209.3125 193.378906 L 209.3125 172.527344 Z M 146.757812 172.527344 L 146.757812 193.378906 L 167.609375 193.378906 L 167.609375 172.527344 Z M 188.460938 235.078125 L 209.3125 235.078125 L 209.3125 214.230469 L 188.460938 214.230469 Z M 146.199219 214.230469 L 146.199219 235.078125 L 167.050781 235.078125 L 167.050781 214.230469 Z M 146.757812 255.929688 L 146.757812 276.78125 L 167.609375 276.78125 L 167.609375 255.929688 Z M 188.460938 276.78125 L 209.3125 276.78125 L 209.3125 255.929688 L 188.460938 255.929688 Z M 188.460938 297.632812 L 188.460938 318.480469 L 209.3125 318.480469 L 209.3125 297.632812 Z M 146.757812 297.632812 L 146.757812 318.480469 L 167.609375 318.480469 L 167.609375 297.632812 Z M 9.144531 360.183594 L 9.144531 26.574219 L 117.570312 68.273438 L 117.570312 360.183594 Z M 21.65625 89.125 L 21.65625 109.976562 L 42.507812 109.976562 L 42.507812 89.125 Z M 84.207031 89.125 L 84.207031 109.976562 L 105.058594 109.976562 L 105.058594 89.125 Z M 21.65625 130.828125 L 21.65625 151.675781 L 42.507812 151.675781 L 42.507812 130.828125 Z M 84.207031 130.828125 L 84.207031 151.675781 L 105.058594 151.675781 L 105.058594 130.828125 Z M 84.207031 172.527344 L 84.207031 193.378906 L 105.058594 193.378906 L 105.058594 172.527344 Z M 21.65625 172.527344 L 21.65625 193.378906 L 42.507812 193.378906 L 42.507812 172.527344 Z M 84.207031 235.078125 L 105.058594 235.078125 L 105.058594 214.230469 L 84.207031 214.230469 Z M 21.65625 214.230469 L 21.65625 235.078125 L 42.507812 235.078125 L 42.507812 214.230469 Z M 21.65625 255.929688 L 21.65625 276.78125 L 42.507812 276.78125 L 42.507812 255.929688 Z M 84.207031 276.78125 L 105.058594 276.78125 L 105.058594 255.929688 L 84.207031 255.929688 Z M 84.207031 297.632812 L 84.207031 318.480469 L 105.058594 318.480469 L 105.058594 297.632812 Z M 21.65625 297.632812 L 21.65625 318.480469 L 42.507812 318.480469 L 42.507812 297.632812 Z M 71.695312 89.125 L 55.015625 89.125 L 55.015625 109.976562 L 71.695312 109.976562 Z M 55.015625 130.828125 L 55.015625 151.675781 L 71.695312 151.675781 L 71.695312 130.828125 Z M 55.015625 172.527344 L 55.015625 193.378906 L 71.695312 193.378906 L 71.695312 172.527344 Z M 55.015625 214.230469 L 55.015625 235.078125 L 71.695312 235.078125 L 71.695312 214.230469 Z M 55.015625 276.78125 L 71.695312 276.78125 L 71.695312 255.929688 L 55.015625 255.929688 Z M 55.015625 318.480469 L 71.695312 318.480469 L 71.695312 297.632812 L 55.015625 297.632812 Z M 55.015625 318.480469 " fill-opacity="1" fill-rule="nonzero"/></g><g clip-path="url(#f243376e13)"><path fill="#ffffff" d="M 241.179688 308.515625 C 241.179688 306.980469 242.421875 305.730469 243.960938 305.730469 C 245.496094 305.730469 246.742188 306.980469 246.742188 308.515625 C 246.742188 310.050781 245.496094 311.296875 243.960938 311.296875 C 242.425781 311.296875 241.179688 310.054688 241.179688 308.515625 Z M 243.882812 330.0625 C 245.417969 330.0625 246.664062 328.816406 246.664062 327.28125 C 246.664062 325.746094 245.417969 324.5 243.882812 324.5 C 242.347656 324.5 241.097656 325.746094 241.097656 327.28125 C 241.097656 328.816406 242.347656 330.0625 243.882812 330.0625 Z M 264.308594 317.871094 C 265.84375 317.871094 267.089844 316.625 267.089844 315.089844 C 267.089844 313.554688 265.84375 312.308594 264.308594 312.308594 L 264.304688 312.308594 C 262.769531 312.308594 261.519531 313.554688 261.519531 315.089844 C 261.519531 316.625 262.773438 317.871094 264.308594 317.871094 Z M 278.234375 332.136719 C 279.765625 332.136719 281.015625 330.886719 281.015625 329.351562 C 281.015625 327.816406 279.765625 326.570312 278.234375 326.570312 C 276.699219 326.570312 275.449219 327.816406 275.449219 329.351562 C 275.449219 330.886719 276.691406 332.136719 278.234375 332.136719 Z M 445.703125 300.636719 L 445.703125 357.410156 C 445.703125 358.945312 444.457031 360.195312 442.921875 360.195312 L 224.980469 360.195312 C 223.445312 360.195312 222.199219 358.945312 222.199219 357.410156 L 222.199219 300.636719 C 222.199219 292.617188 228.722656 286.09375 236.742188 286.09375 C 239.929688 286.09375 243.019531 287.152344 245.527344 289.054688 C 248.59375 286.738281 252.308594 285.492188 256.21875 285.492188 C 261.636719 285.492188 266.535156 287.96875 269.816406 291.847656 C 270.136719 290.101562 270.355469 288.445312 270.429688 286.988281 C 270.601562 283.613281 269.972656 280.980469 268.824219 278.5 C 266.03125 279.902344 262.886719 280.660156 259.707031 280.660156 C 252.371094 280.660156 245.828125 276.8125 242.570312 270.714844 C 237.277344 270.175781 232.378906 267.753906 228.621094 263.78125 C 224.480469 259.386719 222.199219 253.597656 222.199219 247.46875 C 222.199219 238.617188 227.058594 230.59375 234.554688 226.652344 C 233.695312 224.320312 233.25 221.835938 233.25 219.335938 C 233.25 207.722656 242.699219 198.273438 254.308594 198.273438 C 256.746094 198.273438 259.160156 198.695312 261.4375 199.511719 C 264.652344 191.734375 272.242188 186.542969 280.894531 186.542969 C 289.546875 186.542969 297.136719 191.734375 300.351562 199.511719 C 302.628906 198.695312 305.042969 198.273438 307.476562 198.273438 C 311.390625 198.273438 315.160156 199.359375 318.414062 201.335938 C 318.265625 200.230469 318.183594 199.117188 318.183594 198.003906 C 318.183594 184.273438 329.355469 173.097656 343.089844 173.097656 C 346.160156 173.097656 349.203125 173.667969 352.050781 174.765625 C 355.71875 165.28125 364.839844 158.90625 375.261719 158.90625 C 385.6875 158.90625 394.808594 165.28125 398.476562 174.765625 C 401.316406 173.667969 404.363281 173.097656 407.433594 173.097656 C 421.164062 173.097656 432.339844 184.269531 432.339844 198.003906 C 432.339844 201.140625 431.746094 204.246094 430.605469 207.144531 C 439.75 211.722656 445.710938 221.378906 445.710938 232.054688 C 445.710938 239.320312 443.007812 246.1875 438.09375 251.386719 C 433.574219 256.167969 427.65625 259.054688 421.269531 259.621094 C 417.476562 266.972656 409.667969 271.625 400.898438 271.625 C 396.667969 271.625 392.535156 270.507812 388.972656 268.449219 C 387.445312 271.859375 386.855469 275.449219 387.472656 280.578125 C 388.066406 285.535156 389.339844 292.855469 392.011719 299.78125 C 392.289062 299.769531 392.570312 299.757812 392.851562 299.757812 C 393.308594 299.757812 393.765625 299.777344 394.21875 299.8125 C 395.859375 291.675781 403.121094 285.492188 411.6875 285.492188 C 415.597656 285.492188 419.3125 286.742188 422.378906 289.054688 C 424.886719 287.152344 427.976562 286.09375 431.164062 286.09375 C 439.179688 286.089844 445.703125 292.613281 445.703125 300.636719 Z M 392.839844 305.320312 C 386.984375 305.320312 381.925781 309.484375 380.8125 315.222656 C 380.535156 316.65625 379.199219 317.628906 377.746094 317.453125 C 377.257812 317.394531 376.753906 317.367188 376.257812 317.367188 C 369.503906 317.367188 364.007812 322.859375 364.007812 329.617188 C 364.007812 333.628906 365.921875 337.308594 369.167969 339.609375 L 440.136719 339.609375 L 440.136719 300.640625 C 440.136719 295.6875 436.109375 291.664062 431.160156 291.664062 C 428.617188 291.664062 426.179688 292.75 424.480469 294.644531 C 423.964844 295.214844 423.238281 295.550781 422.472656 295.566406 C 421.695312 295.589844 420.964844 295.285156 420.421875 294.734375 C 418.097656 292.363281 414.992188 291.0625 411.675781 291.0625 C 405.046875 291.0625 399.550781 296.453125 399.425781 303.078125 C 399.410156 303.933594 399.003906 304.730469 398.328125 305.246094 C 397.648438 305.761719 396.769531 305.9375 395.941406 305.71875 C 394.9375 305.449219 393.894531 305.320312 392.839844 305.320312 Z M 291.457031 287.503906 C 291.953125 291.640625 293.019531 297.785156 295.289062 303.542969 C 296.804688 307.402344 300.269531 311.46875 303.300781 314.777344 C 306.03125 310.597656 310.75 307.90625 316.011719 307.90625 C 317.378906 307.90625 318.738281 308.09375 320.050781 308.453125 C 322.421875 303.039062 327.839844 299.367188 333.949219 299.367188 C 340.0625 299.367188 345.476562 303.039062 347.851562 308.453125 C 349.164062 308.09375 350.523438 307.90625 351.890625 307.90625 C 352.671875 307.90625 353.4375 307.96875 354.183594 308.082031 C 355.773438 305.5 357.234375 302.566406 358.53125 299.316406 C 361.113281 292.847656 362.894531 285.40625 363.179688 279.902344 C 363.410156 275.4375 362.519531 272.03125 360.929688 268.792969 C 357.503906 270.632812 353.589844 271.625 349.625 271.625 C 342.933594 271.625 336.808594 268.914062 332.59375 264.367188 C 328.953125 267.964844 324.269531 270.195312 319.21875 270.707031 C 315.953125 276.804688 309.417969 280.65625 302.082031 280.65625 C 298.6875 280.65625 295.371094 279.8125 292.464844 278.234375 C 291.382812 280.839844 290.992188 283.632812 291.457031 287.503906 Z M 309.457031 329.613281 C 309.457031 333.257812 308.363281 336.707031 306.398438 339.605469 L 361.507812 339.605469 C 359.542969 336.707031 358.449219 333.257812 358.449219 329.613281 C 358.449219 326.199219 359.417969 323.007812 361.085938 320.296875 C 359.886719 316.28125 356.175781 313.464844 351.890625 313.464844 C 350.304688 313.464844 348.792969 313.835938 347.40625 314.574219 C 346.628906 314.988281 345.699219 315.007812 344.90625 314.625 C 344.113281 314.246094 343.542969 313.519531 343.375 312.652344 C 342.488281 308.171875 338.527344 304.917969 333.949219 304.917969 C 329.375 304.917969 325.410156 308.167969 324.527344 312.652344 C 324.355469 313.511719 323.792969 314.246094 322.992188 314.625 C 322.199219 315.007812 321.273438 314.984375 320.496094 314.574219 C 319.101562 313.835938 317.597656 313.464844 316.011719 313.464844 C 311.730469 313.464844 308.019531 316.285156 306.816406 320.296875 C 308.488281 323.007812 309.457031 326.199219 309.457031 329.613281 Z M 386.488281 300.929688 C 383.828125 293.726562 382.546875 286.308594 381.933594 281.230469 C 380.53125 269.523438 384.648438 263.804688 390.347656 255.882812 C 391.550781 254.207031 392.804688 252.472656 394.125 250.515625 C 394.164062 250.457031 394.148438 250.375 394.09375 250.332031 L 393.671875 250.03125 C 393.605469 249.984375 393.550781 249.996094 393.5 250.046875 L 383.738281 260.292969 C 382.910156 261.164062 381.605469 261.40625 380.519531 260.882812 C 379.433594 260.359375 378.804688 259.195312 378.96875 258 L 381.589844 238.667969 C 381.632812 238.375 381.425781 238.097656 381.132812 238.050781 L 380.058594 237.878906 C 379.769531 237.832031 379.492188 238.023438 379.433594 238.316406 L 374.757812 262.078125 C 374.546875 263.140625 373.742188 263.984375 372.6875 264.246094 C 371.636719 264.5 370.53125 264.125 369.855469 263.28125 L 357.332031 247.625 C 356.882812 247.058594 356.109375 246.933594 355.503906 247.328125 L 354.777344 247.796875 C 354.53125 247.953125 354.449219 248.269531 354.59375 248.523438 C 356.53125 251.992188 358.527344 254.851562 360.460938 257.609375 C 365.179688 264.359375 369.253906 270.1875 368.742188 280.171875 C 368.425781 286.339844 366.539062 294.261719 363.703125 301.359375 C 362.453125 304.484375 361.058594 307.359375 359.542969 309.953125 C 361.878906 311.316406 363.828125 313.289062 365.15625 315.683594 C 368.140625 313.300781 371.894531 311.847656 375.980469 311.785156 C 377.707031 306.753906 381.609375 302.796875 386.488281 300.929688 Z M 323.746094 198.003906 C 323.746094 201.226562 324.550781 204.417969 326.082031 207.234375 C 326.464844 207.941406 326.527344 208.789062 326.238281 209.546875 C 325.953125 210.300781 325.347656 210.902344 324.589844 211.175781 C 316.085938 214.273438 310.371094 222.660156 310.371094 232.050781 C 310.371094 243.980469 319.683594 253.894531 331.125 254.148438 C 332.230469 254.171875 333.214844 254.84375 333.636719 255.867188 C 336.167969 261.964844 342.589844 266.058594 349.621094 266.058594 C 352.589844 266.058594 355.519531 265.335938 358.085938 264 C 357.398438 262.96875 356.667969 261.917969 355.894531 260.8125 C 353.976562 258.074219 351.804688 254.964844 349.730469 251.25 C 348.160156 248.441406 349.050781 244.875 351.757812 243.132812 L 352.484375 242.664062 C 355.488281 240.730469 359.4375 241.375 361.667969 244.167969 L 370.445312 255.136719 L 373.964844 237.253906 C 374.605469 234.011719 377.660156 231.878906 380.917969 232.398438 L 381.996094 232.570312 C 385.25 233.085938 387.535156 236.164062 387.097656 239.425781 L 385.625 250.246094 L 389.460938 246.21875 C 391.4375 244.148438 394.5625 243.847656 396.894531 245.511719 L 397.316406 245.8125 C 399.808594 247.589844 400.445312 251.101562 398.730469 253.640625 C 397.363281 255.667969 396.03125 257.515625 394.859375 259.144531 C 393.695312 260.761719 392.640625 262.222656 391.714844 263.617188 C 394.441406 265.203125 397.617188 266.0625 400.886719 266.0625 C 407.914062 266.0625 414.339844 261.96875 416.871094 255.871094 C 417.292969 254.855469 418.273438 254.183594 419.378906 254.15625 C 430.824219 253.898438 440.132812 243.984375 440.132812 232.054688 C 440.132812 222.664062 434.421875 214.277344 425.917969 211.179688 C 425.15625 210.902344 424.554688 210.308594 424.265625 209.550781 C 423.980469 208.796875 424.039062 207.945312 424.421875 207.238281 C 425.953125 204.421875 426.761719 201.230469 426.761719 198.007812 C 426.761719 187.34375 418.085938 178.667969 407.417969 178.667969 C 404.160156 178.667969 400.9375 179.492188 398.097656 181.058594 C 397.339844 181.472656 396.425781 181.515625 395.632812 181.164062 C 394.839844 180.8125 394.253906 180.109375 394.050781 179.265625 C 391.957031 170.554688 384.226562 164.464844 375.25 164.464844 C 366.269531 164.464844 358.539062 170.550781 356.445312 179.265625 C 356.242188 180.109375 355.65625 180.8125 354.863281 181.164062 C 354.070312 181.511719 353.15625 181.472656 352.398438 181.058594 C 349.558594 179.492188 346.335938 178.667969 343.078125 178.667969 C 332.421875 178.664062 323.746094 187.339844 323.746094 198.003906 Z M 265.996094 273.671875 C 265.523438 272.972656 265.023438 272.257812 264.496094 271.507812 C 262.90625 269.230469 261.101562 266.65625 259.378906 263.566406 C 257.953125 261.023438 258.761719 257.792969 261.214844 256.214844 L 261.816406 255.824219 C 264.507812 254.089844 268.046875 254.667969 270.042969 257.167969 L 276.648438 265.421875 L 279.355469 251.667969 C 279.933594 248.734375 282.699219 246.804688 285.652344 247.273438 L 286.542969 247.414062 C 289.488281 247.878906 291.558594 250.664062 291.160156 253.621094 L 290.148438 261.082031 L 292.289062 258.839844 C 294.085938 256.949219 296.933594 256.675781 299.058594 258.195312 L 299.40625 258.445312 C 301.675781 260.0625 302.253906 263.261719 300.691406 265.574219 C 299.554688 267.253906 298.453125 268.785156 297.480469 270.132812 C 296.640625 271.296875 295.875 272.363281 295.183594 273.378906 C 297.261719 274.488281 299.632812 275.085938 302.070312 275.085938 C 307.6875 275.085938 312.816406 271.820312 314.832031 266.960938 C 315.253906 265.945312 316.238281 265.273438 317.339844 265.246094 C 321.917969 265.144531 326.1875 263.15625 329.3125 259.734375 C 329.296875 259.695312 329.273438 259.652344 329.253906 259.617188 C 322.867188 259.046875 316.953125 256.164062 312.429688 251.382812 C 307.515625 246.183594 304.8125 239.320312 304.8125 232.050781 C 304.8125 222.074219 310.015625 212.996094 318.152344 208.109375 C 315.296875 205.394531 311.488281 203.832031 307.476562 203.832031 C 304.863281 203.832031 302.28125 204.496094 300.011719 205.75 C 299.253906 206.167969 298.339844 206.207031 297.546875 205.855469 C 296.753906 205.503906 296.167969 204.804688 295.964844 203.957031 C 294.285156 196.976562 288.089844 192.101562 280.898438 192.101562 C 273.707031 192.101562 267.507812 196.980469 265.832031 203.957031 C 265.628906 204.804688 265.042969 205.503906 264.25 205.855469 C 263.457031 206.203125 262.546875 206.167969 261.785156 205.742188 C 259.511719 204.492188 256.929688 203.828125 254.320312 203.828125 C 245.773438 203.828125 238.824219 210.78125 238.824219 219.324219 C 238.824219 221.910156 239.472656 224.46875 240.695312 226.722656 C 241.082031 227.429688 241.140625 228.28125 240.851562 229.035156 C 240.566406 229.792969 239.964844 230.390625 239.203125 230.664062 C 232.359375 233.164062 227.761719 239.910156 227.761719 247.46875 C 227.761719 257.066406 235.246094 265.042969 244.441406 265.246094 C 245.546875 265.269531 246.527344 265.941406 246.949219 266.960938 C 248.96875 271.820312 254.097656 275.085938 259.710938 275.085938 C 261.902344 275.085938 264.0625 274.585938 265.996094 273.671875 Z M 275.988281 287.265625 C 275.800781 290.859375 274.972656 295.214844 273.644531 299.601562 C 273.660156 299.671875 273.679688 299.738281 273.691406 299.804688 C 274.148438 299.773438 274.605469 299.753906 275.0625 299.753906 C 282.75 299.753906 289.496094 304.699219 291.921875 311.800781 C 292.523438 311.8125 293.117188 311.851562 293.703125 311.917969 C 292.246094 309.890625 290.960938 307.753906 290.109375 305.578125 C 287.628906 299.269531 286.464844 292.625 285.929688 288.164062 C 284.746094 278.300781 288.191406 273.507812 292.96875 266.878906 C 293.609375 265.988281 294.261719 265.085938 294.933594 264.121094 L 288.25 271.140625 C 287.417969 272.011719 286.117188 272.25 285.03125 271.730469 C 283.945312 271.203125 283.316406 270.042969 283.476562 268.84375 L 285.648438 252.871094 L 284.78125 252.761719 L 280.949219 272.375 C 280.742188 273.433594 279.933594 274.277344 278.882812 274.539062 C 277.828125 274.792969 276.726562 274.417969 276.046875 273.574219 L 265.699219 260.640625 C 265.484375 260.371094 265.117188 260.3125 264.832031 260.5 L 264.230469 260.886719 C 265.828125 263.6875 267.46875 266.039062 269.058594 268.3125 C 273.011719 273.972656 276.417969 278.851562 275.988281 287.265625 Z M 227.761719 300.636719 L 227.761719 339.605469 L 298.726562 339.605469 C 301.972656 337.304688 303.890625 333.625 303.890625 329.613281 C 303.890625 322.855469 298.394531 317.363281 291.636719 317.363281 C 291.140625 317.363281 290.640625 317.390625 290.148438 317.449219 C 288.699219 317.621094 287.363281 316.648438 287.085938 315.21875 C 285.972656 309.484375 280.914062 305.316406 275.054688 305.316406 C 274.003906 305.316406 272.960938 305.449219 271.953125 305.710938 C 271.128906 305.921875 270.253906 305.75 269.570312 305.234375 C 268.890625 304.722656 268.484375 303.921875 268.472656 303.070312 C 268.351562 296.445312 262.855469 291.050781 256.21875 291.050781 C 252.90625 291.050781 249.796875 292.355469 247.476562 294.722656 C 246.9375 295.269531 246.1875 295.566406 245.429688 295.558594 C 244.660156 295.539062 243.9375 295.210938 243.421875 294.636719 C 241.71875 292.742188 239.285156 291.652344 236.742188 291.652344 C 231.792969 291.652344 227.761719 295.683594 227.761719 300.636719 Z M 440.136719 345.171875 L 227.761719 345.171875 L 227.761719 354.628906 L 440.136719 354.628906 Z M 423.941406 311.296875 C 425.480469 311.296875 426.722656 310.050781 426.722656 308.515625 C 426.722656 306.980469 425.476562 305.730469 423.941406 305.730469 C 422.40625 305.730469 421.160156 306.980469 421.160156 308.515625 C 421.160156 310.050781 422.402344 311.296875 423.941406 311.296875 Z M 424.019531 324.5 C 422.484375 324.5 421.238281 325.746094 421.238281 327.28125 C 421.238281 328.816406 422.484375 330.0625 424.019531 330.0625 C 425.554688 330.0625 426.800781 328.816406 426.800781 327.28125 C 426.800781 325.746094 425.554688 324.5 424.019531 324.5 Z M 403.59375 317.871094 C 405.132812 317.871094 406.375 316.625 406.375 315.089844 C 406.375 313.554688 405.128906 312.308594 403.59375 312.308594 C 402.058594 312.308594 400.8125 313.554688 400.8125 315.089844 C 400.8125 316.625 402.054688 317.871094 403.59375 317.871094 Z M 389.667969 332.136719 C 391.207031 332.136719 392.453125 330.886719 392.453125 329.351562 C 392.453125 327.816406 391.203125 326.570312 389.667969 326.570312 C 388.132812 326.570312 386.886719 327.816406 386.886719 329.351562 C 386.886719 330.886719 388.132812 332.136719 389.667969 332.136719 Z M 389.667969 332.136719 " fill-opacity="1" fill-rule="nonzero"/></g></svg>