<svg xmlns="http://www.w3.org/2000/svg" xmlns:xlink="http://www.w3.org/1999/xlink" width="600" zoomAndPan="magnify" viewBox="0 0 450 449.999984" height="600" preserveAspectRatio="xMidYMid meet" version="1.0"><defs><clipPath id="94665db762"><path d="M 277.394531 184 L 439 184 L 439 369 L 277.394531 369 Z M 277.394531 184 " clip-rule="nonzero"/></clipPath><clipPath id="a78dea89dd"><path d="M 292 359 L 334 359 L 334 414.742188 L 292 414.742188 Z M 292 359 " clip-rule="nonzero"/></clipPath><clipPath id="6ebf4924a3"><path d="M 382 359 L 424 359 L 424 414.742188 L 382 414.742188 Z M 382 359 " clip-rule="nonzero"/></clipPath><clipPath id="5476a0be82"><path d="M 9.191406 28.25 L 275.441406 28.25 L 275.441406 422 L 9.191406 422 Z M 9.191406 28.25 " clip-rule="nonzero"/></clipPath></defs><g clip-path="url(#94665db762)"><path fill="#ffffff" d="M 421.652344 368.832031 L 294.429688 368.832031 C 285.097656 368.832031 277.5 361.238281 277.5 351.902344 L 277.5 232.519531 C 277.5 205.820312 299.222656 184.101562 325.921875 184.101562 L 390.160156 184.101562 C 416.859375 184.101562 438.582031 205.820312 438.582031 232.519531 L 438.582031 351.902344 C 438.582031 361.238281 430.988281 368.832031 421.652344 368.832031 Z M 325.921875 193.148438 C 304.210938 193.148438 286.546875 210.808594 286.546875 232.519531 L 286.546875 351.902344 C 286.546875 356.25 290.082031 359.785156 294.429688 359.785156 L 421.652344 359.785156 C 426 359.785156 429.535156 356.25 429.535156 351.902344 L 429.535156 232.519531 C 429.535156 210.808594 411.871094 193.148438 390.160156 193.148438 Z M 325.921875 193.148438 " fill-opacity="1" fill-rule="nonzero"/></g><path fill="#ffffff" d="M 412.660156 285.496094 L 303.421875 285.496094 C 300.925781 285.496094 298.898438 283.46875 298.898438 280.972656 L 298.898438 231.417969 C 298.898438 228.921875 300.925781 226.894531 303.421875 226.894531 L 412.660156 226.894531 C 415.160156 226.894531 417.183594 228.921875 417.183594 231.417969 L 417.183594 280.972656 C 417.183594 283.46875 415.160156 285.496094 412.660156 285.496094 Z M 307.945312 276.449219 L 408.136719 276.449219 L 408.136719 235.941406 L 307.945312 235.941406 Z M 307.945312 276.449219 " fill-opacity="1" fill-rule="nonzero"/><path fill="#ffffff" d="M 358.042969 285.496094 C 355.542969 285.496094 353.519531 283.46875 353.519531 280.972656 L 353.519531 231.417969 C 353.519531 228.921875 355.542969 226.894531 358.042969 226.894531 C 360.539062 226.894531 362.566406 228.921875 362.566406 231.417969 L 362.566406 280.972656 C 362.566406 283.46875 360.539062 285.496094 358.042969 285.496094 Z M 358.042969 285.496094 " fill-opacity="1" fill-rule="nonzero"/><g clip-path="url(#a78dea89dd)"><path fill="#ffffff" d="M 296.851562 415.003906 C 295.957031 415.003906 295.050781 414.738281 294.261719 414.1875 C 292.214844 412.757812 291.714844 409.9375 293.148438 407.890625 L 325.425781 361.71875 C 326.859375 359.671875 329.679688 359.171875 331.726562 360.601562 C 333.773438 362.03125 334.273438 364.851562 332.839844 366.898438 L 300.5625 413.074219 C 299.683594 414.332031 298.277344 415.003906 296.851562 415.003906 Z M 296.851562 415.003906 " fill-opacity="1" fill-rule="nonzero"/></g><g clip-path="url(#6ebf4924a3)"><path fill="#ffffff" d="M 419.234375 415.003906 C 417.804688 415.003906 416.402344 414.332031 415.519531 413.074219 L 383.242188 366.898438 C 381.8125 364.851562 382.308594 362.03125 384.355469 360.601562 C 386.402344 359.171875 389.222656 359.667969 390.65625 361.71875 L 422.933594 407.890625 C 424.367188 409.9375 423.867188 412.757812 421.820312 414.1875 C 421.03125 414.742188 420.128906 415.003906 419.234375 415.003906 Z M 419.234375 415.003906 " fill-opacity="1" fill-rule="nonzero"/></g><path fill="#ffffff" d="M 403.089844 391.917969 L 312.996094 391.917969 C 310.496094 391.917969 308.472656 389.894531 308.472656 387.394531 C 308.472656 384.898438 310.496094 382.871094 312.996094 382.871094 L 403.089844 382.871094 C 405.585938 382.871094 407.613281 384.898438 407.613281 387.394531 C 407.613281 389.894531 405.585938 391.917969 403.089844 391.917969 Z M 403.089844 391.917969 " fill-opacity="1" fill-rule="nonzero"/><path fill="#ffffff" d="M 313.558594 349.6875 C 305.476562 349.6875 298.898438 343.109375 298.898438 335.027344 C 298.898438 326.945312 305.476562 320.371094 313.558594 320.371094 C 321.640625 320.371094 328.214844 326.945312 328.214844 335.027344 C 328.214844 343.109375 321.640625 349.6875 313.558594 349.6875 Z M 313.558594 329.414062 C 310.464844 329.414062 307.945312 331.933594 307.945312 335.027344 C 307.945312 338.121094 310.464844 340.640625 313.558594 340.640625 C 316.652344 340.640625 319.171875 338.121094 319.171875 335.027344 C 319.167969 331.933594 316.652344 329.414062 313.558594 329.414062 Z M 313.558594 329.414062 " fill-opacity="1" fill-rule="nonzero"/><path fill="#ffffff" d="M 402.527344 349.6875 C 394.441406 349.6875 387.867188 343.109375 387.867188 335.027344 C 387.867188 326.945312 394.441406 320.371094 402.527344 320.371094 C 410.609375 320.371094 417.183594 326.945312 417.183594 335.027344 C 417.183594 343.109375 410.609375 349.6875 402.527344 349.6875 Z M 402.527344 329.414062 C 399.429688 329.414062 396.914062 331.933594 396.914062 335.027344 C 396.914062 338.121094 399.429688 340.640625 402.527344 340.640625 C 405.621094 340.640625 408.136719 338.121094 408.136719 335.027344 C 408.136719 331.933594 405.621094 329.414062 402.527344 329.414062 Z M 402.527344 329.414062 " fill-opacity="1" fill-rule="nonzero"/><g clip-path="url(#5476a0be82)"><path fill="#ffffff" d="M -117.792969 421.699219 L -117.792969 126.578125 L 5.175781 126.578125 L 5.175781 421.699219 Z M -93.199219 151.171875 L -93.199219 175.765625 L -68.605469 175.765625 L -68.605469 151.171875 Z M -44.011719 151.171875 L -44.011719 175.765625 L -19.417969 175.765625 L -19.417969 151.171875 Z M -44.011719 200.359375 L -44.011719 224.953125 L -19.417969 224.953125 L -19.417969 200.359375 Z M -93.199219 200.359375 L -93.199219 224.953125 L -68.605469 224.953125 L -68.605469 200.359375 Z M -44.011719 274.140625 L -19.417969 274.140625 L -19.417969 249.546875 L -44.011719 249.546875 Z M -93.199219 249.546875 L -93.199219 274.140625 L -68.605469 274.140625 L -68.605469 249.546875 Z M -93.199219 298.730469 L -93.199219 323.324219 L -68.605469 323.324219 L -68.605469 298.730469 Z M -44.011719 323.324219 L -19.417969 323.324219 L -19.417969 298.730469 L -44.011719 298.730469 Z M -44.011719 347.917969 L -44.011719 372.511719 L -19.417969 372.511719 L -19.417969 347.917969 Z M -93.199219 347.917969 L -93.199219 372.511719 L -68.605469 372.511719 L -68.605469 347.917969 Z M 211.757812 28.207031 L 216.675781 28.207031 L 216.675781 62.636719 L 221.59375 67.554688 L 251.105469 87.230469 L 275.699219 121.660156 L 275.699219 421.699219 L 152.734375 421.699219 L 152.734375 121.660156 L 177.328125 87.230469 L 206.839844 67.554688 L 211.757812 62.636719 Z M 177.328125 126.578125 L 201.921875 126.578125 L 201.921875 101.988281 Z M 226.515625 101.988281 L 226.515625 126.578125 L 251.105469 126.578125 Z M 177.328125 151.171875 L 177.328125 175.765625 L 201.921875 175.765625 L 201.921875 151.171875 Z M 226.515625 151.171875 L 226.515625 175.765625 L 251.105469 175.765625 L 251.105469 151.171875 Z M 226.515625 200.359375 L 226.515625 224.953125 L 251.105469 224.953125 L 251.105469 200.359375 Z M 177.328125 200.359375 L 177.328125 224.953125 L 201.921875 224.953125 L 201.921875 200.359375 Z M 226.515625 274.140625 L 251.105469 274.140625 L 251.105469 249.546875 L 226.515625 249.546875 Z M 176.667969 249.546875 L 176.667969 274.140625 L 201.261719 274.140625 L 201.261719 249.546875 Z M 177.328125 298.730469 L 177.328125 323.324219 L 201.921875 323.324219 L 201.921875 298.730469 Z M 226.515625 323.324219 L 251.105469 323.324219 L 251.105469 298.730469 L 226.515625 298.730469 Z M 226.515625 347.917969 L 226.515625 372.511719 L 251.105469 372.511719 L 251.105469 347.917969 Z M 177.328125 347.917969 L 177.328125 372.511719 L 201.921875 372.511719 L 201.921875 347.917969 Z M 15.011719 421.699219 L 15.011719 28.207031 L 142.898438 77.394531 L 142.898438 421.699219 Z M 29.769531 101.988281 L 29.769531 126.578125 L 54.359375 126.578125 L 54.359375 101.988281 Z M 103.546875 101.988281 L 103.546875 126.578125 L 128.140625 126.578125 L 128.140625 101.988281 Z M 29.769531 151.171875 L 29.769531 175.765625 L 54.359375 175.765625 L 54.359375 151.171875 Z M 103.546875 151.171875 L 103.546875 175.765625 L 128.140625 175.765625 L 128.140625 151.171875 Z M 103.546875 200.359375 L 103.546875 224.953125 L 128.140625 224.953125 L 128.140625 200.359375 Z M 29.769531 200.359375 L 29.769531 224.953125 L 54.359375 224.953125 L 54.359375 200.359375 Z M 103.546875 274.140625 L 128.140625 274.140625 L 128.140625 249.546875 L 103.546875 249.546875 Z M 29.769531 249.546875 L 29.769531 274.140625 L 54.359375 274.140625 L 54.359375 249.546875 Z M 29.769531 298.730469 L 29.769531 323.324219 L 54.359375 323.324219 L 54.359375 298.730469 Z M 103.546875 323.324219 L 128.140625 323.324219 L 128.140625 298.730469 L 103.546875 298.730469 Z M 103.546875 347.917969 L 103.546875 372.511719 L 128.140625 372.511719 L 128.140625 347.917969 Z M 29.769531 347.917969 L 29.769531 372.511719 L 54.359375 372.511719 L 54.359375 347.917969 Z M 88.792969 101.988281 L 69.117188 101.988281 L 69.117188 126.578125 L 88.792969 126.578125 Z M 69.117188 151.171875 L 69.117188 175.765625 L 88.792969 175.765625 L 88.792969 151.171875 Z M 69.117188 200.359375 L 69.117188 224.953125 L 88.792969 224.953125 L 88.792969 200.359375 Z M 69.117188 249.546875 L 69.117188 274.140625 L 88.792969 274.140625 L 88.792969 249.546875 Z M 69.117188 323.324219 L 88.792969 323.324219 L 88.792969 298.730469 L 69.117188 298.730469 Z M 69.117188 372.511719 L 88.792969 372.511719 L 88.792969 347.917969 L 69.117188 347.917969 Z M 69.117188 372.511719 " fill-opacity="1" fill-rule="nonzero"/></g></svg>