<svg xmlns="http://www.w3.org/2000/svg" xmlns:xlink="http://www.w3.org/1999/xlink" width="600" zoomAndPan="magnify" viewBox="0 0 450 449.999984" height="600" preserveAspectRatio="xMidYMid meet" version="1.0"><defs><clipPath id="1a2529c07c"><path d="M 4.210938 54.75 L 229.960938 54.75 L 229.960938 388.5 L 4.210938 388.5 Z M 4.210938 54.75 " clip-rule="nonzero"/></clipPath><clipPath id="8c09da1582"><path d="M 222.117188 187.0625 L 445.617188 187.0625 L 445.617188 388.0625 L 222.117188 388.0625 Z M 222.117188 187.0625 " clip-rule="nonzero"/></clipPath></defs><g clip-path="url(#1a2529c07c)"><path fill="#ffffff" d="M -103.449219 388.320312 L -103.449219 138.113281 L 0.804688 138.113281 L 0.804688 388.320312 Z M -82.597656 158.964844 L -82.597656 179.816406 L -61.746094 179.816406 L -61.746094 158.964844 Z M -40.894531 158.964844 L -40.894531 179.816406 L -20.046875 179.816406 L -20.046875 158.964844 Z M -40.894531 200.667969 L -40.894531 221.515625 L -20.046875 221.515625 L -20.046875 200.667969 Z M -82.597656 200.667969 L -82.597656 221.515625 L -61.746094 221.515625 L -61.746094 200.667969 Z M -40.894531 263.21875 L -20.046875 263.21875 L -20.046875 242.367188 L -40.894531 242.367188 Z M -82.597656 242.367188 L -82.597656 263.21875 L -61.746094 263.21875 L -61.746094 242.367188 Z M -82.597656 284.070312 L -82.597656 304.917969 L -61.746094 304.917969 L -61.746094 284.070312 Z M -40.894531 304.917969 L -20.046875 304.917969 L -20.046875 284.070312 L -40.894531 284.070312 Z M -40.894531 325.769531 L -40.894531 346.621094 L -20.046875 346.621094 L -20.046875 325.769531 Z M -82.597656 325.769531 L -82.597656 346.621094 L -61.746094 346.621094 L -61.746094 325.769531 Z M 175.949219 54.710938 L 180.121094 54.710938 L 180.121094 83.902344 L 184.289062 88.074219 L 209.3125 104.753906 L 230.160156 133.945312 L 230.160156 388.320312 L 125.910156 388.320312 L 125.910156 133.945312 L 146.757812 104.753906 L 171.78125 88.074219 L 175.949219 83.902344 Z M 146.757812 138.113281 L 167.609375 138.113281 L 167.609375 117.265625 Z M 188.460938 117.265625 L 188.460938 138.113281 L 209.3125 138.113281 Z M 146.757812 158.964844 L 146.757812 179.816406 L 167.609375 179.816406 L 167.609375 158.964844 Z M 188.460938 158.964844 L 188.460938 179.816406 L 209.3125 179.816406 L 209.3125 158.964844 Z M 188.460938 200.667969 L 188.460938 221.515625 L 209.3125 221.515625 L 209.3125 200.667969 Z M 146.757812 200.667969 L 146.757812 221.515625 L 167.609375 221.515625 L 167.609375 200.667969 Z M 188.460938 263.21875 L 209.3125 263.21875 L 209.3125 242.367188 L 188.460938 242.367188 Z M 146.199219 242.367188 L 146.199219 263.21875 L 167.050781 263.21875 L 167.050781 242.367188 Z M 146.757812 284.070312 L 146.757812 304.917969 L 167.609375 304.917969 L 167.609375 284.070312 Z M 188.460938 304.917969 L 209.3125 304.917969 L 209.3125 284.070312 L 188.460938 284.070312 Z M 188.460938 325.769531 L 188.460938 346.621094 L 209.3125 346.621094 L 209.3125 325.769531 Z M 146.757812 325.769531 L 146.757812 346.621094 L 167.609375 346.621094 L 167.609375 325.769531 Z M 9.144531 388.320312 L 9.144531 54.714844 L 117.570312 96.414062 L 117.570312 388.320312 Z M 21.65625 117.265625 L 21.65625 138.113281 L 42.507812 138.113281 L 42.507812 117.265625 Z M 84.207031 117.265625 L 84.207031 138.113281 L 105.058594 138.113281 L 105.058594 117.265625 Z M 21.65625 158.964844 L 21.65625 179.816406 L 42.507812 179.816406 L 42.507812 158.964844 Z M 84.207031 158.964844 L 84.207031 179.816406 L 105.058594 179.816406 L 105.058594 158.964844 Z M 84.207031 200.667969 L 84.207031 221.515625 L 105.058594 221.515625 L 105.058594 200.667969 Z M 21.65625 200.667969 L 21.65625 221.515625 L 42.507812 221.515625 L 42.507812 200.667969 Z M 84.207031 263.21875 L 105.058594 263.21875 L 105.058594 242.367188 L 84.207031 242.367188 Z M 21.65625 242.367188 L 21.65625 263.21875 L 42.507812 263.21875 L 42.507812 242.367188 Z M 21.65625 284.070312 L 21.65625 304.917969 L 42.507812 304.917969 L 42.507812 284.070312 Z M 84.207031 304.917969 L 105.058594 304.917969 L 105.058594 284.070312 L 84.207031 284.070312 Z M 84.207031 325.769531 L 84.207031 346.621094 L 105.058594 346.621094 L 105.058594 325.769531 Z M 21.65625 325.769531 L 21.65625 346.621094 L 42.507812 346.621094 L 42.507812 325.769531 Z M 71.695312 117.265625 L 55.015625 117.265625 L 55.015625 138.113281 L 71.695312 138.113281 Z M 55.015625 158.964844 L 55.015625 179.816406 L 71.695312 179.816406 L 71.695312 158.964844 Z M 55.015625 200.667969 L 55.015625 221.515625 L 71.695312 221.515625 L 71.695312 200.667969 Z M 55.015625 242.367188 L 55.015625 263.21875 L 71.695312 263.21875 L 71.695312 242.367188 Z M 55.015625 304.917969 L 71.695312 304.917969 L 71.695312 284.070312 L 55.015625 284.070312 Z M 55.015625 346.621094 L 71.695312 346.621094 L 71.695312 325.769531 L 55.015625 325.769531 Z M 55.015625 346.621094 " fill-opacity="1" fill-rule="nonzero"/></g><g clip-path="url(#8c09da1582)"><path fill="#ffffff" d="M 241.179688 336.652344 C 241.179688 335.117188 242.421875 333.871094 243.960938 333.871094 C 245.496094 333.871094 246.742188 335.117188 246.742188 336.652344 C 246.742188 338.1875 245.496094 339.433594 243.960938 339.433594 C 242.425781 339.433594 241.179688 338.191406 241.179688 336.652344 Z M 243.882812 358.203125 C 245.417969 358.203125 246.664062 356.953125 246.664062 355.417969 C 246.664062 353.882812 245.417969 352.636719 243.882812 352.636719 C 242.347656 352.636719 241.097656 353.882812 241.097656 355.417969 C 241.097656 356.953125 242.347656 358.203125 243.882812 358.203125 Z M 264.308594 346.011719 C 265.84375 346.011719 267.089844 344.761719 267.089844 343.230469 C 267.089844 341.695312 265.84375 340.445312 264.308594 340.445312 L 264.304688 340.445312 C 262.769531 340.445312 261.519531 341.695312 261.519531 343.230469 C 261.519531 344.761719 262.773438 346.011719 264.308594 346.011719 Z M 278.234375 360.273438 C 279.765625 360.273438 281.015625 359.027344 281.015625 357.492188 C 281.015625 355.957031 279.765625 354.710938 278.234375 354.710938 C 276.699219 354.710938 275.449219 355.957031 275.449219 357.492188 C 275.449219 359.027344 276.691406 360.273438 278.234375 360.273438 Z M 445.703125 328.773438 L 445.703125 385.550781 C 445.703125 387.085938 444.457031 388.332031 442.921875 388.332031 L 224.980469 388.332031 C 223.445312 388.332031 222.199219 387.085938 222.199219 385.550781 L 222.199219 328.773438 C 222.199219 320.757812 228.722656 314.234375 236.742188 314.234375 C 239.929688 314.234375 243.019531 315.289062 245.527344 317.191406 C 248.59375 314.878906 252.308594 313.628906 256.21875 313.628906 C 261.636719 313.628906 266.535156 316.105469 269.816406 319.988281 C 270.136719 318.238281 270.355469 316.585938 270.429688 315.128906 C 270.601562 311.753906 269.972656 309.117188 268.824219 306.636719 C 266.03125 308.042969 262.886719 308.796875 259.707031 308.796875 C 252.371094 308.796875 245.828125 304.949219 242.570312 298.851562 C 237.277344 298.3125 232.378906 295.894531 228.621094 291.917969 C 224.480469 287.523438 222.199219 281.738281 222.199219 275.605469 C 222.199219 266.753906 227.058594 258.734375 234.554688 254.792969 C 233.695312 252.457031 233.25 249.972656 233.25 247.472656 C 233.25 235.863281 242.699219 226.414062 254.308594 226.414062 C 256.746094 226.414062 259.160156 226.835938 261.4375 227.652344 C 264.652344 219.875 272.242188 214.679688 280.894531 214.679688 C 289.546875 214.679688 297.136719 219.875 300.351562 227.652344 C 302.628906 226.835938 305.042969 226.414062 307.476562 226.414062 C 311.390625 226.414062 315.160156 227.496094 318.414062 229.472656 C 318.265625 228.371094 318.183594 227.257812 318.183594 226.144531 C 318.183594 212.414062 329.355469 201.238281 343.089844 201.238281 C 346.160156 201.238281 349.203125 201.808594 352.050781 202.902344 C 355.71875 193.421875 364.839844 187.042969 375.261719 187.042969 C 385.6875 187.042969 394.808594 193.421875 398.476562 202.902344 C 401.316406 201.808594 404.363281 201.238281 407.433594 201.238281 C 421.164062 201.238281 432.339844 212.410156 432.339844 226.144531 C 432.339844 229.277344 431.746094 232.386719 430.605469 235.285156 C 439.75 239.859375 445.710938 249.519531 445.710938 260.195312 C 445.710938 267.460938 443.007812 274.328125 438.09375 279.523438 C 433.574219 284.304688 427.65625 287.195312 421.269531 287.761719 C 417.476562 295.109375 409.667969 299.765625 400.898438 299.765625 C 396.667969 299.765625 392.535156 298.648438 388.972656 296.589844 C 387.445312 299.996094 386.855469 303.585938 387.472656 308.714844 C 388.066406 313.671875 389.339844 320.992188 392.011719 327.921875 C 392.289062 327.90625 392.570312 327.898438 392.851562 327.898438 C 393.308594 327.898438 393.765625 327.917969 394.21875 327.949219 C 395.859375 319.816406 403.121094 313.628906 411.6875 313.628906 C 415.597656 313.628906 419.3125 314.882812 422.378906 317.191406 C 424.886719 315.289062 427.976562 314.234375 431.164062 314.234375 C 439.179688 314.230469 445.703125 320.753906 445.703125 328.773438 Z M 392.839844 333.457031 C 386.984375 333.457031 381.925781 337.621094 380.8125 343.363281 C 380.535156 344.796875 379.199219 345.769531 377.746094 345.59375 C 377.257812 345.53125 376.753906 345.503906 376.257812 345.503906 C 369.503906 345.503906 364.007812 351 364.007812 357.757812 C 364.007812 361.765625 365.921875 365.449219 369.167969 367.75 L 440.136719 367.75 L 440.136719 328.78125 C 440.136719 323.828125 436.109375 319.800781 431.160156 319.800781 C 428.617188 319.800781 426.179688 320.886719 424.480469 322.785156 C 423.964844 323.355469 423.238281 323.6875 422.472656 323.707031 C 421.695312 323.730469 420.964844 323.421875 420.421875 322.871094 C 418.097656 320.503906 414.992188 319.199219 411.675781 319.199219 C 405.046875 319.199219 399.550781 324.59375 399.425781 331.21875 C 399.410156 332.070312 399.003906 332.871094 398.328125 333.382812 C 397.648438 333.898438 396.769531 334.074219 395.941406 333.855469 C 394.9375 333.589844 393.894531 333.457031 392.839844 333.457031 Z M 291.457031 315.644531 C 291.953125 319.777344 293.019531 325.921875 295.289062 331.683594 C 296.804688 335.539062 300.269531 339.605469 303.300781 342.917969 C 306.03125 338.734375 310.75 336.046875 316.011719 336.046875 C 317.378906 336.046875 318.738281 336.230469 320.050781 336.59375 C 322.421875 331.175781 327.839844 327.503906 333.949219 327.503906 C 340.0625 327.503906 345.476562 331.175781 347.851562 336.59375 C 349.164062 336.230469 350.523438 336.046875 351.890625 336.046875 C 352.671875 336.046875 353.4375 336.105469 354.183594 336.222656 C 355.773438 333.640625 357.234375 330.703125 358.53125 327.453125 C 361.113281 320.984375 362.894531 313.546875 363.179688 308.042969 C 363.410156 303.578125 362.519531 300.167969 360.929688 296.933594 C 357.503906 298.773438 353.589844 299.765625 349.625 299.765625 C 342.933594 299.765625 336.808594 297.054688 332.59375 292.503906 C 328.953125 296.101562 324.269531 298.332031 319.21875 298.847656 C 315.953125 304.945312 309.417969 308.792969 302.082031 308.792969 C 298.6875 308.792969 295.371094 307.949219 292.464844 306.375 C 291.382812 308.980469 290.992188 311.769531 291.457031 315.644531 Z M 309.457031 357.75 C 309.457031 361.394531 308.363281 364.847656 306.398438 367.746094 L 361.507812 367.746094 C 359.542969 364.847656 358.449219 361.394531 358.449219 357.75 C 358.449219 354.339844 359.417969 351.148438 361.085938 348.4375 C 359.886719 344.421875 356.175781 341.605469 351.890625 341.605469 C 350.304688 341.605469 348.792969 341.976562 347.40625 342.714844 C 346.628906 343.125 345.699219 343.144531 344.90625 342.765625 C 344.113281 342.382812 343.542969 341.65625 343.375 340.789062 C 342.488281 336.308594 338.527344 333.054688 333.949219 333.054688 C 329.375 333.054688 325.410156 336.304688 324.527344 340.789062 C 324.355469 341.652344 323.792969 342.382812 322.992188 342.765625 C 322.199219 343.144531 321.273438 343.121094 320.496094 342.714844 C 319.101562 341.976562 317.597656 341.605469 316.011719 341.605469 C 311.730469 341.605469 308.019531 344.425781 306.816406 348.4375 C 308.488281 351.148438 309.457031 354.339844 309.457031 357.75 Z M 386.488281 329.066406 C 383.828125 321.867188 382.546875 314.445312 381.933594 309.367188 C 380.53125 297.660156 384.648438 291.941406 390.347656 284.023438 C 391.550781 282.34375 392.804688 280.609375 394.125 278.652344 C 394.164062 278.597656 394.148438 278.515625 394.09375 278.472656 L 393.671875 278.171875 C 393.605469 278.125 393.550781 278.132812 393.5 278.183594 L 383.738281 288.433594 C 382.910156 289.304688 381.605469 289.546875 380.519531 289.023438 C 379.433594 288.496094 378.804688 287.332031 378.96875 286.136719 L 381.589844 266.804688 C 381.632812 266.515625 381.425781 266.234375 381.132812 266.1875 L 380.058594 266.015625 C 379.769531 265.972656 379.492188 266.160156 379.433594 266.453125 L 374.757812 290.21875 C 374.546875 291.28125 373.742188 292.125 372.6875 292.382812 C 371.636719 292.636719 370.53125 292.261719 369.855469 291.417969 L 357.332031 275.765625 C 356.882812 275.199219 356.109375 275.074219 355.503906 275.46875 L 354.777344 275.9375 C 354.53125 276.09375 354.449219 276.410156 354.59375 276.664062 C 356.53125 280.132812 358.527344 282.988281 360.460938 285.746094 C 365.179688 292.5 369.253906 298.328125 368.742188 308.3125 C 368.425781 314.480469 366.539062 322.398438 363.703125 329.5 C 362.453125 332.625 361.058594 335.5 359.542969 338.089844 C 361.878906 339.453125 363.828125 341.429688 365.15625 343.820312 C 368.140625 341.4375 371.894531 339.988281 375.980469 339.921875 C 377.707031 334.890625 381.609375 330.9375 386.488281 329.066406 Z M 323.746094 226.144531 C 323.746094 229.367188 324.550781 232.558594 326.082031 235.371094 C 326.464844 236.082031 326.527344 236.929688 326.238281 237.683594 C 325.953125 238.441406 325.347656 239.039062 324.589844 239.3125 C 316.085938 242.410156 310.371094 250.800781 310.371094 260.1875 C 310.371094 272.121094 319.683594 282.035156 331.125 282.289062 C 332.230469 282.3125 333.214844 282.984375 333.636719 284.003906 C 336.167969 290.101562 342.589844 294.195312 349.621094 294.195312 C 352.589844 294.195312 355.519531 293.472656 358.085938 292.136719 C 357.398438 291.109375 356.667969 290.054688 355.894531 288.953125 C 353.976562 286.210938 351.804688 283.105469 349.730469 279.390625 C 348.160156 276.582031 349.050781 273.015625 351.757812 271.269531 L 352.484375 270.804688 C 355.488281 268.871094 359.4375 269.515625 361.667969 272.304688 L 370.445312 283.277344 L 373.964844 265.390625 C 374.605469 262.148438 377.660156 260.015625 380.917969 260.535156 L 381.996094 260.707031 C 385.25 261.222656 387.535156 264.300781 387.097656 267.566406 L 385.625 278.382812 L 389.460938 274.359375 C 391.4375 272.285156 394.5625 271.984375 396.894531 273.648438 L 397.316406 273.953125 C 399.808594 275.726562 400.445312 279.242188 398.730469 281.777344 C 397.363281 283.804688 396.03125 285.65625 394.859375 287.28125 C 393.695312 288.902344 392.640625 290.363281 391.714844 291.757812 C 394.441406 293.34375 397.617188 294.203125 400.886719 294.203125 C 407.914062 294.203125 414.339844 290.105469 416.871094 284.007812 C 417.292969 282.992188 418.273438 282.320312 419.378906 282.292969 C 430.824219 282.039062 440.132812 272.125 440.132812 260.195312 C 440.132812 250.804688 434.421875 242.414062 425.917969 239.316406 C 425.15625 239.039062 424.554688 238.445312 424.265625 237.691406 C 423.980469 236.933594 424.039062 236.085938 424.421875 235.375 C 425.953125 232.5625 426.761719 229.371094 426.761719 226.148438 C 426.761719 215.484375 418.085938 206.808594 407.417969 206.808594 C 404.160156 206.808594 400.9375 207.632812 398.097656 209.195312 C 397.339844 209.613281 396.425781 209.65625 395.632812 209.300781 C 394.839844 208.949219 394.253906 208.25 394.050781 207.40625 C 391.957031 198.691406 384.226562 192.605469 375.25 192.605469 C 366.269531 192.605469 358.539062 198.6875 356.445312 207.40625 C 356.242188 208.25 355.65625 208.949219 354.863281 209.300781 C 354.070312 209.648438 353.15625 209.613281 352.398438 209.195312 C 349.558594 207.632812 346.335938 206.808594 343.078125 206.808594 C 332.421875 206.804688 323.746094 215.480469 323.746094 226.144531 Z M 265.996094 301.8125 C 265.523438 301.109375 265.023438 300.394531 264.496094 299.644531 C 262.90625 297.367188 261.101562 294.792969 259.378906 291.707031 C 257.953125 289.160156 258.761719 285.933594 261.214844 284.351562 L 261.816406 283.960938 C 264.507812 282.230469 268.046875 282.808594 270.042969 285.308594 L 276.648438 293.5625 L 279.355469 279.808594 C 279.933594 276.871094 282.699219 274.945312 285.652344 275.414062 L 286.542969 275.550781 C 289.488281 276.019531 291.558594 278.800781 291.160156 281.761719 L 290.148438 289.222656 L 292.289062 286.976562 C 294.085938 285.089844 296.933594 284.816406 299.058594 286.332031 L 299.40625 286.582031 C 301.675781 288.199219 302.253906 291.402344 300.691406 293.714844 C 299.554688 295.394531 298.453125 296.921875 297.480469 298.273438 C 296.640625 299.4375 295.875 300.503906 295.183594 301.519531 C 297.261719 302.625 299.632812 303.226562 302.070312 303.226562 C 307.6875 303.226562 312.816406 299.960938 314.832031 295.101562 C 315.253906 294.085938 316.238281 293.414062 317.339844 293.386719 C 321.917969 293.28125 326.1875 291.292969 329.3125 287.871094 C 329.296875 287.835938 329.273438 287.792969 329.253906 287.753906 C 322.867188 287.183594 316.953125 284.300781 312.429688 279.519531 C 307.515625 274.324219 304.8125 267.460938 304.8125 260.1875 C 304.8125 250.214844 310.015625 241.136719 318.152344 236.246094 C 315.296875 233.535156 311.488281 231.972656 307.476562 231.972656 C 304.863281 231.972656 302.28125 232.636719 300.011719 233.886719 C 299.253906 234.304688 298.339844 234.347656 297.546875 233.996094 C 296.753906 233.640625 296.167969 232.941406 295.964844 232.097656 C 294.285156 225.113281 288.089844 220.242188 280.898438 220.242188 C 273.707031 220.242188 267.507812 225.117188 265.832031 232.097656 C 265.628906 232.941406 265.042969 233.640625 264.25 233.996094 C 263.457031 234.34375 262.546875 234.304688 261.785156 233.882812 C 259.511719 232.632812 256.929688 231.96875 254.320312 231.96875 C 245.773438 231.96875 238.824219 238.917969 238.824219 247.464844 C 238.824219 250.046875 239.472656 252.605469 240.695312 254.859375 C 241.082031 255.570312 241.140625 256.417969 240.851562 257.175781 C 240.566406 257.929688 239.964844 258.527344 239.203125 258.800781 C 232.359375 261.300781 227.761719 268.046875 227.761719 275.605469 C 227.761719 285.207031 235.246094 293.179688 244.441406 293.386719 C 245.546875 293.410156 246.527344 294.082031 246.949219 295.101562 C 248.96875 299.960938 254.097656 303.226562 259.710938 303.226562 C 261.902344 303.226562 264.0625 302.722656 265.996094 301.8125 Z M 275.988281 315.40625 C 275.800781 319 274.972656 323.355469 273.644531 327.742188 C 273.660156 327.808594 273.679688 327.875 273.691406 327.945312 C 274.148438 327.914062 274.605469 327.894531 275.0625 327.894531 C 282.75 327.894531 289.496094 332.835938 291.921875 339.941406 C 292.523438 339.949219 293.117188 339.992188 293.703125 340.058594 C 292.246094 338.03125 290.960938 335.894531 290.109375 333.71875 C 287.628906 327.40625 286.464844 320.761719 285.929688 316.300781 C 284.746094 306.4375 288.191406 301.648438 292.96875 295.015625 C 293.609375 294.128906 294.261719 293.222656 294.933594 292.257812 L 288.25 299.277344 C 287.417969 300.152344 286.117188 300.386719 285.03125 299.867188 C 283.945312 299.34375 283.316406 298.179688 283.476562 296.984375 L 285.648438 281.007812 L 284.78125 280.902344 L 280.949219 300.511719 C 280.742188 301.574219 279.933594 302.417969 278.882812 302.679688 C 277.828125 302.933594 276.726562 302.558594 276.046875 301.714844 L 265.699219 288.78125 C 265.484375 288.511719 265.117188 288.453125 264.832031 288.636719 L 264.230469 289.027344 C 265.828125 291.828125 267.46875 294.179688 269.058594 296.449219 C 273.011719 302.113281 276.417969 306.988281 275.988281 315.40625 Z M 227.761719 328.773438 L 227.761719 367.746094 L 298.726562 367.746094 C 301.972656 365.445312 303.890625 361.761719 303.890625 357.75 C 303.890625 350.996094 298.394531 345.5 291.636719 345.5 C 291.140625 345.5 290.640625 345.527344 290.148438 345.589844 C 288.699219 345.761719 287.363281 344.785156 287.085938 343.359375 C 285.972656 337.621094 280.914062 333.453125 275.054688 333.453125 C 274.003906 333.453125 272.960938 333.589844 271.953125 333.847656 C 271.128906 334.0625 270.253906 333.890625 269.570312 333.375 C 268.890625 332.859375 268.484375 332.0625 268.472656 331.210938 C 268.351562 324.582031 262.855469 319.191406 256.21875 319.191406 C 252.90625 319.191406 249.796875 320.492188 247.476562 322.863281 C 246.9375 323.410156 246.1875 323.707031 245.429688 323.699219 C 244.660156 323.679688 243.9375 323.351562 243.421875 322.773438 C 241.71875 320.882812 239.285156 319.792969 236.742188 319.792969 C 231.792969 319.792969 227.761719 323.824219 227.761719 328.773438 Z M 440.136719 373.308594 L 227.761719 373.308594 L 227.761719 382.769531 L 440.136719 382.769531 Z M 423.941406 339.433594 C 425.480469 339.433594 426.722656 338.1875 426.722656 336.652344 C 426.722656 335.117188 425.476562 333.871094 423.941406 333.871094 C 422.40625 333.871094 421.160156 335.117188 421.160156 336.652344 C 421.160156 338.1875 422.402344 339.433594 423.941406 339.433594 Z M 424.019531 352.636719 C 422.484375 352.636719 421.238281 353.882812 421.238281 355.417969 C 421.238281 356.953125 422.484375 358.203125 424.019531 358.203125 C 425.554688 358.203125 426.800781 356.953125 426.800781 355.417969 C 426.800781 353.882812 425.554688 352.636719 424.019531 352.636719 Z M 403.59375 346.011719 C 405.132812 346.011719 406.375 344.761719 406.375 343.230469 C 406.375 341.695312 405.128906 340.445312 403.59375 340.445312 C 402.058594 340.445312 400.8125 341.695312 400.8125 343.230469 C 400.8125 344.761719 402.054688 346.011719 403.59375 346.011719 Z M 389.667969 360.273438 C 391.207031 360.273438 392.453125 359.027344 392.453125 357.492188 C 392.453125 355.957031 391.203125 354.710938 389.667969 354.710938 C 388.132812 354.710938 386.886719 355.957031 386.886719 357.492188 C 386.886719 359.027344 388.132812 360.273438 389.667969 360.273438 Z M 389.667969 360.273438 " fill-opacity="1" fill-rule="nonzero"/></g></svg>