<svg xmlns="http://www.w3.org/2000/svg" xmlns:xlink="http://www.w3.org/1999/xlink" width="600" zoomAndPan="magnify" viewBox="0 0 450 449.999984" height="600" preserveAspectRatio="xMidYMid meet" version="1.0"><defs><clipPath id="c90464d069"><path d="M 16.097656 16.097656 L 433.847656 16.097656 L 433.847656 433.847656 L 16.097656 433.847656 Z M 16.097656 16.097656 " clip-rule="nonzero"/></clipPath></defs><g clip-path="url(#c90464d069)"><path fill="#ffffff" d="M 16.050781 433.847656 L 16.050781 120.5 L 146.613281 120.5 L 146.613281 433.847656 Z M 42.164062 146.613281 L 42.164062 172.722656 L 68.273438 172.722656 L 68.273438 146.613281 Z M 94.386719 146.613281 L 94.386719 172.722656 L 120.5 172.722656 L 120.5 146.613281 Z M 94.386719 198.835938 L 94.386719 224.949219 L 120.5 224.949219 L 120.5 198.835938 Z M 42.164062 198.835938 L 42.164062 224.949219 L 68.273438 224.949219 L 68.273438 198.835938 Z M 94.386719 277.171875 L 120.5 277.171875 L 120.5 251.0625 L 94.386719 251.0625 Z M 42.164062 251.0625 L 42.164062 277.171875 L 68.273438 277.171875 L 68.273438 251.0625 Z M 42.164062 303.285156 L 42.164062 329.398438 L 68.273438 329.398438 L 68.273438 303.285156 Z M 94.386719 329.398438 L 120.5 329.398438 L 120.5 303.285156 L 94.386719 303.285156 Z M 94.386719 355.507812 L 94.386719 381.621094 L 120.5 381.621094 L 120.5 355.507812 Z M 42.164062 355.507812 L 42.164062 381.621094 L 68.273438 381.621094 L 68.273438 355.507812 Z M 365.953125 16.050781 L 371.175781 16.050781 L 371.175781 52.609375 L 376.398438 57.828125 L 407.734375 78.71875 L 433.847656 115.277344 L 433.847656 433.847656 L 303.285156 433.847656 L 303.285156 115.277344 L 329.398438 78.71875 L 360.730469 57.828125 L 365.953125 52.609375 Z M 329.398438 120.5 L 355.507812 120.5 L 355.507812 94.386719 Z M 381.621094 94.386719 L 381.621094 120.5 L 407.734375 120.5 Z M 329.398438 146.613281 L 329.398438 172.722656 L 355.507812 172.722656 L 355.507812 146.613281 Z M 381.621094 146.613281 L 381.621094 172.722656 L 407.734375 172.722656 L 407.734375 146.613281 Z M 381.621094 198.835938 L 381.621094 224.949219 L 407.734375 224.949219 L 407.734375 198.835938 Z M 329.398438 198.835938 L 329.398438 224.949219 L 355.507812 224.949219 L 355.507812 198.835938 Z M 381.621094 277.171875 L 407.734375 277.171875 L 407.734375 251.0625 L 381.621094 251.0625 Z M 328.699219 251.0625 L 328.699219 277.171875 L 354.808594 277.171875 L 354.808594 251.0625 Z M 329.398438 303.285156 L 329.398438 329.398438 L 355.507812 329.398438 L 355.507812 303.285156 Z M 381.621094 329.398438 L 407.734375 329.398438 L 407.734375 303.285156 L 381.621094 303.285156 Z M 381.621094 355.507812 L 381.621094 381.621094 L 407.734375 381.621094 L 407.734375 355.507812 Z M 329.398438 355.507812 L 329.398438 381.621094 L 355.507812 381.621094 L 355.507812 355.507812 Z M 157.054688 433.847656 L 157.054688 16.050781 L 292.839844 68.273438 L 292.839844 433.847656 Z M 172.722656 94.386719 L 172.722656 120.5 L 198.835938 120.5 L 198.835938 94.386719 Z M 251.0625 94.386719 L 251.0625 120.5 L 277.171875 120.5 L 277.171875 94.386719 Z M 172.722656 146.613281 L 172.722656 172.722656 L 198.835938 172.722656 L 198.835938 146.613281 Z M 251.0625 146.613281 L 251.0625 172.722656 L 277.171875 172.722656 L 277.171875 146.613281 Z M 251.0625 198.835938 L 251.0625 224.949219 L 277.171875 224.949219 L 277.171875 198.835938 Z M 172.722656 198.835938 L 172.722656 224.949219 L 198.835938 224.949219 L 198.835938 198.835938 Z M 251.0625 277.171875 L 277.171875 277.171875 L 277.171875 251.0625 L 251.0625 251.0625 Z M 172.722656 251.0625 L 172.722656 277.171875 L 198.835938 277.171875 L 198.835938 251.0625 Z M 172.722656 303.285156 L 172.722656 329.398438 L 198.835938 329.398438 L 198.835938 303.285156 Z M 251.0625 329.398438 L 277.171875 329.398438 L 277.171875 303.285156 L 251.0625 303.285156 Z M 251.0625 355.507812 L 251.0625 381.621094 L 277.171875 381.621094 L 277.171875 355.507812 Z M 172.722656 355.507812 L 172.722656 381.621094 L 198.835938 381.621094 L 198.835938 355.507812 Z M 235.394531 94.386719 L 214.503906 94.386719 L 214.503906 120.5 L 235.394531 120.5 Z M 214.503906 146.613281 L 214.503906 172.722656 L 235.394531 172.722656 L 235.394531 146.613281 Z M 214.503906 198.835938 L 214.503906 224.949219 L 235.394531 224.949219 L 235.394531 198.835938 Z M 214.503906 251.0625 L 214.503906 277.171875 L 235.394531 277.171875 L 235.394531 251.0625 Z M 214.503906 329.398438 L 235.394531 329.398438 L 235.394531 303.285156 L 214.503906 303.285156 Z M 214.503906 381.621094 L 235.394531 381.621094 L 235.394531 355.507812 L 214.503906 355.507812 Z M 214.503906 381.621094 " fill-opacity="1" fill-rule="nonzero"/></g></svg>