<svg xmlns="http://www.w3.org/2000/svg" xmlns:xlink="http://www.w3.org/1999/xlink" width="600" zoomAndPan="magnify" viewBox="0 0 450 449.999984" height="600" preserveAspectRatio="xMidYMid meet" version="1.0"><defs><clipPath id="4758662da2"><path d="M 28 46.96875 L 218 46.96875 L 218 259 L 28 259 Z M 28 46.96875 " clip-rule="nonzero"/></clipPath></defs><g clip-path="url(#4758662da2)"><path fill="#ffffff" d="M 115.105469 258.378906 C 92.4375 258.378906 73.992188 239.9375 73.992188 217.265625 C 73.992188 216.269531 74.027344 215.277344 74.097656 214.289062 C 72.742188 214.421875 71.375 214.492188 70 214.492188 C 47.328125 214.492188 28.886719 196.046875 28.886719 173.378906 C 28.886719 155.433594 40.527344 139.738281 57.207031 134.304688 C 57.019531 132.71875 56.925781 131.109375 56.925781 129.488281 C 56.925781 108.351562 72.960938 90.890625 93.503906 88.625 C 93.5 88.429688 93.496094 88.234375 93.496094 88.039062 C 93.496094 65.371094 111.941406 46.925781 134.609375 46.925781 C 157.28125 46.925781 175.722656 65.371094 175.722656 88.039062 C 175.722656 89.15625 175.679688 90.265625 175.589844 91.363281 C 190.945312 97.546875 201.324219 112.632812 201.324219 129.492188 C 201.324219 130.4375 201.292969 131.390625 201.226562 132.34375 C 211.265625 140.109375 217.171875 152.035156 217.171875 164.84375 C 217.171875 177.722656 211.234375 189.671875 201.132812 197.425781 C 201.261719 198.75 201.324219 200.082031 201.324219 201.417969 C 201.324219 224.089844 182.882812 242.53125 160.210938 242.53125 C 156.285156 242.53125 152.441406 241.984375 148.742188 240.90625 C 141.09375 251.78125 128.570312 258.378906 115.105469 258.378906 Z M 80.410156 202.644531 C 81.730469 202.644531 83.019531 203.152344 83.996094 204.097656 C 85.34375 205.40625 85.871094 207.347656 85.375 209.160156 C 84.65625 211.769531 84.289062 214.5 84.289062 217.265625 C 84.289062 234.257812 98.113281 248.082031 115.105469 248.082031 C 126.300781 248.082031 136.632812 241.992188 142.066406 232.1875 C 143.335938 229.898438 146.125 228.929688 148.542969 229.929688 C 152.226562 231.457031 156.15625 232.230469 160.210938 232.230469 C 177.203125 232.230469 191.027344 218.410156 191.027344 201.417969 C 191.027344 199.570312 190.863281 197.734375 190.539062 195.953125 C 190.164062 193.90625 191.058594 191.835938 192.808594 190.707031 C 201.617188 185.003906 206.878906 175.335938 206.878906 164.84375 C 206.878906 154.441406 201.675781 144.808594 192.960938 139.082031 C 191.285156 137.980469 190.402344 136.007812 190.695312 134.027344 C 190.917969 132.523438 191.027344 131 191.027344 129.488281 C 191.027344 115.710938 181.78125 103.511719 168.539062 99.828125 C 165.941406 99.105469 164.34375 96.503906 164.867188 93.863281 C 165.238281 91.996094 165.425781 90.035156 165.425781 88.039062 C 165.425781 71.046875 151.601562 57.226562 134.613281 57.226562 C 117.621094 57.226562 103.796875 71.046875 103.796875 88.039062 C 103.796875 89.621094 103.917969 91.207031 104.160156 92.753906 C 104.40625 94.304688 103.925781 95.878906 102.867188 97.035156 C 101.804688 98.191406 100.269531 98.796875 98.710938 98.6875 C 98.488281 98.671875 98.261719 98.675781 98.039062 98.675781 C 81.046875 98.675781 67.222656 112.5 67.222656 129.492188 C 67.222656 132.011719 67.523438 134.476562 68.117188 136.824219 C 68.460938 138.199219 68.226562 139.652344 67.46875 140.847656 C 66.707031 142.042969 65.488281 142.871094 64.097656 143.140625 C 49.660156 145.921875 39.183594 158.636719 39.183594 173.378906 C 39.183594 190.367188 53.007812 204.191406 70 204.191406 C 73.050781 204.191406 76.046875 203.746094 78.898438 202.871094 C 79.394531 202.71875 79.902344 202.644531 80.410156 202.644531 Z M 80.410156 202.644531 " fill-opacity="1" fill-rule="nonzero"/></g><path fill="#ffffff" d="M 123.03125 320.394531 C 120.1875 320.394531 117.882812 318.085938 117.882812 315.246094 L 117.882812 139.210938 C 117.882812 136.367188 120.1875 134.0625 123.03125 134.0625 C 125.875 134.0625 128.179688 136.367188 128.179688 139.210938 L 128.179688 315.246094 C 128.179688 318.089844 125.875 320.394531 123.03125 320.394531 Z M 123.03125 320.394531 " fill-opacity="1" fill-rule="nonzero"/><path fill="#ffffff" d="M 123.234375 184.015625 C 121.914062 184.015625 120.597656 183.515625 119.59375 182.507812 C 117.582031 180.5 117.582031 177.238281 119.59375 175.226562 L 146.269531 148.550781 C 148.28125 146.539062 151.542969 146.539062 153.550781 148.550781 C 155.5625 150.558594 155.5625 153.820312 153.550781 155.832031 L 126.875 182.507812 C 125.867188 183.515625 124.550781 184.015625 123.234375 184.015625 Z M 123.234375 184.015625 " fill-opacity="1" fill-rule="nonzero"/><path fill="#ffffff" d="M 122.488281 212.414062 C 121.167969 212.414062 119.851562 211.910156 118.84375 210.90625 L 86.015625 178.078125 C 84.007812 176.066406 84.007812 172.808594 86.015625 170.796875 C 88.027344 168.785156 91.289062 168.785156 93.300781 170.796875 L 126.128906 203.625 C 128.136719 205.636719 128.136719 208.894531 126.128906 210.90625 C 125.121094 211.910156 123.804688 212.414062 122.488281 212.414062 Z M 122.488281 212.414062 " fill-opacity="1" fill-rule="nonzero"/><path fill="#ffffff" d="M 347.777344 277.84375 C 325.105469 277.84375 306.664062 259.402344 306.664062 236.734375 C 306.664062 235.738281 306.699219 234.742188 306.769531 233.753906 C 305.414062 233.890625 304.046875 233.957031 302.667969 233.957031 C 280 233.957031 261.554688 215.511719 261.554688 192.84375 C 261.554688 174.902344 273.199219 159.207031 289.875 153.769531 C 289.691406 152.183594 289.597656 150.574219 289.597656 148.957031 C 289.597656 127.816406 305.628906 110.355469 326.175781 108.089844 C 326.171875 107.894531 326.171875 107.699219 326.171875 107.507812 C 326.171875 84.835938 344.613281 66.394531 367.28125 66.394531 C 389.953125 66.394531 408.394531 84.835938 408.394531 107.507812 C 408.394531 108.621094 408.351562 109.730469 408.261719 110.828125 C 423.617188 117.015625 433.996094 132.097656 433.996094 148.957031 C 433.996094 149.902344 433.960938 150.855469 433.898438 151.808594 C 443.9375 159.574219 449.84375 171.5 449.84375 184.3125 C 449.84375 197.1875 443.90625 209.136719 433.804688 216.890625 C 433.933594 218.214844 433.996094 219.546875 433.996094 220.882812 C 433.996094 243.554688 415.554688 261.996094 392.886719 261.996094 C 388.957031 261.996094 385.113281 261.449219 381.414062 260.371094 C 373.765625 271.246094 361.238281 277.84375 347.777344 277.84375 Z M 313.082031 222.109375 C 314.402344 222.109375 315.691406 222.621094 316.667969 223.566406 C 318.015625 224.875 318.546875 226.816406 318.046875 228.625 C 317.328125 231.238281 316.960938 233.964844 316.960938 236.730469 C 316.960938 253.722656 330.785156 267.546875 347.777344 267.546875 C 358.972656 267.546875 369.300781 261.457031 374.738281 251.65625 C 376.007812 249.367188 378.796875 248.394531 381.210938 249.394531 C 384.898438 250.921875 388.824219 251.699219 392.882812 251.699219 C 409.875 251.699219 423.699219 237.875 423.699219 220.882812 C 423.699219 219.035156 423.535156 217.199219 423.210938 215.417969 C 422.835938 213.375 423.730469 211.304688 425.476562 210.171875 C 434.289062 204.46875 439.546875 194.800781 439.546875 184.3125 C 439.546875 173.90625 434.34375 164.277344 425.628906 158.550781 C 423.957031 157.449219 423.070312 155.476562 423.363281 153.496094 C 423.585938 151.992188 423.699219 150.464844 423.699219 148.957031 C 423.699219 135.175781 414.449219 122.980469 401.207031 119.292969 C 398.613281 118.570312 397.011719 115.96875 397.539062 113.328125 C 397.910156 111.460938 398.097656 109.503906 398.097656 107.507812 C 398.097656 90.515625 384.273438 76.691406 367.28125 76.691406 C 350.292969 76.691406 336.46875 90.515625 336.46875 107.507812 C 336.46875 109.089844 336.589844 110.675781 336.832031 112.21875 C 337.074219 113.769531 336.601562 115.347656 335.539062 116.5 C 334.476562 117.65625 332.945312 118.261719 331.378906 118.152344 C 331.160156 118.136719 330.929688 118.140625 330.710938 118.140625 C 313.71875 118.140625 299.894531 131.964844 299.894531 148.957031 C 299.894531 151.476562 300.195312 153.945312 300.789062 156.292969 C 301.132812 157.664062 300.898438 159.121094 300.136719 160.316406 C 299.378906 161.511719 298.160156 162.339844 296.769531 162.605469 C 282.332031 165.386719 271.855469 178.105469 271.855469 192.84375 C 271.855469 209.835938 285.679688 223.660156 302.667969 223.660156 C 305.722656 223.660156 308.714844 223.214844 311.566406 222.335938 C 312.066406 222.183594 312.574219 222.109375 313.082031 222.109375 Z M 313.082031 222.109375 " fill-opacity="1" fill-rule="nonzero"/><path fill="#ffffff" d="M 355.703125 402.988281 C 352.859375 402.988281 350.550781 400.679688 350.550781 397.839844 L 350.550781 158.679688 C 350.550781 155.835938 352.859375 153.527344 355.703125 153.527344 C 358.542969 153.527344 360.851562 155.835938 360.851562 158.679688 L 360.851562 397.839844 C 360.851562 400.683594 358.542969 402.988281 355.703125 402.988281 Z M 355.703125 402.988281 " fill-opacity="1" fill-rule="nonzero"/><path fill="#ffffff" d="M 355.90625 203.484375 C 354.585938 203.484375 353.269531 202.980469 352.265625 201.976562 C 350.253906 199.964844 350.253906 196.703125 352.265625 194.695312 L 378.941406 168.015625 C 380.953125 166.003906 384.214844 166.003906 386.222656 168.015625 C 388.234375 170.027344 388.234375 173.285156 386.222656 175.296875 L 359.546875 201.976562 C 358.539062 202.980469 357.222656 203.484375 355.90625 203.484375 Z M 355.90625 203.484375 " fill-opacity="1" fill-rule="nonzero"/><path fill="#ffffff" d="M 355.15625 231.878906 C 353.839844 231.878906 352.523438 231.378906 351.515625 230.371094 L 318.6875 197.542969 C 316.675781 195.53125 316.675781 192.273438 318.6875 190.261719 C 320.699219 188.25 323.960938 188.25 325.96875 190.261719 L 358.796875 223.089844 C 360.808594 225.101562 360.808594 228.359375 358.796875 230.371094 C 357.792969 231.378906 356.476562 231.878906 355.15625 231.878906 Z M 355.15625 231.878906 " fill-opacity="1" fill-rule="nonzero"/><path fill="#ffffff" d="M 170.195312 402.988281 L 49.910156 402.988281 C 36.304688 402.988281 25.234375 391.917969 25.234375 378.3125 C 25.234375 369.546875 29.765625 361.613281 37.183594 357.171875 C 40.808594 349.851562 47.738281 344.871094 55.753906 343.730469 C 58.792969 335.792969 65.785156 329.9375 74.109375 328.3125 C 76.308594 316.945312 86.335938 308.335938 98.335938 308.335938 C 104.488281 308.335938 110.28125 310.589844 114.738281 314.566406 C 119.195312 310.589844 124.988281 308.335938 131.140625 308.335938 C 143.140625 308.335938 153.167969 316.945312 155.367188 328.308594 C 166.734375 330.511719 175.34375 340.535156 175.34375 352.535156 C 175.34375 353.082031 175.324219 353.625 175.289062 354.164062 C 186.460938 356.519531 194.867188 366.449219 194.867188 378.308594 C 194.871094 391.917969 183.800781 402.988281 170.195312 402.988281 Z M 59.347656 353.777344 L 59.28125 353.78125 C 53.382812 353.78125 48.148438 357.3125 45.945312 362.78125 C 45.476562 363.945312 44.59375 364.898438 43.46875 365.460938 C 38.574219 367.90625 35.53125 372.828125 35.53125 378.3125 C 35.53125 386.238281 41.984375 392.6875 49.910156 392.6875 L 170.195312 392.6875 C 178.121094 392.6875 184.570312 386.238281 184.570312 378.3125 C 184.570312 370.382812 178.121094 363.933594 170.195312 363.933594 C 169.929688 363.933594 169.65625 363.941406 169.394531 363.953125 C 167.691406 364.046875 166.054688 363.257812 165.03125 361.894531 C 164.007812 360.527344 163.730469 358.742188 164.285156 357.128906 C 164.789062 355.671875 165.042969 354.128906 165.042969 352.535156 C 165.042969 344.609375 158.59375 338.160156 150.667969 338.160156 C 147.824219 338.160156 145.515625 335.851562 145.515625 333.011719 C 145.515625 325.082031 139.066406 318.632812 131.140625 318.632812 C 126.238281 318.632812 121.722656 321.09375 119.0625 325.210938 C 118.113281 326.679688 116.484375 327.566406 114.738281 327.566406 C 112.988281 327.566406 111.359375 326.679688 110.410156 325.210938 C 107.75 321.09375 103.238281 318.632812 98.335938 318.632812 C 90.40625 318.632812 83.957031 325.082031 83.957031 333.011719 C 83.957031 335.851562 81.652344 338.160156 78.808594 338.160156 C 71.992188 338.160156 66.066406 342.996094 64.71875 349.660156 C 64.210938 352.179688 61.921875 353.941406 59.347656 353.777344 Z M 59.347656 353.777344 " fill-opacity="1" fill-rule="nonzero"/><path fill="#ffffff" d="M 308.351562 402.988281 L 153.742188 402.988281 C 150.898438 402.988281 148.589844 400.679688 148.589844 397.839844 C 148.589844 394.996094 150.898438 392.6875 153.742188 392.6875 L 308.351562 392.6875 C 319.351562 392.6875 328.304688 383.738281 328.304688 372.734375 C 328.304688 361.738281 319.351562 352.792969 308.351562 352.792969 C 307.984375 352.792969 307.601562 352.800781 307.226562 352.816406 C 305.535156 352.875 303.898438 352.109375 302.882812 350.738281 C 301.863281 349.371094 301.59375 347.589844 302.152344 345.976562 C 302.847656 343.976562 303.203125 341.832031 303.203125 339.605469 C 303.203125 328.609375 294.253906 319.660156 283.257812 319.660156 C 280.414062 319.660156 278.109375 317.355469 278.109375 314.511719 C 278.109375 303.507812 269.15625 294.558594 258.15625 294.558594 C 251.359375 294.558594 245.09375 297.972656 241.402344 303.6875 C 240.453125 305.15625 238.824219 306.042969 237.078125 306.042969 C 235.328125 306.042969 233.699219 305.15625 232.75 303.6875 C 229.058594 297.972656 222.789062 294.558594 215.988281 294.558594 C 204.992188 294.558594 196.042969 303.507812 196.042969 314.511719 C 196.042969 317.355469 193.738281 319.660156 190.894531 319.660156 C 181.433594 319.660156 173.207031 326.371094 171.339844 335.621094 C 170.832031 338.128906 168.5625 339.886719 166.007812 339.742188 C 165.9375 339.738281 165.863281 339.738281 165.789062 339.738281 C 164.183594 339.738281 162.597656 339.925781 161.078125 340.296875 C 158.320312 340.96875 155.527344 339.277344 154.855469 336.515625 C 154.183594 333.753906 155.875 330.964844 158.640625 330.292969 C 159.847656 330 161.078125 329.777344 162.324219 329.636719 C 165.980469 319.171875 175.191406 311.496094 186.121094 309.742188 C 188.414062 295.316406 200.933594 284.261719 215.988281 284.261719 C 223.984375 284.261719 231.496094 287.371094 237.078125 292.8125 C 242.65625 287.371094 250.160156 284.261719 258.15625 284.261719 C 273.214844 284.261719 285.738281 295.316406 288.03125 309.738281 C 302.449219 312.03125 313.5 324.550781 313.5 339.605469 C 313.5 340.714844 313.441406 341.816406 313.324219 342.902344 C 327.648438 345.28125 338.605469 357.753906 338.605469 372.734375 C 338.601562 389.417969 325.03125 402.988281 308.351562 402.988281 Z M 308.351562 402.988281 " fill-opacity="1" fill-rule="nonzero"/><path fill="#ffffff" d="M 396.488281 402.988281 L 5.304688 402.988281 C 2.460938 402.988281 0.15625 400.679688 0.15625 397.839844 C 0.15625 394.996094 2.460938 392.6875 5.304688 392.6875 L 396.488281 392.6875 C 399.332031 392.6875 401.636719 394.996094 401.636719 397.839844 C 401.636719 400.679688 399.332031 402.988281 396.488281 402.988281 Z M 396.488281 402.988281 " fill-opacity="1" fill-rule="nonzero"/></svg>