<svg xmlns="http://www.w3.org/2000/svg" xmlns:xlink="http://www.w3.org/1999/xlink" width="600" zoomAndPan="magnify" viewBox="0 0 450 449.999984" height="600" preserveAspectRatio="xMidYMid meet" version="1.0"><defs><clipPath id="d2a6bcca23"><path d="M 150 197.78125 L 278 197.78125 L 278 342 L 150 342 Z M 150 197.78125 " clip-rule="nonzero"/></clipPath><clipPath id="f08b0d7178"><path d="M 130.789062 432 L 403 432 L 403 439 L 130.789062 439 Z M 130.789062 432 " clip-rule="nonzero"/></clipPath><clipPath id="e0afb0b6e1"><path d="M 56.710938 9.796875 L 136.960938 9.796875 L 136.960938 438.796875 L 56.710938 438.796875 Z M 56.710938 9.796875 " clip-rule="nonzero"/></clipPath></defs><g clip-path="url(#d2a6bcca23)"><path fill="#ffffff" d="M 208.78125 341.015625 C 193.421875 341.015625 180.925781 328.519531 180.925781 313.160156 C 180.925781 312.484375 180.949219 311.8125 181 311.144531 C 180.078125 311.234375 179.152344 311.28125 178.21875 311.28125 C 162.859375 311.28125 150.363281 298.785156 150.363281 283.425781 C 150.363281 271.269531 158.253906 260.632812 169.550781 256.953125 C 169.425781 255.878906 169.363281 254.789062 169.363281 253.691406 C 169.363281 239.371094 180.226562 227.539062 194.144531 226.003906 C 194.144531 225.871094 194.140625 225.738281 194.140625 225.605469 C 194.140625 210.246094 206.636719 197.75 221.996094 197.75 C 237.355469 197.75 249.851562 210.246094 249.851562 225.605469 C 249.851562 226.363281 249.824219 227.113281 249.761719 227.859375 C 260.164062 232.050781 267.199219 242.269531 267.199219 253.691406 C 267.199219 254.332031 267.175781 254.976562 267.128906 255.621094 C 273.933594 260.886719 277.933594 268.964844 277.933594 277.644531 C 277.933594 286.371094 273.910156 294.464844 267.066406 299.71875 C 267.152344 300.617188 267.199219 301.519531 267.199219 302.425781 C 267.199219 317.785156 254.703125 330.28125 239.34375 330.28125 C 236.679688 330.28125 234.078125 329.910156 231.570312 329.175781 C 226.390625 336.546875 217.902344 341.015625 208.78125 341.015625 Z M 185.273438 303.253906 C 186.167969 303.253906 187.042969 303.597656 187.703125 304.238281 C 188.617188 305.125 188.976562 306.441406 188.636719 307.667969 C 188.152344 309.4375 187.902344 311.285156 187.902344 313.160156 C 187.902344 324.671875 197.269531 334.039062 208.78125 334.039062 C 216.367188 334.039062 223.367188 329.914062 227.050781 323.273438 C 227.910156 321.722656 229.796875 321.0625 231.4375 321.742188 C 233.933594 322.777344 236.59375 323.300781 239.34375 323.300781 C 250.855469 323.300781 260.222656 313.933594 260.222656 302.421875 C 260.222656 301.171875 260.109375 299.925781 259.890625 298.722656 C 259.636719 297.335938 260.242188 295.933594 261.425781 295.167969 C 267.394531 291.300781 270.960938 284.75 270.960938 277.644531 C 270.960938 270.59375 267.433594 264.070312 261.53125 260.191406 C 260.394531 259.445312 259.796875 258.109375 259.996094 256.765625 C 260.144531 255.746094 260.222656 254.710938 260.222656 253.691406 C 260.222656 244.355469 253.957031 236.089844 244.984375 233.59375 C 243.226562 233.105469 242.140625 231.339844 242.496094 229.550781 C 242.75 228.285156 242.875 226.960938 242.875 225.605469 C 242.875 214.09375 233.511719 204.730469 221.996094 204.730469 C 210.484375 204.730469 201.121094 214.09375 201.121094 225.605469 C 201.121094 226.679688 201.203125 227.753906 201.367188 228.800781 C 201.53125 229.851562 201.207031 230.917969 200.488281 231.703125 C 199.769531 232.484375 198.730469 232.894531 197.671875 232.820312 C 197.523438 232.808594 197.367188 232.8125 197.21875 232.8125 C 185.707031 232.8125 176.339844 242.179688 176.339844 253.691406 C 176.339844 255.398438 176.542969 257.070312 176.945312 258.660156 C 177.179688 259.589844 177.019531 260.578125 176.503906 261.386719 C 175.992188 262.195312 175.164062 262.757812 174.222656 262.9375 C 164.441406 264.824219 157.34375 273.4375 157.34375 283.425781 C 157.34375 294.9375 166.707031 304.304688 178.222656 304.304688 C 180.289062 304.304688 182.316406 304.003906 184.25 303.410156 C 184.585938 303.304688 184.929688 303.253906 185.273438 303.253906 Z M 185.273438 303.253906 " fill-opacity="1" fill-rule="nonzero"/></g><path fill="#ffffff" d="M 214.152344 383.03125 C 212.222656 383.03125 210.660156 381.46875 210.660156 379.542969 L 210.660156 260.277344 C 210.660156 258.351562 212.222656 256.789062 214.152344 256.789062 C 216.078125 256.789062 217.640625 258.351562 217.640625 260.277344 L 217.640625 379.542969 C 217.640625 381.472656 216.078125 383.03125 214.152344 383.03125 Z M 214.152344 383.03125 " fill-opacity="1" fill-rule="nonzero"/><path fill="#ffffff" d="M 214.289062 290.632812 C 213.394531 290.632812 212.503906 290.292969 211.820312 289.613281 C 210.460938 288.25 210.460938 286.042969 211.820312 284.679688 L 229.898438 266.605469 C 231.257812 265.242188 233.46875 265.242188 234.832031 266.605469 C 236.191406 267.964844 236.191406 270.175781 234.832031 271.535156 L 216.753906 289.613281 C 216.074219 290.292969 215.179688 290.632812 214.289062 290.632812 Z M 214.289062 290.632812 " fill-opacity="1" fill-rule="nonzero"/><path fill="#ffffff" d="M 213.78125 309.875 C 212.890625 309.875 211.996094 309.53125 211.316406 308.851562 L 189.074219 286.609375 C 187.710938 285.246094 187.710938 283.039062 189.074219 281.675781 C 190.4375 280.3125 192.644531 280.3125 194.007812 281.675781 L 216.25 303.917969 C 217.613281 305.28125 217.613281 307.488281 216.25 308.851562 C 215.566406 309.53125 214.675781 309.875 213.78125 309.875 Z M 213.78125 309.875 " fill-opacity="1" fill-rule="nonzero"/><path fill="#ffffff" d="M 366.421875 354.207031 C 351.0625 354.207031 338.566406 341.710938 338.566406 326.351562 C 338.566406 325.675781 338.59375 325.003906 338.640625 324.332031 C 337.722656 324.421875 336.792969 324.46875 335.863281 324.46875 C 320.5 324.46875 308.007812 311.972656 308.007812 296.613281 C 308.007812 284.457031 315.894531 273.824219 327.195312 270.140625 C 327.066406 269.066406 327.003906 267.976562 327.003906 266.878906 C 327.003906 252.558594 337.867188 240.726562 351.785156 239.191406 C 351.785156 239.058594 351.785156 238.929688 351.785156 238.796875 C 351.785156 223.4375 364.277344 210.941406 379.636719 210.941406 C 394.996094 210.941406 407.492188 223.4375 407.492188 238.796875 C 407.492188 239.550781 407.464844 240.304688 407.402344 241.046875 C 417.804688 245.238281 424.839844 255.457031 424.839844 266.878906 C 424.839844 267.519531 424.816406 268.167969 424.773438 268.8125 C 431.574219 274.074219 435.578125 282.15625 435.578125 290.832031 C 435.578125 299.558594 431.554688 307.652344 424.707031 312.90625 C 424.796875 313.804688 424.839844 314.707031 424.839844 315.613281 C 424.839844 330.972656 412.34375 343.46875 396.984375 343.46875 C 394.324219 343.46875 391.71875 343.097656 389.214844 342.367188 C 384.03125 349.734375 375.542969 354.207031 366.421875 354.207031 Z M 342.914062 316.445312 C 343.808594 316.445312 344.683594 316.789062 345.347656 317.429688 C 346.257812 318.316406 346.617188 319.632812 346.277344 320.859375 C 345.792969 322.628906 345.542969 324.476562 345.542969 326.351562 C 345.542969 337.863281 354.910156 347.226562 366.421875 347.226562 C 374.007812 347.226562 381.007812 343.101562 384.691406 336.460938 C 385.550781 334.910156 387.441406 334.25 389.078125 334.929688 C 391.574219 335.964844 394.234375 336.488281 396.984375 336.488281 C 408.496094 336.488281 417.863281 327.125 417.863281 315.613281 C 417.863281 314.359375 417.75 313.113281 417.53125 311.910156 C 417.277344 310.523438 417.882812 309.121094 419.066406 308.355469 C 425.035156 304.492188 428.601562 297.941406 428.601562 290.832031 C 428.601562 283.785156 425.074219 277.257812 419.171875 273.378906 C 418.035156 272.632812 417.4375 271.296875 417.636719 269.953125 C 417.785156 268.9375 417.863281 267.902344 417.863281 266.878906 C 417.863281 257.542969 411.59375 249.28125 402.625 246.78125 C 400.867188 246.292969 399.78125 244.53125 400.136719 242.742188 C 400.390625 241.476562 400.515625 240.148438 400.515625 238.796875 C 400.515625 227.285156 391.152344 217.917969 379.636719 217.917969 C 368.125 217.917969 358.761719 227.285156 358.761719 238.796875 C 358.761719 239.867188 358.84375 240.941406 359.007812 241.988281 C 359.171875 243.039062 358.851562 244.105469 358.128906 244.890625 C 357.410156 245.671875 356.375 246.082031 355.3125 246.007812 C 355.164062 246 355.007812 246 354.859375 246 C 343.347656 246 333.980469 255.367188 333.980469 266.878906 C 333.980469 268.585938 334.183594 270.257812 334.585938 271.851562 C 334.820312 272.78125 334.660156 273.765625 334.144531 274.574219 C 333.632812 275.386719 332.804688 275.945312 331.863281 276.128906 C 322.082031 278.011719 314.984375 286.628906 314.984375 296.613281 C 314.984375 308.128906 324.347656 317.492188 335.863281 317.492188 C 337.929688 317.492188 339.957031 317.191406 341.890625 316.597656 C 342.226562 316.492188 342.574219 316.445312 342.914062 316.445312 Z M 342.914062 316.445312 " fill-opacity="1" fill-rule="nonzero"/><path fill="#ffffff" d="M 371.792969 438.992188 C 369.867188 438.992188 368.304688 437.429688 368.304688 435.503906 L 368.304688 273.464844 C 368.304688 271.539062 369.867188 269.976562 371.792969 269.976562 C 373.71875 269.976562 375.28125 271.539062 375.28125 273.464844 L 375.28125 435.503906 C 375.28125 437.429688 373.71875 438.992188 371.792969 438.992188 Z M 371.792969 438.992188 " fill-opacity="1" fill-rule="nonzero"/><path fill="#ffffff" d="M 371.929688 303.824219 C 371.039062 303.824219 370.144531 303.480469 369.464844 302.800781 C 368.101562 301.4375 368.101562 299.230469 369.464844 297.867188 L 387.539062 279.792969 C 388.898438 278.429688 391.109375 278.429688 392.472656 279.792969 C 393.835938 281.15625 393.835938 283.363281 392.472656 284.726562 L 374.394531 302.800781 C 373.714844 303.480469 372.820312 303.824219 371.929688 303.824219 Z M 371.929688 303.824219 " fill-opacity="1" fill-rule="nonzero"/><path fill="#ffffff" d="M 371.421875 323.0625 C 370.53125 323.0625 369.636719 322.722656 368.957031 322.039062 L 346.714844 299.800781 C 345.351562 298.4375 345.351562 296.226562 346.714844 294.867188 C 348.078125 293.503906 350.285156 293.503906 351.648438 294.867188 L 373.890625 317.105469 C 375.253906 318.46875 375.253906 320.679688 373.890625 322.039062 C 373.210938 322.722656 372.316406 323.0625 371.421875 323.0625 Z M 371.421875 323.0625 " fill-opacity="1" fill-rule="nonzero"/><path fill="#ffffff" d="M 246.105469 438.992188 L 164.609375 438.992188 C 155.390625 438.992188 147.890625 431.492188 147.890625 422.273438 C 147.890625 416.335938 150.960938 410.960938 155.984375 407.953125 C 158.441406 402.992188 163.140625 399.617188 168.570312 398.84375 C 170.628906 393.464844 175.367188 389.5 181.003906 388.398438 C 182.496094 380.699219 189.289062 374.863281 197.421875 374.863281 C 201.585938 374.863281 205.515625 376.390625 208.53125 379.085938 C 211.550781 376.390625 215.480469 374.863281 219.644531 374.863281 C 227.777344 374.863281 234.570312 380.695312 236.058594 388.394531 C 243.761719 389.886719 249.59375 396.679688 249.59375 404.808594 C 249.59375 405.179688 249.582031 405.546875 249.558594 405.914062 C 257.125 407.507812 262.824219 414.238281 262.824219 422.273438 C 262.824219 431.492188 255.324219 438.992188 246.105469 438.992188 Z M 171.003906 405.652344 L 170.960938 405.652344 C 166.964844 405.652344 163.417969 408.046875 161.925781 411.75 C 161.605469 412.539062 161.007812 413.1875 160.246094 413.566406 C 156.929688 415.222656 154.867188 418.558594 154.867188 422.273438 C 154.867188 427.644531 159.238281 432.015625 164.609375 432.015625 L 246.105469 432.015625 C 251.476562 432.015625 255.847656 427.644531 255.847656 422.273438 C 255.847656 416.902344 251.476562 412.53125 246.105469 412.53125 C 245.925781 412.53125 245.742188 412.535156 245.5625 412.542969 C 244.410156 412.609375 243.300781 412.074219 242.609375 411.152344 C 241.914062 410.226562 241.726562 409.015625 242.101562 407.921875 C 242.441406 406.9375 242.617188 405.890625 242.617188 404.808594 C 242.617188 399.441406 238.246094 395.070312 232.875 395.070312 C 230.949219 395.070312 229.386719 393.507812 229.386719 391.582031 C 229.386719 386.210938 225.015625 381.839844 219.644531 381.839844 C 216.324219 381.839844 213.265625 383.507812 211.460938 386.296875 C 210.820312 387.292969 209.714844 387.894531 208.53125 387.894531 C 207.347656 387.894531 206.242188 387.292969 205.601562 386.296875 C 203.796875 383.507812 200.738281 381.839844 197.417969 381.839844 C 192.046875 381.839844 187.679688 386.210938 187.679688 391.582031 C 187.679688 393.507812 186.117188 395.070312 184.191406 395.070312 C 179.570312 395.070312 175.558594 398.347656 174.644531 402.863281 C 174.300781 404.570312 172.75 405.761719 171.003906 405.652344 Z M 171.003906 405.652344 " fill-opacity="1" fill-rule="nonzero"/><path fill="#ffffff" d="M 339.710938 438.992188 L 234.957031 438.992188 C 233.03125 438.992188 231.46875 437.429688 231.46875 435.503906 C 231.46875 433.578125 233.03125 432.015625 234.957031 432.015625 L 339.710938 432.015625 C 347.164062 432.015625 353.230469 425.949219 353.230469 418.496094 C 353.230469 411.046875 347.164062 404.984375 339.710938 404.984375 C 339.460938 404.984375 339.203125 404.988281 338.949219 405 C 337.800781 405.042969 336.695312 404.519531 336.003906 403.59375 C 335.316406 402.664062 335.132812 401.457031 335.511719 400.367188 C 335.984375 399.011719 336.222656 397.558594 336.222656 396.050781 C 336.222656 388.597656 330.160156 382.535156 322.710938 382.535156 C 320.785156 382.535156 319.222656 380.972656 319.222656 379.046875 C 319.222656 371.59375 313.15625 365.527344 305.703125 365.527344 C 301.097656 365.527344 296.851562 367.84375 294.351562 371.714844 C 293.707031 372.710938 292.605469 373.3125 291.421875 373.3125 C 290.234375 373.3125 289.132812 372.710938 288.488281 371.714844 C 285.988281 367.84375 281.742188 365.527344 277.132812 365.527344 C 269.679688 365.527344 263.617188 371.59375 263.617188 379.046875 C 263.617188 380.972656 262.054688 382.535156 260.128906 382.535156 C 253.71875 382.535156 248.148438 387.082031 246.878906 393.347656 C 246.539062 395.046875 245 396.238281 243.269531 396.140625 C 243.222656 396.140625 243.171875 396.140625 243.121094 396.140625 C 242.03125 396.140625 240.957031 396.269531 239.929688 396.519531 C 238.058594 396.972656 236.167969 395.828125 235.714844 393.957031 C 235.257812 392.082031 236.402344 390.195312 238.277344 389.738281 C 239.09375 389.539062 239.929688 389.390625 240.773438 389.296875 C 243.25 382.207031 249.492188 377.003906 256.894531 375.816406 C 258.449219 366.042969 266.933594 358.550781 277.132812 358.550781 C 282.550781 358.550781 287.640625 360.660156 291.421875 364.34375 C 295.199219 360.660156 300.285156 358.550781 305.703125 358.550781 C 315.902344 358.550781 324.390625 366.042969 325.945312 375.8125 C 335.710938 377.367188 343.199219 385.851562 343.199219 396.050781 C 343.199219 396.800781 343.160156 397.546875 343.082031 398.28125 C 352.785156 399.894531 360.207031 408.34375 360.207031 418.496094 C 360.207031 429.796875 351.011719 438.992188 339.710938 438.992188 Z M 339.710938 438.992188 " fill-opacity="1" fill-rule="nonzero"/><g clip-path="url(#f08b0d7178)"><path fill="#ffffff" d="M 399.425781 438.992188 L 134.386719 438.992188 C 132.460938 438.992188 130.898438 437.429688 130.898438 435.503906 C 130.898438 433.578125 132.460938 432.015625 134.386719 432.015625 L 399.425781 432.015625 C 401.351562 432.015625 402.914062 433.578125 402.914062 435.503906 C 402.914062 437.429688 401.351562 438.992188 399.425781 438.992188 Z M 399.425781 438.992188 " fill-opacity="1" fill-rule="nonzero"/></g><g clip-path="url(#e0afb0b6e1)"><path fill="#ffffff" d="M 127.304688 352.171875 L 124.460938 352.171875 L 124.460938 349.132812 L 122.738281 349.132812 L 126.792969 318.742188 L 123.214844 318.742188 L 126.792969 288.859375 L 122.695312 288.859375 L 126.792969 257.96875 L 122.695312 257.96875 L 126.28125 228.089844 L 122.351562 228.089844 L 126.792969 199.71875 L 121.726562 198.707031 L 126.28125 169.339844 L 122.351562 169.339844 L 126.28125 140.96875 L 122.238281 139.449219 L 126.792969 111.089844 L 119.195312 109.570312 L 119.195312 107.546875 L 113.628906 105.523438 L 113.628906 100.457031 L 105.519531 96.40625 L 109.574219 62.972656 L 102.988281 60.449219 L 102.988281 53.351562 L 101.46875 52.339844 L 101.46875 50.316406 L 102.988281 48.796875 L 101.214844 47.023438 L 99.273438 47.023438 L 99.273438 13.339844 L 96.980469 9.902344 L 96.980469 9.796875 L 96.945312 9.847656 L 96.914062 9.796875 L 96.914062 9.902344 L 94.621094 13.339844 L 94.621094 47.023438 L 92.675781 47.023438 L 90.90625 48.796875 L 92.425781 50.316406 L 92.425781 52.339844 L 90.90625 53.351562 L 90.90625 60.449219 L 84.320312 62.972656 L 88.371094 96.40625 L 80.265625 100.457031 L 80.265625 105.523438 L 74.699219 107.546875 L 74.699219 109.570312 L 67.101562 111.089844 L 71.65625 139.449219 L 67.601562 140.96875 L 71.542969 169.339844 L 67.601562 169.339844 L 72.167969 198.707031 L 67.101562 199.71875 L 71.542969 228.089844 L 67.601562 228.089844 L 71.199219 257.96875 L 67.101562 257.96875 L 71.199219 288.859375 L 67.101562 288.859375 L 70.679688 318.742188 L 67.101562 318.742188 L 71.15625 349.132812 L 69.433594 349.132812 L 69.433594 352.171875 L 66.589844 352.171875 L 56.972656 439.007812 L 136.921875 439.007812 Z M 127.304688 352.171875 " fill-opacity="1" fill-rule="nonzero"/></g></svg>