<svg xmlns="http://www.w3.org/2000/svg" xmlns:xlink="http://www.w3.org/1999/xlink" width="600" zoomAndPan="magnify" viewBox="0 0 450 449.999984" height="600" preserveAspectRatio="xMidYMid meet" version="1.0"><defs><clipPath id="dceaf3d874"><path d="M 6.050781 58.050781 L 444 58.050781 L 444 391.800781 L 6.050781 391.800781 Z M 6.050781 58.050781 " clip-rule="nonzero"/></clipPath></defs><g clip-path="url(#dceaf3d874)"><path fill="#ffffff" d="M 443.898438 342.75 C 443.945312 340.101562 442.464844 340.109375 440.25 340.273438 C 438.847656 340.328125 438.785156 340.328125 438.777344 341.671875 C 438.777344 345.226562 438.839844 348.785156 438.890625 352.34375 C 438.921875 353.40625 438.191406 353.359375 437.445312 353.398438 C 436.667969 353.445312 436.230469 353.246094 436.25 352.367188 C 436.113281 348.042969 437.109375 348.074219 432.582031 349.066406 C 430.582031 350.347656 431.769531 336.921875 431.386719 335.300781 C 431.378906 334.792969 431.269531 334.03125 430.941406 333.828125 C 430.445312 333.519531 430.070312 333.105469 429.816406 332.578125 C 429.5625 332.054688 429.472656 331.503906 429.542969 330.921875 C 430.089844 329.242188 423.9375 330.230469 422.925781 330.039062 C 421.949219 330.265625 422.265625 331.585938 422.125 332.308594 C 421.984375 333.136719 421.65625 333.816406 420.609375 333.683594 C 419.699219 333.671875 418.480469 333.605469 418.613281 334.855469 C 418.636719 343.953125 418.582031 353.054688 418.507812 362.152344 C 418.539062 364.710938 418.652344 367.273438 418.691406 369.835938 C 418.691406 370.171875 418.554688 370.445312 418.28125 370.644531 C 416.917969 371.105469 416.058594 370.472656 416.066406 369.042969 C 416.097656 362.855469 416.164062 356.660156 416.164062 350.46875 C 416.160156 342.285156 416.097656 334.101562 416.050781 325.917969 C 416.042969 324.304688 416.035156 324.328125 414.457031 325.035156 C 413.214844 325.59375 411.949219 326.175781 410.875 324.671875 C 409.289062 324.074219 407.324219 324.585938 405.617188 324.488281 C 402.445312 325.132812 406.722656 327.050781 399.953125 326.496094 C 397.945312 326.53125 398.296875 327.472656 398.296875 333.917969 L 398.296875 366.460938 C 398.25 370.589844 398.542969 371.269531 396.832031 371.324219 C 395.695312 372.179688 396.46875 356.210938 396.261719 356.085938 C 396.261719 352.828125 395.460938 353.429688 393.917969 353.363281 C 392.421875 353.300781 393.078125 352.121094 393.027344 351.429688 C 392.761719 344.828125 394.246094 345.714844 387.449219 346.074219 C 385.90625 346.496094 382.230469 345.070312 382.695312 347.773438 C 382.460938 351.027344 383.070312 373.199219 382.578125 376 C 380.960938 376.425781 381.507812 374.265625 381.429688 373.226562 C 381.707031 369.015625 381.269531 346.230469 381.503906 342.378906 C 381.5625 339.078125 375.257812 342.980469 374.878906 339.40625 C 374.675781 336.175781 373.511719 336.847656 370.914062 336.804688 C 369.53125 336.765625 369.402344 336.691406 369.390625 335.378906 C 369.347656 327.339844 369.363281 319.292969 369.433594 311.25 C 369.4375 309.75 369.410156 309.75 367.882812 309.675781 C 360.257812 309.691406 352.636719 309.703125 345.015625 309.722656 C 342.617188 309.734375 342.617188 309.75 342.617188 312.148438 C 342.570312 326.105469 342.703125 340.066406 342.546875 354.023438 C 342.648438 356.503906 340.980469 354.742188 341.429688 357.777344 C 341.128906 359.097656 342.117188 362.226562 340.574219 362.394531 C 339.96875 362.386719 339.625 362.140625 339.605469 361.53125 C 339.410156 346.007812 339.871094 330.476562 339.585938 314.953125 C 339.574219 314.605469 339.570312 314.34375 339 314.378906 C 337.339844 314.464844 335.671875 314.472656 334.011719 314.445312 C 332.351562 314.417969 330.632812 313.734375 329.03125 314.792969 C 327.800781 313.964844 328.027344 315.015625 328.011719 315.625 C 327.960938 316.90625 328.023438 318.191406 327.921875 319.464844 C 327.554688 321.394531 325.042969 320.609375 325.546875 322.84375 C 325.558594 323.46875 324.582031 324.261719 323.917969 324.359375 C 323.132812 324.523438 323.496094 325.730469 323.402344 326.335938 C 323.398438 333.53125 323.402344 340.722656 323.382812 347.921875 C 323.375 351.390625 323.914062 350.894531 320.078125 350.96875 C 317.167969 351.277344 320.488281 344.085938 317.976562 343.507812 C 317.511719 342.121094 318.203125 341.105469 316.226562 341.132812 C 312.90625 340.878906 309.089844 341.859375 305.925781 341.039062 C 305.398438 340.300781 304.675781 340.484375 304.011719 340.359375 C 303.050781 340.179688 302.300781 340.785156 301.464844 341.019531 C 298.683594 341.785156 293.546875 339.351562 292.308594 343.148438 C 291.121094 343.347656 291.210938 344.238281 291.210938 345.109375 C 291.210938 354.441406 291.214844 363.765625 291.230469 373.085938 C 291.238281 373.65625 291.097656 374.191406 290.8125 374.6875 C 290.703125 374.851562 289.941406 374.46875 289.535156 374.578125 C 287.332031 375.253906 288.441406 372.042969 288.167969 370.847656 C 288.230469 360.171875 288.285156 349.480469 288.222656 338.800781 C 288.488281 336.878906 286.042969 337.867188 284.5625 337.601562 C 281.695312 336.8125 286.433594 329.761719 280.566406 329.765625 C 276.683594 329.402344 272.757812 329.867188 268.855469 329.835938 C 265.507812 329.886719 262.160156 329.90625 258.816406 329.886719 C 257.898438 329.882812 257.542969 330.191406 257.566406 331.113281 C 257.550781 333.105469 257.632812 335.148438 257.453125 337.121094 C 257.175781 337.492188 256.03125 337.734375 255.382812 337.878906 C 254.671875 338.226562 254.953125 339.160156 254.867188 339.832031 C 254.800781 346.882812 254.734375 353.933594 254.667969 360.976562 C 254.960938 363.03125 253.574219 362.632812 251.988281 362.371094 C 250.578125 355.660156 250.78125 348.21875 249.996094 341.289062 C 249.902344 336.109375 248.6875 330.691406 249.699219 325.589844 C 250.597656 324.210938 246.714844 324.886719 245.921875 324.613281 C 245.46875 324.582031 245.199219 324.40625 245.285156 323.789062 C 246.691406 316.136719 247.179688 307.652344 250.664062 300.679688 C 251.675781 299.921875 251.125 299.511719 250.703125 298.789062 C 249.179688 296.832031 245.742188 299.304688 243.71875 298.558594 C 243.46875 296.894531 245.671875 296.894531 245.546875 295.109375 C 246.417969 289.203125 247.75 283.402344 249.535156 277.703125 C 249.714844 276.933594 250.070312 276.253906 250.609375 275.671875 C 251.738281 274.703125 249.949219 273.1875 248.925781 273.460938 C 247.699219 273.378906 242.0625 275.007812 243.90625 272.464844 C 245.351562 271.941406 245.28125 270.6875 245.554688 269.523438 C 246.8125 264.066406 248.117188 258.625 249.46875 253.195312 C 249.484375 252.066406 251.375 250.976562 250.773438 249.996094 C 249.402344 247.566406 246.351562 249.347656 244.175781 249.230469 C 242.960938 249.355469 243.433594 247.925781 244.167969 247.613281 C 244.601562 247.359375 244.945312 247.015625 245.199219 246.578125 C 245.449219 246.144531 245.582031 245.675781 245.589844 245.171875 C 246.707031 238.847656 247.742188 232.382812 250.273438 226.453125 C 250.410156 226.070312 251.46875 226.136719 250.820312 225.390625 C 249.179688 222.773438 245.722656 225.195312 243.40625 224.589844 C 243.296875 222.304688 245.402344 223.632812 245.503906 220.15625 C 246.367188 214.613281 247.640625 209.167969 249.332031 203.820312 C 249.519531 203.21875 249.6875 202.382812 250.125 202.148438 C 251.21875 201.566406 250.683594 201.160156 250.339844 200.441406 C 249.757812 198.023438 242.5 201.679688 243.386719 199.117188 C 243.496094 198.867188 243.660156 198.519531 243.871094 198.457031 C 245.210938 198.058594 245.085938 196.910156 245.3125 195.890625 C 246.382812 191.042969 247.429688 186.195312 248.625 181.378906 C 249.003906 179.832031 249.324219 178.152344 250.734375 177.054688 C 250.835938 176.910156 250.875 176.75 250.855469 176.574219 C 250.15625 176.238281 250.339844 174.929688 249.050781 175.152344 C 248.117188 175.042969 242.808594 176.421875 243.488281 174.59375 C 243.597656 174.324219 243.773438 174.113281 244.023438 173.964844 C 245.078125 173.554688 245.101562 172.644531 245.289062 171.730469 C 247 165.234375 247.070312 157.738281 250.929688 152.179688 C 249.554688 149.207031 245.761719 151.660156 243.433594 150.511719 C 244.175781 148.175781 245.074219 150.097656 245.230469 147.039062 C 246.332031 140.585938 246.753906 133.574219 249.925781 127.78125 C 250.078125 127.632812 250.15625 127.453125 250.152344 127.242188 C 250.148438 127.03125 250.066406 126.855469 249.910156 126.710938 C 248.0625 124.546875 244.820312 126.097656 242.378906 125.546875 C 239.359375 125.386719 239.574219 124.726562 239.578125 121.902344 C 239.5625 119.820312 239.5625 119.820312 237.445312 119.8125 C 233.101562 120.640625 237.402344 115.914062 233.621094 116.433594 C 230.828125 116.90625 233.683594 112.59375 231.109375 112.8125 C 230.21875 112.65625 228.984375 113.15625 228.359375 112.359375 C 229.386719 111.152344 232.234375 112.984375 232.421875 110.847656 C 232.53125 109.988281 231.878906 110.207031 231.441406 110.148438 C 230.425781 109.914062 229.265625 110.101562 228.375 109.53125 C 229.492188 107.902344 232.515625 109.859375 232.910156 107.316406 C 231.5625 106.355469 229.71875 107.671875 228.570312 106.300781 C 229.628906 105.625 230.824219 105.96875 231.996094 105.988281 C 232.621094 106.003906 233.140625 105.867188 233.128906 105.070312 C 233.117188 104.359375 232.601562 104.328125 232.101562 104.269531 C 231.25 104.179688 230.394531 104.121094 229.5625 103.953125 C 229.199219 103.820312 228.863281 103.628906 228.558594 103.390625 C 228.949219 103.167969 229.363281 103.023438 229.808594 102.957031 C 231.015625 102.664062 233.984375 104.640625 233.570312 102.246094 C 233.316406 100.542969 230.90625 101.363281 229.730469 100.757812 C 229.355469 100.601562 229.011719 100.394531 228.703125 100.132812 C 229.117188 99.960938 229.542969 99.816406 229.980469 99.707031 C 231.375 99.484375 234.355469 101.082031 234.394531 98.667969 C 234.4375 97.730469 233.730469 97.925781 233.214844 97.886719 C 232.433594 97.816406 231.636719 97.886719 230.871094 97.75 C 230.351562 97.660156 229.433594 97.230469 229.457031 97.097656 C 229.632812 96.199219 230.453125 96.648438 231.019531 96.546875 C 231.300781 96.519531 231.585938 96.523438 231.867188 96.558594 C 235.160156 97.148438 234.75 96.410156 234.910156 93.691406 C 235.085938 92.660156 234.765625 92.339844 233.695312 92.324219 C 230.199219 92.445312 230.429688 91.722656 230.664062 88.4375 C 231.066406 87.402344 230.515625 87.167969 229.636719 87.222656 C 228.617188 87.292969 228.527344 86.710938 228.589844 85.878906 C 228.691406 84.53125 228.664062 83.179688 228.761719 81.828125 C 228.816406 81.035156 228.816406 80.34375 227.773438 80.378906 C 226.660156 80.414062 226.519531 79.695312 226.488281 78.851562 C 226.347656 72.800781 226.496094 66.742188 226.449219 60.691406 C 226.449219 58.371094 226.828125 58.496094 224.082031 58.484375 C 223.3125 58.480469 222.835938 58.644531 222.941406 59.546875 C 222.988281 65.878906 222.941406 72.222656 222.949219 78.566406 C 223.359375 81.621094 220.46875 79.175781 220.589844 81.433594 C 220.75 83.058594 220.769531 84.703125 220.847656 86.335938 C 220.875 86.882812 220.808594 87.214844 220.105469 87.351562 C 218.675781 87.628906 218.683594 87.699219 218.824219 89.078125 C 218.964844 90.910156 219.738281 92.566406 217.183594 92.304688 C 214.480469 92.484375 213.773438 91.996094 214.441406 95.054688 C 214.675781 96.480469 214.742188 96.539062 216.203125 96.527344 C 217.773438 96.515625 219.339844 96.488281 220.90625 96.511719 C 223.238281 97.757812 216.808594 97.425781 216.050781 97.59375 C 214.984375 97.683594 214.953125 97.910156 215.148438 98.992188 C 215.671875 101.117188 220.78125 98.457031 221.984375 100.15625 C 222.101562 100.886719 221.402344 100.796875 220.9375 100.808594 C 219.726562 101.203125 215.042969 99.949219 215.65625 101.9375 C 215.214844 103.757812 224.257812 101.828125 221.554688 103.703125 C 220.289062 104.105469 214.335938 102.847656 216.757812 105.386719 C 222.433594 105.246094 225.351562 106.578125 217.488281 106.441406 C 216.695312 106.398438 216.484375 106.660156 216.5 107.378906 C 216.796875 109.847656 221.289062 107.394531 222.707031 109.0625 C 221.535156 110.398438 219.5625 109.574219 217.980469 109.75 C 217.648438 109.75 217.054688 109.722656 217.035156 109.804688 C 216.433594 113.175781 221.050781 110.945312 222.472656 112.308594 C 221.316406 113.28125 219.484375 112.597656 218.039062 112.796875 C 215.511719 112.785156 219.621094 116.558594 215.070312 116.304688 C 212.082031 116.695312 216.214844 120.894531 210.886719 119.707031 C 208.890625 119.382812 210.125 122.445312 209.808594 123.554688 C 210.246094 126.59375 206.09375 125.367188 204.183594 125.609375 C 202.4375 125.769531 200.226562 124.976562 199.570312 127.117188 C 199.460938 127.269531 199.882812 127.765625 200.027344 128.121094 C 202.597656 133.765625 202.878906 140.128906 204.324219 146.105469 C 204.589844 147.417969 204.234375 149.050781 206.050781 149.625 C 206.46875 150.25 206.886719 151.304688 205.589844 151.050781 C 203.554688 151.300781 199.933594 149.742188 198.910156 151.917969 C 198.335938 152.628906 199.152344 152.6875 199.332031 153.050781 C 201.890625 158.050781 202.320312 163.851562 203.867188 169.214844 C 204.316406 171.074219 203.964844 173.242188 205.996094 174.488281 C 206.171875 174.605469 206.109375 175.121094 206.160156 175.453125 C 204.195312 175.476562 202.238281 175.390625 200.285156 175.199219 C 199.316406 175.109375 199.332031 176.132812 198.757812 176.480469 C 198.886719 176.808594 199.039062 177.132812 199.207031 177.445312 C 201.882812 183.070312 202.40625 189.519531 204.066406 195.5 C 204.332031 196.6875 204.332031 197.925781 205.691406 198.511719 C 206.160156 198.785156 206.800781 200.441406 205.53125 200.054688 C 205.394531 200.023438 205.253906 200.003906 205.109375 199.992188 C 203.292969 199.902344 198.40625 198.707031 198.773438 201.542969 C 202.628906 207.011719 202.398438 214.195312 204.171875 220.46875 C 204.375 221.40625 204.300781 222.554688 205.453125 222.984375 C 205.59375 223.015625 205.722656 223.070312 205.839844 223.152344 C 205.957031 223.238281 206.054688 223.339844 206.125 223.464844 C 206.199219 223.589844 206.242188 223.722656 206.257812 223.867188 C 206.277344 224.007812 206.261719 224.148438 206.21875 224.285156 C 205.988281 225.128906 205.277344 224.625 204.78125 224.664062 C 203.0625 224.71875 199.730469 223.34375 198.851562 225.296875 C 201.46875 231.242188 202.3125 237.898438 203.792969 244.257812 C 204.074219 245.523438 203.894531 247.035156 205.582031 247.589844 C 205.851562 247.679688 206.019531 248.136719 206.160156 248.457031 C 206.949219 250.371094 201.816406 248.703125 200.769531 248.78125 C 199.652344 248.582031 199.242188 249.378906 198.714844 250.003906 C 198.191406 250.625 198.894531 250.949219 199.160156 251.417969 C 201.804688 257.265625 202.304688 263.953125 204.003906 270.140625 C 204.210938 271.058594 204.3125 271.886719 205.320312 272.398438 C 205.761719 272.621094 205.914062 273.410156 206.195312 273.941406 C 204.308594 273.980469 202.417969 273.644531 200.542969 273.519531 C 199.492188 273.339844 199.261719 274.28125 198.761719 274.789062 C 199.097656 275.867188 200.039062 277.511719 200.3125 278.742188 C 201.335938 282.957031 202.265625 287.203125 203.28125 291.417969 C 203.828125 293.695312 203.441406 296.324219 205.734375 297.96875 C 205.871094 298.0625 205.800781 298.480469 205.773438 298.742188 C 203.3125 298.871094 200.273438 297.183594 198.292969 299.445312 C 198.207031 299.519531 198.664062 300.21875 198.859375 300.636719 C 201.640625 306.820312 201.980469 313.90625 203.691406 320.464844 C 204.679688 324.476562 204.238281 324.433594 200.261719 324.648438 C 199.800781 324.699219 199.390625 324.777344 199.675781 325.40625 C 200.4375 327.113281 200.199219 328.898438 200.078125 330.671875 C 199.375 340.898438 198.683594 351.121094 198.003906 361.351562 C 197.957031 361.847656 197.585938 362.726562 197.363281 362.726562 C 194.683594 362.710938 197.496094 366.371094 194.6875 366.269531 C 194.097656 366.269531 193.808594 366.582031 193.816406 367.210938 C 193.851562 370.613281 193.886719 374.015625 193.917969 377.414062 C 193.902344 378.414062 193.585938 378.425781 193.117188 378.441406 C 192.699219 378.480469 192.414062 377.933594 192.433594 376.917969 C 192.453125 366.957031 192.71875 357.007812 192.671875 347.054688 C 192.667969 343.308594 192.679688 342.464844 191.351562 341.679688 C 189.652344 339.890625 184.113281 342.554688 184.011719 339.980469 C 182.742188 338.578125 179.996094 339.582031 178.246094 339.320312 C 175.992188 339.117188 177.335938 340.890625 175.460938 341.078125 C 174.164062 341.539062 170.734375 340.175781 170.808594 342.085938 C 171.054688 343.175781 171.367188 344.175781 169.632812 344.117188 C 168.996094 344.652344 169.132812 346.304688 169.113281 347.140625 C 169.109375 352.835938 169.109375 358.53125 169.117188 364.230469 C 168.839844 366.136719 169.871094 368.546875 168.433594 370.039062 C 168.203125 369.984375 167.984375 369.886719 167.789062 369.75 C 167.589844 369.613281 167.425781 369.449219 167.289062 369.25 C 167.15625 369.050781 167.058594 368.835938 167.003906 368.601562 C 166.953125 368.367188 166.941406 368.132812 166.972656 367.894531 L 166.972656 357.1875 C 166.972656 353.023438 166.855469 352.550781 162.335938 352.550781 C 160.628906 352.492188 158.917969 352.445312 157.214844 352.476562 C 154.363281 352.652344 157.605469 347.839844 155.136719 347.796875 C 154.257812 347.90625 153.3125 347.1875 152.523438 347.992188 C 151.925781 349.332031 153.316406 352.0625 151.304688 352.492188 C 150.59375 352.566406 150.6875 353.089844 150.726562 353.617188 C 150.84375 354.992188 150.816406 354.996094 149.4375 355.222656 C 147.925781 355.402344 145.484375 356.269531 145.707031 353.855469 C 145.746094 344.445312 146.136719 348.042969 135.324219 347.429688 C 133.699219 347.449219 133.660156 347.476562 133.65625 349.101562 C 133.617188 354.089844 133.726562 359.074219 133.648438 364.058594 C 133.597656 365.183594 132.71875 364.894531 132.0625 364.945312 C 129.972656 365.449219 131 362.097656 130.625 360.871094 C 130.152344 358.613281 132.183594 353.300781 128.257812 353.671875 C 126.878906 354.125 123.800781 353.136719 123.292969 354.523438 C 123.238281 354.75 122.957031 355.085938 122.78125 355.085938 C 121.144531 355.070312 121.480469 356.242188 121.496094 357.179688 C 121.273438 361.761719 122.367188 366.582031 121.304688 371.027344 C 120.242188 367.449219 120.90625 363.421875 120.964844 359.71875 C 121.121094 357.992188 119.699219 357.585938 119.175781 356.492188 C 118.660156 355.976562 117.953125 356.9375 117.542969 357.214844 C 116.421875 355.800781 114.328125 357.363281 114.617188 359.070312 C 114.664062 364.265625 114.683594 369.46875 114.761719 374.660156 C 114.769531 375.515625 114.792969 375.890625 115.0625 376.136719 L 114.617188 376.226562 L 113.449219 376.210938 C 113.453125 376.152344 113.460938 376.089844 113.460938 376.015625 C 113.476562 365.472656 113.574219 354.933594 113.625 344.390625 C 113.351562 343.371094 114.210938 337.816406 112.160156 338.820312 C 111.605469 339.089844 111.539062 338.867188 111.367188 338.34375 C 110.847656 336.742188 109.445312 339.261719 108.058594 339.003906 C 105.15625 339.179688 102.25 339.191406 99.347656 339.039062 C 98.222656 338.949219 97.726562 338.980469 97.746094 340.183594 C 97.75 340.71875 97.542969 341.011719 96.988281 340.554688 C 96.820312 340.515625 96.660156 340.539062 96.515625 340.628906 C 96.246094 342.636719 94.855469 341.582031 93.890625 341.59375 C 91.425781 341.316406 94.601562 336.46875 91.699219 336.652344 C 90.203125 336.707031 88.710938 336.734375 87.210938 336.726562 C 85.839844 336.726562 85.8125 336.707031 85.796875 335.273438 C 85.734375 330.222656 85.679688 325.179688 85.636719 320.132812 C 85.613281 317.136719 85.617188 317.019531 82.582031 317.167969 C 77.578125 317.632812 79.945312 311.558594 74.375 312.808594 C 66.957031 311.980469 72.105469 318.28125 63.746094 317.148438 C 62.996094 317.121094 62.726562 317.464844 62.753906 318.171875 C 62.863281 330.082031 62.734375 346.316406 62.679688 358.117188 C 61.96875 361.179688 61.792969 353.742188 61.328125 352.960938 C 61.175781 352.105469 61.441406 350.792969 59.777344 351.128906 C 58.441406 350.164062 60.191406 346.855469 57.898438 346.902344 C 55.585938 346.851562 55.566406 346.839844 55.253906 349.160156 C 54.914062 352.574219 53.253906 349.003906 52.914062 353.359375 C 52.722656 353.710938 52.429688 353.933594 52.042969 354.027344 C 51.34375 354.1875 51.476562 353.570312 51.472656 353.195312 C 51.429688 350.632812 51.382812 348.066406 51.390625 345.503906 C 50.996094 343.464844 52.371094 338.839844 50.777344 337.625 C 51.609375 336.867188 50.878906 336.535156 50.332031 336.46875 C 49.984375 336.433594 49.664062 336.328125 49.367188 336.148438 L 42.875 336.148438 C 41.449219 336.355469 41.636719 337.257812 41.628906 338.164062 C 41.195312 340.476562 42.550781 355.941406 40.5625 355.03125 C 37.691406 355.113281 41.597656 341.535156 38.546875 340.132812 C 37.625 339.222656 37.917969 340.183594 37.667969 340.394531 C 37.332031 340.679688 36.691406 340.863281 36.8125 340.257812 C 37.039062 339.121094 36.386719 339.269531 35.769531 339.269531 C 32.066406 339.253906 28.359375 339.21875 24.65625 339.269531 C 23.835938 339.28125 22.285156 338.570312 22.734375 340.589844 C 22.746094 340.628906 22.644531 340.742188 22.597656 340.738281 C 21.34375 340.59375 21.679688 341.535156 21.667969 342.160156 C 21.457031 351.339844 21.578125 360.53125 21.714844 369.714844 C 21.71875 370.128906 21.570312 370.808594 21.308594 370.917969 C 20.046875 371.441406 19.164062 370.785156 19.179688 369.421875 C 19.625 358.273438 19.289062 347.074219 19.445312 335.902344 C 19.6875 333.871094 18.121094 334.285156 16.828125 334.179688 C 14.773438 333.214844 17.503906 329.835938 14.539062 329.464844 L 11.160156 329.414062 C 9.890625 329.492188 7.894531 329.070312 7.957031 330.910156 C 7.597656 333.449219 6.039062 330.367188 6.269531 334 C 6.121094 351.980469 6.558594 373.421875 6.382812 391.542969 L 443.898438 391.542969 C 443.839844 381.457031 443.933594 353.648438 443.898438 342.75 Z M 211.253906 337.285156 C 204.609375 337.21875 204.914062 327.054688 211.265625 327.167969 C 217.683594 327.261719 217.898438 337.21875 211.253906 337.285156 Z M 225.253906 223.949219 C 224.925781 224.1875 224.5625 224.308594 224.15625 224.308594 C 223.753906 224.308594 223.390625 224.1875 223.0625 223.949219 C 221.519531 223.640625 223.128906 226.113281 222.878906 227.0625 C 222.949219 233.613281 222.890625 240.164062 222.976562 246.722656 C 222.960938 248.609375 223.925781 247.632812 225.113281 248.191406 C 224.835938 248.65625 224.324219 249.71875 223.742188 249.066406 C 223.566406 248.871094 223.296875 248.597656 223.105469 248.625 C 222.757812 248.671875 222.066406 248.433594 222.460938 249.410156 C 222.804688 250.421875 222.953125 251.460938 222.910156 252.527344 C 222.980469 258.796875 222.886719 265.070312 222.988281 271.335938 C 222.964844 273.761719 224.175781 272.414062 225.1875 273.5 C 224.851562 273.691406 224.359375 274.132812 224.199219 274.03125 C 223.570312 273.648438 222.894531 273.089844 222.347656 273.78125 C 223.648438 281.460938 222.679688 289.847656 223.042969 297.734375 C 223.042969 297.929688 223.085938 298.292969 223.042969 298.304688 C 221.394531 298.738281 222.539062 299.667969 222.636719 300.421875 C 223.199219 308.28125 222.867188 316.238281 222.78125 324.113281 C 222.746094 324.273438 222.464844 324.515625 222.351562 324.488281 C 221.421875 324.296875 221.71875 323.292969 221.652344 322.589844 C 221.617188 316.074219 221.691406 309.65625 221.582031 303.140625 C 221.523438 301.488281 221.546875 299.738281 219.792969 298.628906 C 219.632812 298.507812 219.527344 298.351562 219.46875 298.160156 C 219.410156 297.96875 219.414062 297.78125 219.480469 297.59375 C 219.546875 297.40625 219.660156 297.253906 219.824219 297.136719 C 219.988281 297.023438 220.167969 296.96875 220.367188 296.96875 C 221.492188 297.003906 221.640625 296.566406 221.632812 295.625 C 221.332031 288.753906 222.285156 281.734375 221.09375 274.949219 C 220.972656 274.46875 220.691406 274.121094 220.242188 273.910156 C 219.261719 273.691406 219.425781 273.066406 219.539062 272.441406 C 219.6875 271.601562 220.28125 271.722656 220.851562 271.933594 C 221.457031 272.160156 221.601562 271.824219 221.632812 271.34375 C 221.691406 265.933594 221.648438 260.515625 221.628906 255.105469 C 221.292969 253.382812 222.011719 249.21875 219.792969 248.792969 C 219.636719 248.765625 219.441406 248.179688 219.515625 247.917969 C 220.082031 246.089844 221.875 248.039062 221.671875 245.144531 C 221.628906 239.808594 221.65625 234.460938 221.609375 229.121094 C 221.273438 227.628906 221.855469 224.96875 220.085938 224.363281 C 218.886719 224.085938 219.558594 222.625 220.378906 222.507812 C 221.546875 222.417969 221.679688 221.734375 221.671875 220.769531 C 221.632812 215.210938 221.65625 209.65625 221.601562 204.101562 C 221.429688 197.390625 219.578125 200.847656 219.507812 198.414062 C 219.632812 196.4375 221.84375 198.394531 221.621094 196.257812 C 221.09375 192.277344 222.933594 175.84375 220.140625 174.539062 C 219.214844 174.273438 219.441406 173.574219 219.613281 172.980469 C 220.960938 171.039062 221.839844 175.382812 221.628906 169.542969 C 221.511719 163.492188 222.039062 157.414062 221.222656 151.410156 C 221.140625 150.679688 220.996094 150.054688 220.097656 149.804688 C 219.710938 149.519531 219.535156 149.140625 219.566406 148.664062 C 220.125 147.261719 221.878906 148.503906 221.640625 146.511719 C 221.613281 140.3125 221.613281 134.117188 221.566406 127.921875 C 221.492188 126.820312 221.425781 125.441406 220.445312 124.777344 C 219.152344 124.285156 219.304688 123.136719 220.78125 123.003906 C 221.785156 122.601562 222.65625 122.628906 223.257812 123.648438 C 223.25 123.921875 222.472656 124.527344 222.492188 124.933594 C 223.277344 131.925781 222.847656 138.988281 222.941406 146.011719 C 223.105469 146.988281 222.421875 149.375 224.25 148.832031 C 226.019531 149.0625 224.84375 149.757812 223.828125 149.949219 C 223.628906 149.976562 223.394531 149.585938 223.148438 149.53125 C 222.867188 149.527344 222.597656 149.570312 222.332031 149.664062 C 222.417969 149.890625 222.488281 150.125 222.542969 150.359375 C 223.480469 157.546875 222.714844 164.867188 223.015625 172.105469 C 223.078125 173.53125 223.085938 173.507812 224.511719 173.6875 C 225.539062 173.996094 225.316406 174.386719 224.472656 174.703125 C 222.707031 174.867188 222.75 174.839844 222.859375 176.777344 C 222.945312 178.265625 222.917969 179.769531 222.925781 181.261719 C 222.96875 186.746094 222.925781 192.230469 223.023438 197.71875 C 223.082031 199.441406 224.667969 198.246094 225.566406 198.972656 C 224.703125 200.335938 223.457031 198.746094 222.28125 199.371094 C 222.335938 200.554688 222.871094 202 222.863281 203.222656 C 222.921875 209.558594 222.953125 215.898438 222.953125 222.242188 C 222.898438 223.144531 223.179688 223.59375 224.183594 223.3125 C 224.644531 223.195312 226.097656 223.335938 225.25 223.949219 Z M 227.757812 170.089844 C 227.886719 171.058594 227.4375 172.890625 229.050781 172.621094 C 230.40625 172.128906 230.832031 174.875 229.273438 174.738281 C 227.375 174.96875 228.070312 178.230469 227.773438 179.621094 C 227.773438 185.105469 227.707031 190.589844 227.816406 196.074219 C 227.683594 198.285156 229.355469 196.832031 230.148438 198.273438 C 230.648438 199.460938 228.25 198.894531 228.078125 201.3125 C 227.460938 207.871094 228.082031 214.554688 227.933594 221.152344 C 227.941406 222.03125 228.078125 222.695312 229.234375 222.574219 C 230.113281 222.617188 230.707031 224.09375 229.5 224.355469 C 226.390625 225.136719 228.246094 241.3125 227.773438 244.875 C 227.820312 248.671875 228.707031 246.160156 230.136719 247.808594 C 230.003906 249.617188 227.824219 248.996094 228.015625 251.753906 C 228.015625 258.15625 227.71875 264.574219 227.894531 270.964844 C 227.777344 272.886719 229.96875 270.917969 230.207031 272.535156 C 230.324219 273.316406 230.238281 273.898438 229.195312 273.980469 C 226.484375 274.859375 228.246094 290.605469 227.773438 294.171875 C 227.984375 295.21875 227.394531 297.113281 229.035156 296.996094 C 229.519531 297.027344 229.886719 297.25 230.140625 297.664062 C 230.398438 298.222656 229.714844 298.390625 229.429688 298.742188 C 228.777344 299.476562 228.339844 300.320312 228.117188 301.277344 C 227.332031 308.203125 227.867188 315.226562 227.691406 322.1875 C 225.925781 332.316406 226.890625 303.375 226.6875 301.996094 C 226.675781 301.425781 226.722656 300.859375 226.828125 300.296875 C 226.980469 299.542969 228.019531 298.71875 226.515625 298.179688 C 226.257812 291.113281 226.683594 283.800781 226.707031 276.667969 C 227.839844 271.1875 226.445312 275.046875 226.328125 272.144531 C 226.429688 265.808594 226.492188 259.46875 226.644531 253.132812 C 226.675781 251.832031 226.308594 250.410156 227.3125 249.242188 C 227.367188 249.085938 227.359375 248.933594 227.296875 248.785156 C 225.695312 248.5625 226.496094 247.394531 226.496094 246.621094 C 226.867188 239.207031 225.785156 231.453125 227.40625 224.238281 C 225.808594 223.609375 226.683594 222.265625 226.667969 221.304688 C 226.570312 215.820312 226.578125 210.332031 226.628906 204.847656 C 226.644531 203.097656 226.320312 201.269531 227.304688 199.628906 C 227.019531 198.613281 226.078125 199.550781 226.371094 197.8125 C 226.636719 190.039062 226.179688 182.125 227.019531 174.421875 C 225.753906 173.222656 226.460938 171.714844 226.460938 170.382812 C 226.457031 164.824219 226.535156 159.269531 226.667969 153.71875 C 226.695312 152.484375 226.335938 151.121094 227.378906 150.0625 C 227.445312 149.992188 227.347656 149.609375 227.308594 149.609375 C 225.816406 149.484375 226.476562 148.429688 226.480469 147.695312 C 226.515625 141.710938 226.523438 135.730469 226.640625 129.746094 C 226.675781 128.011719 226.277344 126.183594 227.332031 124.554688 C 227.804688 123.609375 226.292969 124.003906 225.828125 123.78125 C 224.773438 122.476562 229.058594 123.339844 229.621094 123.070312 C 230.234375 123.097656 230.367188 124.355469 229.722656 124.535156 C 227.824219 125.082031 227.976562 126.582031 227.949219 127.957031 C 227.839844 133.367188 227.78125 138.78125 227.730469 144.195312 C 227.964844 150.054688 227.921875 146.800781 230.171875 148.664062 C 230.851562 149.992188 227.929688 149.910156 228.046875 152.164062 C 227.375 158.105469 227.871094 164.113281 227.757812 170.089844 Z M 237.929688 337.402344 C 231.46875 337.105469 231.722656 327.179688 237.769531 327.09375 C 244.402344 327.226562 244.546875 337.25 237.925781 337.398438 Z M 237.929688 337.402344 " fill-opacity="1" fill-rule="nonzero"/></g><path fill="#ffffff" d="M 238.070312 328.289062 C 232.945312 328.316406 232.992188 336.222656 237.925781 336.300781 C 242.875 336.335938 243.078125 328.285156 238.070312 328.289062 Z M 238.070312 328.289062 " fill-opacity="1" fill-rule="nonzero"/><path fill="#ffffff" d="M 211.324219 328.347656 C 206.21875 328.117188 206.078125 336.203125 211.070312 336.246094 C 216.273438 336.207031 216.617188 328.53125 211.324219 328.347656 Z M 211.324219 328.347656 " fill-opacity="1" fill-rule="nonzero"/></svg>