<svg xmlns="http://www.w3.org/2000/svg" xmlns:xlink="http://www.w3.org/1999/xlink" width="600" zoomAndPan="magnify" viewBox="0 0 450 449.999984" height="600" preserveAspectRatio="xMidYMid meet" version="1.0"><defs><clipPath id="9f4593e6cf"><path d="M 0 396 L 353.699219 396 L 353.699219 404.945312 L 0 404.945312 Z M 0 396 " clip-rule="nonzero"/></clipPath><clipPath id="9e61147528"><path d="M 282.390625 189 L 431 189 L 431 359 L 282.390625 359 Z M 282.390625 189 " clip-rule="nonzero"/></clipPath><clipPath id="2844807f27"><path d="M 296 350 L 335 350 L 335 401.140625 L 296 401.140625 Z M 296 350 " clip-rule="nonzero"/></clipPath><clipPath id="a906d17e27"><path d="M 378 350 L 417 350 L 417 401.140625 L 378 401.140625 Z M 378 350 " clip-rule="nonzero"/></clipPath></defs><g clip-path="url(#9f4593e6cf)"><path fill="#ffffff" d="M -12.484375 396.890625 L 353.253906 396.890625 L 353.253906 404.671875 L -12.484375 404.671875 Z M -12.484375 396.890625 " fill-opacity="1" fill-rule="nonzero"/></g><path fill="#ffffff" d="M 190 129.347656 L 150.78125 129.347656 L 145.0625 140.320312 L 195.683594 140.320312 Z M 190 129.347656 " fill-opacity="1" fill-rule="nonzero"/><path fill="#ffffff" d="M 209.300781 389.101562 L 131.484375 389.101562 L 139.03125 326.964844 L 201.753906 326.964844 Z M 209.300781 389.101562 " fill-opacity="1" fill-rule="nonzero"/><path fill="#ffffff" d="M 256.101562 129.851562 C 278.757812 129.851562 294.246094 129.851562 318.492188 129.851562 C 327.203125 129.851562 334.328125 122.726562 334.328125 113.972656 C 334.328125 100.96875 319.433594 93.625 309.179688 101.1875 C 308.367188 89.988281 299.011719 81.191406 287.640625 81.191406 C 276.871094 81.191406 267.945312 89.042969 266.269531 99.300781 C 255.578125 91.035156 239.109375 98.515625 239.109375 112.859375 C 239.109375 122.210938 246.703125 129.851562 256.101562 129.851562 Z M 256.101562 129.851562 " fill-opacity="1" fill-rule="nonzero"/><path fill="#ffffff" d="M 11.617188 272.203125 C 27.246094 272.203125 58.402344 272.203125 74.007812 272.203125 C 82.71875 272.203125 89.839844 265.078125 89.839844 256.324219 C 89.839844 243.316406 74.949219 235.972656 64.695312 243.535156 C 63.878906 232.335938 54.527344 223.542969 43.15625 223.542969 C 32.382812 223.542969 23.460938 231.394531 21.785156 241.648438 C 11.089844 233.386719 -5.375 240.867188 -5.375 255.207031 C -5.375 264.5625 2.21875 272.203125 11.617188 272.203125 Z M 11.617188 272.203125 " fill-opacity="1" fill-rule="nonzero"/><path fill="#ffffff" d="M 271.824219 377.117188 C 280.542969 377.117188 287.660156 369.996094 287.660156 361.242188 C 287.660156 348.246094 272.796875 340.894531 262.527344 348.441406 C 261.710938 337.234375 252.371094 328.441406 241.011719 328.441406 C 230.234375 328.441406 221.285156 336.300781 219.609375 346.574219 C 217.121094 344.589844 214.007812 343.382812 210.625 343.148438 L 214.746094 377.117188 Z M 271.824219 377.117188 " fill-opacity="1" fill-rule="nonzero"/><path fill="#ffffff" d="M 59.972656 144.40625 C 71.097656 144.40625 80.164062 135.339844 80.164062 124.175781 C 80.164062 113.046875 71.097656 103.980469 59.972656 103.980469 C 48.804688 103.980469 39.738281 113.046875 39.738281 124.175781 C 39.738281 135.339844 48.804688 144.40625 59.972656 144.40625 Z M 59.972656 144.40625 " fill-opacity="1" fill-rule="nonzero"/><path fill="#ffffff" d="M 56.078125 76.277344 L 63.859375 76.277344 L 63.859375 94.992188 L 56.078125 94.992188 Z M 56.078125 76.277344 " fill-opacity="1" fill-rule="nonzero"/><path fill="#ffffff" d="M 96.582031 93.085938 L 91.058594 87.5625 L 77.828125 100.789062 L 83.355469 106.277344 Z M 96.582031 93.085938 " fill-opacity="1" fill-rule="nonzero"/><path fill="#ffffff" d="M 42.074219 100.789062 L 28.84375 87.5625 L 23.359375 93.085938 L 36.546875 106.277344 Z M 42.074219 100.789062 " fill-opacity="1" fill-rule="nonzero"/><path fill="#ffffff" d="M 77.828125 147.597656 L 91.058594 160.789062 L 96.582031 155.300781 L 83.355469 142.070312 Z M 77.828125 147.597656 " fill-opacity="1" fill-rule="nonzero"/><path fill="#ffffff" d="M 89.148438 120.28125 L 107.863281 120.28125 L 107.863281 128.0625 L 89.148438 128.0625 Z M 89.148438 120.28125 " fill-opacity="1" fill-rule="nonzero"/><path fill="#ffffff" d="M 23.359375 155.300781 L 28.84375 160.789062 L 42.074219 147.597656 L 36.546875 142.070312 Z M 23.359375 155.300781 " fill-opacity="1" fill-rule="nonzero"/><path fill="#ffffff" d="M 12.074219 120.28125 L 30.753906 120.28125 L 30.753906 128.0625 L 12.074219 128.0625 Z M 12.074219 120.28125 " fill-opacity="1" fill-rule="nonzero"/><path fill="#ffffff" d="M 56.078125 153.394531 L 63.859375 153.394531 L 63.859375 172.070312 L 56.078125 172.070312 Z M 56.078125 153.394531 " fill-opacity="1" fill-rule="nonzero"/><path fill="#ffffff" d="M 186.34375 121.566406 L 191.480469 76.707031 L 181.988281 76.707031 L 181.988281 52.503906 L 174.273438 52.503906 L 174.273438 27.261719 L 166.492188 27.261719 L 166.492188 52.503906 L 158.796875 52.503906 L 158.796875 76.707031 L 149.265625 76.707031 L 154.402344 121.566406 Z M 174.203125 76.707031 L 166.578125 76.707031 L 166.578125 60.289062 L 174.203125 60.289062 Z M 174.203125 76.707031 " fill-opacity="1" fill-rule="nonzero"/><path fill="#ffffff" d="M 206.148438 291.207031 L 196.226562 319.183594 L 144.519531 319.183594 L 134.636719 291.207031 Z M 206.148438 291.207031 " fill-opacity="1" fill-rule="nonzero"/><path fill="#ffffff" d="M 206.140625 255.429688 L 206.148438 255.410156 C 176.066406 255.425781 164.726562 255.414062 134.636719 255.410156 L 134.640625 255.429688 L 134.636719 255.429688 C 134.777344 255.828125 145.164062 285.253906 144.519531 283.425781 L 196.226562 283.425781 C 196.367188 283.03125 206.796875 253.601562 206.148438 255.429688 Z M 206.140625 255.429688 " fill-opacity="1" fill-rule="nonzero"/><path fill="#ffffff" d="M 206.140625 219.644531 L 206.148438 219.625 C 176.066406 219.640625 164.726562 219.625 134.636719 219.625 L 134.640625 219.644531 L 134.636719 219.644531 L 134.636719 219.65625 C 134.773438 220.046875 144.660156 248.039062 144.519531 247.640625 L 196.226562 247.640625 C 197.039062 245.339844 206.007812 220.046875 206.148438 219.65625 L 206.144531 219.65625 C 206.183594 219.539062 206.1875 219.53125 206.148438 219.644531 Z M 206.140625 219.644531 " fill-opacity="1" fill-rule="nonzero"/><path fill="#ffffff" d="M 206.136719 183.886719 L 206.148438 183.859375 C 142.964844 183.917969 197.835938 183.859375 134.636719 183.859375 L 134.644531 183.886719 C 134.640625 183.886719 134.636719 183.886719 134.636719 183.886719 L 134.640625 183.90625 L 134.636719 183.90625 L 134.640625 183.917969 L 134.636719 183.917969 C 134.773438 184.308594 144.660156 212.304688 144.519531 211.902344 L 196.226562 211.902344 C 197.039062 209.601562 206.007812 184.308594 206.148438 183.917969 L 206.144531 183.917969 C 206.183594 183.800781 206.1875 183.792969 206.148438 183.90625 L 206.140625 183.90625 L 206.148438 183.886719 C 206.144531 183.886719 206.140625 183.886719 206.136719 183.886719 Z M 206.136719 183.886719 " fill-opacity="1" fill-rule="nonzero"/><path fill="#ffffff" d="M 206.140625 148.101562 L 206.148438 148.082031 C 142.914062 148.140625 197.84375 148.082031 134.636719 148.082031 L 134.640625 148.101562 L 134.636719 148.101562 L 134.636719 148.113281 L 134.640625 148.132812 L 134.636719 148.132812 L 134.640625 148.140625 L 134.636719 148.140625 C 134.773438 148.535156 144.660156 176.527344 144.519531 176.125 L 196.226562 176.125 C 197.039062 173.828125 206.007812 148.535156 206.148438 148.140625 L 206.144531 148.140625 C 206.183594 148.027344 206.1875 148.015625 206.148438 148.132812 L 206.140625 148.132812 L 206.148438 148.113281 L 206.144531 148.113281 L 206.148438 148.101562 Z M 206.140625 148.101562 " fill-opacity="1" fill-rule="nonzero"/><g clip-path="url(#9e61147528)"><path fill="#ffffff" d="M 414.761719 358.726562 L 298.027344 358.726562 C 289.460938 358.726562 282.492188 351.757812 282.492188 343.191406 L 282.492188 233.648438 C 282.492188 209.148438 302.421875 189.21875 326.921875 189.21875 L 385.867188 189.21875 C 410.367188 189.21875 430.296875 209.148438 430.296875 233.648438 L 430.296875 343.191406 C 430.296875 351.757812 423.328125 358.726562 414.761719 358.726562 Z M 326.921875 197.519531 C 307 197.519531 290.792969 213.726562 290.792969 233.648438 L 290.792969 343.191406 C 290.792969 347.179688 294.039062 350.425781 298.027344 350.425781 L 414.761719 350.425781 C 418.75 350.425781 421.996094 347.179688 421.996094 343.191406 L 421.996094 233.648438 C 421.996094 213.726562 405.789062 197.519531 385.867188 197.519531 Z M 326.921875 197.519531 " fill-opacity="1" fill-rule="nonzero"/></g><path fill="#ffffff" d="M 406.511719 282.253906 L 306.277344 282.253906 C 303.984375 282.253906 302.125 280.398438 302.125 278.105469 L 302.125 232.636719 C 302.125 230.34375 303.984375 228.484375 306.277344 228.484375 L 406.511719 228.484375 C 408.804688 228.484375 410.664062 230.34375 410.664062 232.636719 L 410.664062 278.105469 C 410.664062 280.398438 408.804688 282.253906 406.511719 282.253906 Z M 310.425781 273.953125 L 402.363281 273.953125 L 402.363281 236.789062 L 310.425781 236.789062 Z M 310.425781 273.953125 " fill-opacity="1" fill-rule="nonzero"/><path fill="#ffffff" d="M 356.394531 282.257812 C 354.101562 282.257812 352.246094 280.398438 352.246094 278.105469 L 352.246094 232.636719 C 352.246094 230.34375 354.101562 228.484375 356.394531 228.484375 C 358.6875 228.484375 360.546875 230.34375 360.546875 232.636719 L 360.546875 278.105469 C 360.546875 280.398438 358.6875 282.257812 356.394531 282.257812 Z M 356.394531 282.257812 " fill-opacity="1" fill-rule="nonzero"/><g clip-path="url(#2844807f27)"><path fill="#ffffff" d="M 300.246094 401.09375 C 299.425781 401.09375 298.597656 400.851562 297.871094 400.34375 C 295.992188 399.03125 295.535156 396.441406 296.847656 394.566406 L 326.46875 352.195312 C 327.78125 350.320312 330.367188 349.859375 332.246094 351.171875 C 334.125 352.488281 334.582031 355.074219 333.269531 356.953125 L 303.652344 399.320312 C 302.84375 400.476562 301.554688 401.09375 300.246094 401.09375 Z M 300.246094 401.09375 " fill-opacity="1" fill-rule="nonzero"/></g><g clip-path="url(#a906d17e27)"><path fill="#ffffff" d="M 412.542969 401.09375 C 411.234375 401.09375 409.945312 400.476562 409.136719 399.320312 L 379.519531 356.953125 C 378.207031 355.074219 378.664062 352.488281 380.542969 351.171875 C 382.417969 349.859375 385.007812 350.316406 386.320312 352.195312 L 415.941406 394.566406 C 417.253906 396.445312 416.792969 399.03125 414.917969 400.34375 C 414.191406 400.851562 413.363281 401.09375 412.542969 401.09375 Z M 412.542969 401.09375 " fill-opacity="1" fill-rule="nonzero"/></g><path fill="#ffffff" d="M 397.730469 379.910156 L 315.058594 379.910156 C 312.769531 379.910156 310.910156 378.050781 310.910156 375.757812 C 310.910156 373.46875 312.769531 371.609375 315.058594 371.609375 L 397.730469 371.609375 C 400.023438 371.609375 401.878906 373.46875 401.878906 375.757812 C 401.878906 378.050781 400.023438 379.910156 397.730469 379.910156 Z M 397.730469 379.910156 " fill-opacity="1" fill-rule="nonzero"/><path fill="#ffffff" d="M 315.578125 341.15625 C 308.160156 341.15625 302.125 335.125 302.125 327.707031 C 302.125 320.289062 308.160156 314.257812 315.578125 314.257812 C 322.992188 314.257812 329.027344 320.292969 329.027344 327.707031 C 329.027344 335.125 322.992188 341.15625 315.578125 341.15625 Z M 315.578125 322.558594 C 312.738281 322.558594 310.425781 324.867188 310.425781 327.707031 C 310.425781 330.546875 312.738281 332.855469 315.578125 332.855469 C 318.417969 332.855469 320.726562 330.546875 320.726562 327.707031 C 320.726562 324.867188 318.417969 322.558594 315.578125 322.558594 Z M 315.578125 322.558594 " fill-opacity="1" fill-rule="nonzero"/><path fill="#ffffff" d="M 397.214844 341.15625 C 389.796875 341.15625 383.761719 335.125 383.761719 327.707031 C 383.761719 320.289062 389.796875 314.257812 397.214844 314.257812 C 404.628906 314.257812 410.664062 320.292969 410.664062 327.707031 C 410.664062 335.125 404.628906 341.15625 397.214844 341.15625 Z M 397.214844 322.558594 C 394.375 322.558594 392.0625 324.867188 392.0625 327.707031 C 392.0625 330.546875 394.375 332.855469 397.214844 332.855469 C 400.050781 332.855469 402.363281 330.546875 402.363281 327.707031 C 402.363281 324.867188 400.050781 322.558594 397.214844 322.558594 Z M 397.214844 322.558594 " fill-opacity="1" fill-rule="nonzero"/><path stroke-linecap="butt" transform="matrix(0.75, 0, 0, 0.75, 300.177875, 397.307489)" fill="none" stroke-linejoin="miter" d="M 0.00241644 5.001473 L 199.762849 5.001473 " stroke="#ffffff" stroke-width="10" stroke-opacity="1" stroke-miterlimit="4"/></svg>