<svg xmlns="http://www.w3.org/2000/svg" xmlns:xlink="http://www.w3.org/1999/xlink" width="600" zoomAndPan="magnify" viewBox="0 0 450 449.999984" height="600" preserveAspectRatio="xMidYMid meet" version="1.0"><defs><clipPath id="3ab90679db"><path d="M 83 366 L 161 366 L 161 443.5625 L 83 443.5625 Z M 83 366 " clip-rule="nonzero"/></clipPath><clipPath id="149f879078"><path d="M 289 366 L 367 366 L 367 443.5625 L 289 443.5625 Z M 289 366 " clip-rule="nonzero"/></clipPath><clipPath id="9b88e09a74"><path d="M 6.3125 117 L 67 117 L 67 213 L 6.3125 213 Z M 6.3125 117 " clip-rule="nonzero"/></clipPath><clipPath id="b78bc346d6"><path d="M 383 117 L 443.5625 117 L 443.5625 213 L 383 213 Z M 383 117 " clip-rule="nonzero"/></clipPath><clipPath id="e7fdda73c5"><path d="M 48 6.3125 L 401 6.3125 L 401 93 L 48 93 Z M 48 6.3125 " clip-rule="nonzero"/></clipPath></defs><path fill="#ffffff" d="M 392.226562 383.335938 L 57.769531 383.335938 C 53.035156 383.335938 49.195312 379.496094 49.195312 374.761719 L 49.195312 83.679688 C 49.195312 78.941406 53.035156 75.101562 57.769531 75.101562 L 392.226562 75.101562 C 396.960938 75.101562 400.800781 78.941406 400.800781 83.679688 L 400.800781 374.761719 C 400.800781 379.496094 396.960938 383.335938 392.226562 383.335938 Z M 66.34375 366.1875 L 383.652344 366.1875 L 383.652344 92.253906 L 66.34375 92.253906 Z M 66.34375 366.1875 " fill-opacity="1" fill-rule="nonzero"/><path fill="#ffffff" d="M 392.226562 383.832031 L 57.769531 383.832031 C 53.035156 383.832031 49.195312 379.992188 49.195312 375.257812 L 49.195312 272.347656 C 49.195312 267.609375 53.035156 263.769531 57.769531 263.769531 L 392.226562 263.769531 C 396.960938 263.769531 400.800781 267.609375 400.800781 272.347656 L 400.800781 375.257812 C 400.800781 379.992188 396.960938 383.832031 392.226562 383.832031 Z M 66.34375 366.679688 L 383.652344 366.679688 L 383.652344 280.921875 L 66.34375 280.921875 Z M 66.34375 366.679688 " fill-opacity="1" fill-rule="nonzero"/><path fill="#ffffff" d="M 224.800781 280.921875 C 220.066406 280.921875 216.226562 277.082031 216.226562 272.347656 L 216.226562 84.171875 C 216.226562 79.4375 220.066406 75.597656 224.800781 75.597656 C 229.535156 75.597656 233.375 79.4375 233.375 84.171875 L 233.375 272.347656 C 233.375 277.082031 229.535156 280.921875 224.800781 280.921875 Z M 224.800781 280.921875 " fill-opacity="1" fill-rule="nonzero"/><path fill="#ffffff" d="M 289.316406 315.226562 L 160.679688 315.226562 C 155.941406 315.226562 152.101562 311.386719 152.101562 306.648438 C 152.101562 301.914062 155.941406 298.074219 160.679688 298.074219 L 289.316406 298.074219 C 294.050781 298.074219 297.890625 301.914062 297.890625 306.648438 C 297.890625 311.386719 294.050781 315.226562 289.316406 315.226562 Z M 289.316406 315.226562 " fill-opacity="1" fill-rule="nonzero"/><path fill="#ffffff" d="M 289.316406 349.527344 L 160.679688 349.527344 C 155.941406 349.527344 152.101562 345.6875 152.101562 340.953125 C 152.101562 336.21875 155.941406 332.378906 160.679688 332.378906 L 289.316406 332.378906 C 294.050781 332.378906 297.890625 336.21875 297.890625 340.953125 C 297.890625 345.6875 294.050781 349.527344 289.316406 349.527344 Z M 289.316406 349.527344 " fill-opacity="1" fill-rule="nonzero"/><path fill="#ffffff" d="M 109.222656 349.527344 C 95.039062 349.527344 83.496094 337.988281 83.496094 323.800781 C 83.496094 309.617188 95.039062 298.074219 109.222656 298.074219 C 123.410156 298.074219 134.953125 309.617188 134.953125 323.800781 C 134.953125 337.988281 123.410156 349.527344 109.222656 349.527344 Z M 109.222656 315.226562 C 104.496094 315.226562 100.648438 319.074219 100.648438 323.800781 C 100.648438 328.53125 104.496094 332.378906 109.222656 332.378906 C 113.953125 332.378906 117.800781 328.53125 117.800781 323.800781 C 117.800781 319.074219 113.953125 315.226562 109.222656 315.226562 Z M 109.222656 315.226562 " fill-opacity="1" fill-rule="nonzero"/><path fill="#ffffff" d="M 340.769531 349.527344 C 326.585938 349.527344 315.042969 337.988281 315.042969 323.800781 C 315.042969 309.617188 326.585938 298.074219 340.769531 298.074219 C 354.957031 298.074219 366.5 309.617188 366.5 323.800781 C 366.5 337.988281 354.957031 349.527344 340.769531 349.527344 Z M 340.769531 315.226562 C 336.042969 315.226562 332.195312 319.074219 332.195312 323.800781 C 332.195312 328.53125 336.042969 332.378906 340.769531 332.378906 C 345.5 332.378906 349.347656 328.53125 349.347656 323.800781 C 349.347656 319.074219 345.5 315.226562 340.769531 315.226562 Z M 340.769531 315.226562 " fill-opacity="1" fill-rule="nonzero"/><g clip-path="url(#3ab90679db)"><path fill="#ffffff" d="M 152.101562 443.5 L 91.875 443.5 C 87.140625 443.5 83.300781 439.660156 83.300781 434.921875 L 83.300781 375.257812 C 83.300781 370.519531 87.140625 366.679688 91.875 366.679688 L 152.101562 366.679688 C 156.839844 366.679688 160.679688 370.519531 160.679688 375.257812 L 160.679688 434.921875 C 160.679688 439.660156 156.839844 443.5 152.101562 443.5 Z M 100.449219 426.347656 L 143.527344 426.347656 L 143.527344 383.832031 L 100.449219 383.832031 Z M 100.449219 426.347656 " fill-opacity="1" fill-rule="nonzero"/></g><g clip-path="url(#149f879078)"><path fill="#ffffff" d="M 357.726562 443.5 L 297.890625 443.5 C 293.15625 443.5 289.316406 439.660156 289.316406 434.921875 L 289.316406 375.257812 C 289.316406 370.519531 293.15625 366.679688 297.890625 366.679688 L 357.726562 366.679688 C 362.460938 366.679688 366.300781 370.519531 366.300781 375.257812 L 366.300781 434.921875 C 366.300781 439.660156 362.460938 443.5 357.726562 443.5 Z M 306.46875 426.347656 L 349.148438 426.347656 L 349.148438 383.832031 L 306.46875 383.832031 Z M 306.46875 426.347656 " fill-opacity="1" fill-rule="nonzero"/></g><g clip-path="url(#9b88e09a74)"><path fill="#ffffff" d="M 57.769531 212.316406 L 14.890625 212.316406 C 10.152344 212.316406 6.3125 208.476562 6.3125 203.738281 L 6.3125 126.558594 C 6.3125 121.820312 10.152344 117.980469 14.890625 117.980469 L 57.769531 117.980469 C 62.503906 117.980469 66.34375 121.820312 66.34375 126.558594 L 66.34375 203.738281 C 66.34375 208.476562 62.503906 212.316406 57.769531 212.316406 Z M 23.464844 195.164062 L 49.195312 195.164062 L 49.195312 135.132812 L 23.464844 135.132812 Z M 23.464844 195.164062 " fill-opacity="1" fill-rule="nonzero"/></g><g clip-path="url(#b78bc346d6)"><path fill="#ffffff" d="M 435.105469 212.316406 L 392.226562 212.316406 C 387.492188 212.316406 383.652344 208.476562 383.652344 203.738281 L 383.652344 126.558594 C 383.652344 121.820312 387.492188 117.980469 392.226562 117.980469 L 435.105469 117.980469 C 439.839844 117.980469 443.679688 121.820312 443.679688 126.558594 L 443.679688 203.738281 C 443.679688 208.476562 439.839844 212.316406 435.105469 212.316406 Z M 400.800781 195.164062 L 426.53125 195.164062 L 426.53125 135.132812 L 400.800781 135.132812 Z M 400.800781 195.164062 " fill-opacity="1" fill-rule="nonzero"/></g><g clip-path="url(#e7fdda73c5)"><path fill="#ffffff" d="M 57.570312 92.253906 C 52.839844 92.253906 48.996094 88.414062 48.996094 83.679688 C 48.996094 41.121094 83.621094 6.496094 126.179688 6.496094 L 323.421875 6.496094 C 365.980469 6.496094 400.605469 41.121094 400.605469 83.675781 C 400.605469 88.414062 396.765625 92.253906 392.027344 92.253906 Z M 66.757812 75.101562 L 382.84375 75.101562 C 378.667969 46.050781 353.609375 23.648438 323.421875 23.648438 L 126.175781 23.648438 C 95.988281 23.648438 70.933594 46.046875 66.757812 75.101562 Z M 66.757812 75.101562 " fill-opacity="1" fill-rule="nonzero"/></g><path fill="#ffffff" d="M 245.785156 57.949219 L 203.8125 57.949219 C 199.078125 57.949219 195.238281 54.113281 195.238281 49.375 C 195.238281 44.640625 199.078125 40.800781 203.8125 40.800781 L 245.785156 40.800781 C 250.523438 40.800781 254.363281 44.640625 254.363281 49.375 C 254.363281 54.109375 250.523438 57.949219 245.785156 57.949219 Z M 245.785156 57.949219 " fill-opacity="1" fill-rule="nonzero"/></svg>