<svg xmlns="http://www.w3.org/2000/svg" xmlns:xlink="http://www.w3.org/1999/xlink" width="600" zoomAndPan="magnify" viewBox="0 0 450 449.999984" height="600" preserveAspectRatio="xMidYMid meet" version="1.0"><defs><clipPath id="04a49ac9d3"><path d="M 154 19.476562 L 225 19.476562 L 225 103 L 154 103 Z M 154 19.476562 " clip-rule="nonzero"/></clipPath><clipPath id="61ee8ce428"><path d="M 30.011719 58 L 420 58 L 420 430.476562 L 30.011719 430.476562 Z M 30.011719 58 " clip-rule="nonzero"/></clipPath></defs><g clip-path="url(#04a49ac9d3)"><path fill="#ffffff" d="M 225 76.171875 L 207.28125 76.171875 L 207.28125 23.90625 C 207.28125 21.460938 205.300781 19.476562 202.851562 19.476562 C 200.40625 19.476562 198.421875 21.460938 198.421875 23.90625 L 198.421875 76.171875 L 180.707031 76.171875 L 180.707031 41.625 C 180.707031 39.175781 178.722656 37.195312 176.277344 37.195312 C 173.828125 37.195312 171.847656 39.175781 171.847656 41.625 L 171.847656 76.171875 L 154.128906 76.171875 L 154.128906 102.746094 L 225 102.746094 Z M 225 76.171875 " fill-opacity="1" fill-rule="nonzero"/></g><path fill="#ffffff" d="M 189.5625 160.328125 L 189.5625 253.34375 L 260.433594 253.34375 L 260.433594 111.605469 L 127.554688 111.605469 L 127.554688 155.898438 L 185.136719 155.898438 C 187.582031 155.898438 189.5625 157.882812 189.5625 160.328125 Z M 229.425781 124.894531 L 247.144531 124.894531 L 247.144531 142.609375 L 229.425781 142.609375 Z M 229.425781 151.46875 L 247.144531 151.46875 L 247.144531 169.1875 L 229.425781 169.1875 Z M 229.425781 178.042969 L 247.144531 178.042969 L 247.144531 195.761719 L 229.425781 195.761719 Z M 229.425781 204.621094 L 247.144531 204.621094 L 247.144531 222.335938 L 229.425781 222.335938 Z M 202.851562 124.894531 L 220.570312 124.894531 L 220.570312 142.609375 L 202.851562 142.609375 Z M 202.851562 151.46875 L 220.570312 151.46875 L 220.570312 169.1875 L 202.851562 169.1875 Z M 202.851562 178.042969 L 220.570312 178.042969 L 220.570312 195.761719 L 202.851562 195.761719 Z M 202.851562 204.621094 L 220.570312 204.621094 L 220.570312 222.335938 L 202.851562 222.335938 Z M 167.417969 142.609375 L 149.699219 142.609375 L 149.699219 124.894531 L 167.417969 124.894531 Z M 176.277344 124.894531 L 193.992188 124.894531 L 193.992188 142.609375 L 176.277344 142.609375 Z M 176.277344 124.894531 " fill-opacity="1" fill-rule="nonzero"/><path fill="#ffffff" d="M 295.867188 31.878906 L 366.734375 31.878906 L 366.734375 49.597656 L 295.867188 49.597656 Z M 295.867188 31.878906 " fill-opacity="1" fill-rule="nonzero"/><g clip-path="url(#61ee8ce428)"><path fill="#ffffff" d="M 415.457031 421.652344 L 393.308594 421.652344 L 393.308594 58.453125 L 269.289062 58.453125 L 269.289062 253.34375 L 326.871094 253.34375 C 329.316406 253.34375 331.300781 255.324219 331.300781 257.769531 L 331.300781 421.652344 L 322.441406 421.652344 L 322.441406 262.199219 L 189.5625 262.199219 L 189.5625 421.652344 L 180.707031 421.652344 L 180.707031 164.757812 L 56.6875 164.757812 L 56.6875 421.652344 L 34.539062 421.652344 C 32.09375 421.652344 30.109375 423.636719 30.109375 426.082031 C 30.109375 428.53125 32.09375 430.511719 34.539062 430.511719 L 415.457031 430.511719 C 417.902344 430.511719 419.886719 428.53125 419.886719 426.082031 C 419.886719 423.636719 417.902344 421.652344 415.457031 421.652344 Z M 300.296875 231.195312 L 282.578125 231.195312 L 282.578125 80.601562 L 300.296875 80.601562 Z M 326.871094 231.195312 L 309.15625 231.195312 L 309.15625 80.601562 L 326.871094 80.601562 Z M 362.304688 80.601562 L 380.023438 80.601562 L 380.023438 355.214844 L 362.304688 355.214844 Z M 335.730469 80.601562 L 353.445312 80.601562 L 353.445312 231.195312 L 335.730469 231.195312 Z M 211.710938 284.347656 L 300.296875 284.347656 L 300.296875 302.0625 L 211.710938 302.0625 Z M 211.710938 310.921875 L 300.296875 310.921875 L 300.296875 328.640625 L 211.710938 328.640625 Z M 211.710938 337.496094 L 300.296875 337.496094 L 300.296875 355.214844 L 211.710938 355.214844 Z M 211.710938 364.074219 L 300.296875 364.074219 L 300.296875 381.789062 L 211.710938 381.789062 Z M 149.699219 186.902344 L 167.417969 186.902344 L 167.417969 222.335938 L 149.699219 222.335938 Z M 149.699219 231.195312 L 167.417969 231.195312 L 167.417969 266.628906 L 149.699219 266.628906 Z M 149.699219 275.488281 L 167.417969 275.488281 L 167.417969 310.921875 L 149.699219 310.921875 Z M 149.699219 319.78125 L 167.417969 319.78125 L 167.417969 355.214844 L 149.699219 355.214844 Z M 149.699219 364.074219 L 167.417969 364.074219 L 167.417969 399.507812 L 149.699219 399.507812 Z M 123.125 186.902344 L 140.84375 186.902344 L 140.84375 222.335938 L 123.125 222.335938 Z M 123.125 231.195312 L 140.84375 231.195312 L 140.84375 266.628906 L 123.125 266.628906 Z M 123.125 275.488281 L 140.84375 275.488281 L 140.84375 310.921875 L 123.125 310.921875 Z M 123.125 319.78125 L 140.84375 319.78125 L 140.84375 355.214844 L 123.125 355.214844 Z M 123.125 364.074219 L 140.84375 364.074219 L 140.84375 399.507812 L 123.125 399.507812 Z M 96.550781 186.902344 L 114.265625 186.902344 L 114.265625 222.335938 L 96.550781 222.335938 Z M 96.550781 231.195312 L 114.265625 231.195312 L 114.265625 266.628906 L 96.550781 266.628906 Z M 96.550781 275.488281 L 114.265625 275.488281 L 114.265625 310.921875 L 96.550781 310.921875 Z M 96.550781 319.78125 L 114.265625 319.78125 L 114.265625 355.214844 L 96.550781 355.214844 Z M 96.550781 364.074219 L 114.265625 364.074219 L 114.265625 399.507812 L 96.550781 399.507812 Z M 69.972656 186.902344 L 87.691406 186.902344 L 87.691406 222.335938 L 69.972656 222.335938 Z M 69.972656 231.195312 L 87.691406 231.195312 L 87.691406 266.628906 L 69.972656 266.628906 Z M 69.972656 275.488281 L 87.691406 275.488281 L 87.691406 310.921875 L 69.972656 310.921875 Z M 69.972656 319.78125 L 87.691406 319.78125 L 87.691406 355.214844 L 69.972656 355.214844 Z M 69.972656 364.074219 L 87.691406 364.074219 L 87.691406 399.507812 L 69.972656 399.507812 Z M 69.972656 364.074219 " fill-opacity="1" fill-rule="nonzero"/></g></svg>