<svg xmlns="http://www.w3.org/2000/svg" xmlns:xlink="http://www.w3.org/1999/xlink" width="600" zoomAndPan="magnify" viewBox="0 0 450 449.999984" height="600" preserveAspectRatio="xMidYMid meet" version="1.0"><path fill="#ffffff" d="M 115.578125 443.699219 L 228.90625 443.699219 C 242.621094 443.699219 247.582031 425.761719 240.328125 415.71875 C 239.515625 418.796875 238.714844 421.875 237.90625 424.953125 L 237.914062 424.945312 C 241.9375 422.632812 242.027344 417.601562 239.28125 414.34375 C 221.183594 392.859375 227.609375 359.621094 252.0625 346.148438 C 274.804688 333.628906 304.324219 343.980469 314.59375 367.738281 C 321.011719 382.589844 318.679688 400.445312 308.644531 413.136719 C 306.070312 416.386719 305.828125 421.46875 310.015625 423.738281 L 310.023438 423.738281 C 309.214844 420.660156 308.410156 417.582031 307.601562 414.503906 C 302.21875 422.101562 301.015625 431.972656 307.917969 439.054688 C 310.347656 441.550781 313.054688 443.367188 316.59375 443.511719 C 323.902344 443.808594 331.28125 443.527344 338.597656 443.546875 C 364.4375 443.582031 390.265625 443.628906 416.105469 443.664062 C 422.964844 443.671875 429.832031 443.683594 436.6875 443.691406 C 440.335938 443.699219 443.4375 440.59375 443.4375 436.941406 L 443.4375 155.359375 C 443.4375 142.414062 443.996094 129.320312 443.4375 116.386719 C 443.429688 116.199219 443.4375 116.019531 443.4375 115.828125 C 443.4375 112.183594 440.34375 109.078125 436.6875 109.078125 L 315.898438 109.078125 C 317.035156 109.386719 318.167969 109.691406 319.3125 109.996094 C 318.214844 109.429688 317.863281 109.222656 317.277344 108.394531 C 315.574219 105.992188 317.1875 103.328125 319.265625 100.386719 C 321.328125 97.480469 319.84375 92.773438 316.84375 91.152344 L 316.835938 91.152344 C 317.296875 94.6875 317.746094 98.21875 318.203125 101.753906 C 330.15625 86.632812 334.882812 67.003906 329.410156 48.277344 C 324.882812 32.769531 313.6875 19.214844 299.0625 12.222656 C 267.984375 -2.636719 230.5625 12.628906 218.644531 44.890625 C 211.285156 64.808594 216.277344 86.957031 229.753906 102.960938 C 230.210938 99.421875 230.660156 95.894531 231.121094 92.359375 L 231.109375 92.367188 C 228.160156 94.042969 226.566406 98.65625 228.691406 101.601562 C 230.5 104.101562 231.578125 107.351562 228.023438 110.007812 C 229.15625 109.699219 230.292969 109.394531 231.433594 109.089844 L 115.597656 109.089844 C 111.949219 109.089844 108.847656 112.183594 108.847656 115.839844 L 108.847656 234.855469 C 109.152344 233.722656 109.457031 232.585938 109.765625 231.445312 C 109.304688 232.109375 109.636719 231.445312 109.925781 231.273438 C 109.59375 231.472656 109.394531 231.957031 109.089844 232.191406 C 108.558594 232.585938 108.585938 233.011719 107.53125 233.261719 C 105.191406 233.8125 102.691406 232.003906 100.691406 230.597656 C 97.777344 228.546875 93.085938 230.023438 91.457031 233.019531 L 91.457031 233.027344 C 94.996094 232.570312 98.523438 232.117188 102.058594 231.660156 C 86.941406 219.707031 67.3125 214.984375 48.582031 220.453125 C 33.074219 224.980469 19.519531 236.179688 12.527344 250.804688 C -2.332031 281.878906 12.933594 319.300781 45.199219 331.21875 C 65.113281 338.578125 87.265625 333.585938 103.265625 320.113281 C 99.730469 319.652344 96.199219 319.203125 92.664062 318.742188 L 92.671875 318.753906 C 96.976562 326.296875 108.648438 319.507812 104.328125 311.941406 L 104.320312 311.929688 C 104.625 313.066406 104.929688 314.199219 105.238281 315.34375 L 105.238281 315.316406 C 104.121094 317.257812 103.003906 319.203125 101.898438 321.148438 C 103.90625 319.734375 106.390625 317.925781 108.738281 318.484375 C 109.339844 318.628906 109.980469 319.265625 110.050781 319.320312 C 110.367188 319.582031 110.609375 320.023438 110.941406 320.246094 C 111.671875 320.722656 110.277344 319.285156 110.980469 320.300781 C 110.671875 319.167969 110.367188 318.03125 110.0625 316.890625 C 109.710938 352 109.359375 387.109375 109.007812 422.21875 C 108.964844 427.132812 108.910156 432.046875 108.863281 436.960938 C 108.773438 445.644531 122.273438 445.652344 122.363281 436.960938 C 122.761719 397.511719 123.894531 358.003906 123.542969 318.5625 C 123.496094 313.820312 120.851562 310.167969 116.855469 307.59375 C 112.726562 304.921875 107.710938 304.253906 102.96875 305.542969 C 97.488281 307.027344 88.804688 311.976562 92.683594 318.78125 C 96.984375 326.320312 108.65625 319.535156 104.335938 311.96875 L 104.328125 311.957031 C 102.023438 307.917969 96.976562 307.855469 93.726562 310.589844 C 72.234375 328.6875 39.007812 322.261719 25.53125 297.808594 C 13.015625 275.066406 23.363281 245.546875 47.125 235.277344 C 61.972656 228.859375 79.828125 231.191406 92.519531 241.226562 C 95.769531 243.800781 100.855469 244.042969 103.121094 239.859375 L 103.121094 239.851562 C 100.042969 240.660156 96.964844 241.460938 93.886719 242.269531 C 101.628906 247.726562 111.519531 248.796875 118.636719 241.757812 C 121.15625 239.273438 122.292969 236.601562 122.347656 233.191406 C 122.480469 225.359375 122.347656 217.519531 122.347656 209.691406 L 122.347656 115.867188 L 115.597656 122.617188 L 228.914062 122.617188 C 242.605469 122.617188 247.652344 104.957031 240.34375 94.816406 C 239.535156 97.894531 238.734375 100.972656 237.925781 104.050781 L 237.933594 104.039062 C 241.972656 101.746094 242.027344 96.6875 239.300781 93.4375 C 221.203125 71.945312 227.628906 38.71875 252.082031 25.246094 C 274.824219 12.726562 304.34375 23.074219 314.613281 46.835938 C 321.03125 61.6875 318.699219 79.542969 308.664062 92.230469 C 306.089844 95.480469 305.847656 100.566406 310.03125 102.835938 L 310.039062 102.835938 C 309.230469 99.757812 308.429688 96.679688 307.621094 93.601562 C 302.238281 101.195312 301.03125 111.070312 307.933594 118.152344 C 310.363281 120.644531 313.074219 122.472656 316.609375 122.605469 C 323.917969 122.894531 331.300781 122.605469 338.617188 122.605469 L 436.707031 122.605469 L 429.957031 115.855469 L 429.957031 423.757812 C 429.957031 427.867188 429.472656 432.316406 429.957031 436.410156 C 429.976562 436.589844 429.957031 436.789062 429.957031 436.96875 L 436.707031 430.21875 C 401.445312 430.164062 366.183594 430.109375 330.921875 430.066406 C 325.917969 430.054688 320.921875 430.046875 315.917969 430.046875 C 317.050781 430.351562 318.1875 430.660156 319.328125 430.964844 C 318.230469 430.398438 317.878906 430.191406 317.296875 429.363281 C 315.59375 426.960938 317.203125 424.296875 319.285156 421.351562 C 321.34375 418.445312 319.859375 413.738281 316.863281 412.117188 L 316.855469 412.117188 C 317.3125 415.65625 317.761719 419.183594 318.222656 422.722656 C 330.175781 407.601562 334.898438 387.972656 329.425781 369.242188 C 324.898438 353.734375 313.703125 340.183594 299.078125 333.1875 C 268 318.328125 230.578125 333.59375 218.664062 365.859375 C 211.300781 385.777344 216.296875 407.925781 229.769531 423.925781 C 230.230469 420.390625 230.679688 416.863281 231.136719 413.324219 L 231.128906 413.335938 C 228.195312 415.027344 226.574219 419.617188 228.707031 422.566406 C 229.796875 424.078125 229.859375 424.097656 230.183594 425.539062 C 230.679688 427.753906 230.140625 429.460938 227.789062 431.152344 C 228.925781 430.847656 230.058594 430.542969 231.199219 430.234375 L 115.621094 430.234375 C 106.894531 430.199219 106.875 443.699219 115.578125 443.699219 Z M 115.578125 443.699219 " fill-opacity="1" fill-rule="nonzero"/></svg>